  0
SECTION
  2
HEADER
  9
$ACADVER
  1
AC1006
  9
$INSBASE
  10
0.000000
  20
0.000000
  30
0.000000
  9
$EXTMIN
  10
0.000000
  20
0.000000
  9
$EXTMAX
  10
1000.000000
  20
1000.000000
  0
ENDSEC
  0
SECTION
  2
BLOCKS
  0
BLOCK
  8
0
  2
Pattern_1813235_M
  70
64
  10
0
  20
0
  0
TEXT
  8
1
  10
0.000122
  20
1013.761292
  50
0.000000
  51
0.000000
  71
0.000000
  1
PIECE NAME: Pattern_1813235
  7
STANDARD
  0
TEXT
  8
1
  10
0.000122
  20
1008.761292
  50
0.000000
  51
0.000000
  71
0.000000
  1
SIZE: M
  7
STANDARD
  0
TEXT
  8
1
  10
0.000122
  20
998.761292
  50
0.000000
  51
0.000000
  71
0.000000
  1
QUANTITY: 1
  7
STANDARD
  0
POLYLINE
  8
1
  66
1
  70
1
  250
2
  0
VERTEX
  8
1
  10
-145.062149
  20
1172.383667
  0
VERTEX
  8
1
  10
-166.865326
  20
1138.591553
  0
VERTEX
  8
1
  10
-162.258072
  20
1133.811035
  0
VERTEX
  8
1
  10
-157.648575
  20
1129.034912
  0
VERTEX
  8
1
  10
-153.033463
  20
1124.266357
  0
VERTEX
  8
1
  10
-148.409378
  20
1119.508179
  0
VERTEX
  8
1
  10
-143.772934
  20
1114.763306
  0
VERTEX
  8
1
  10
-139.120804
  20
1110.034790
  0
VERTEX
  8
1
  10
-134.449585
  20
1105.325439
  0
VERTEX
  8
1
  10
-129.755905
  20
1100.638184
  0
VERTEX
  8
1
  10
-125.036430
  20
1095.976074
  0
VERTEX
  8
1
  10
-120.287766
  20
1091.342041
  0
VERTEX
  8
1
  10
-117.252914
  20
1088.410645
  0
VERTEX
  8
1
  10
-114.211861
  20
1085.487061
  0
VERTEX
  8
1
  10
-111.170425
  20
1082.564575
  0
VERTEX
  8
1
  10
-108.134491
  20
1079.637085
  0
VERTEX
  8
1
  10
-105.109894
  20
1076.698242
  0
VERTEX
  8
1
  10
-102.102478
  20
1073.741455
  0
VERTEX
  8
1
  10
-99.118095
  20
1070.760376
  0
VERTEX
  8
1
  10
-96.162598
  20
1067.748779
  0
VERTEX
  8
1
  10
-93.241844
  20
1064.700195
  0
VERTEX
  8
1
  10
-90.361664
  20
1061.608154
  0
VERTEX
  8
1
  10
-87.527916
  20
1058.466431
  0
VERTEX
  8
1
  10
-85.934982
  20
1056.650391
  0
VERTEX
  8
1
  10
-84.360962
  20
1054.816406
  0
VERTEX
  8
1
  10
-82.807297
  20
1052.964355
  0
VERTEX
  8
1
  10
-81.275436
  20
1051.094116
  0
VERTEX
  8
1
  10
-79.766792
  20
1049.205444
  0
VERTEX
  8
1
  10
-78.282845
  20
1047.298218
  0
VERTEX
  8
1
  10
-76.825012
  20
1045.372070
  0
VERTEX
  8
1
  10
-75.394753
  20
1043.427002
  0
VERTEX
  8
1
  10
-73.993477
  20
1041.462646
  0
VERTEX
  8
1
  10
-72.622658
  20
1039.478882
  0
VERTEX
  8
1
  10
-71.283722
  20
1037.475342
  0
VERTEX
  8
1
  10
-69.978111
  20
1035.452148
  0
VERTEX
  8
1
  10
-68.707275
  20
1033.408813
  0
VERTEX
  8
1
  10
-67.472649
  20
1031.345215
  0
VERTEX
  8
1
  10
-66.275681
  20
1029.261230
  0
VERTEX
  8
1
  10
-65.117790
  20
1027.156494
  0
VERTEX
  8
1
  10
-63.820744
  20
1024.681763
  0
VERTEX
  8
1
  10
-62.575291
  20
1022.181702
  0
VERTEX
  8
1
  10
-61.377419
  20
1019.658142
  0
VERTEX
  8
1
  10
-60.223137
  20
1017.113037
  0
VERTEX
  8
1
  10
-59.108459
  20
1014.548279
  0
VERTEX
  8
1
  10
-58.029392
  20
1011.965820
  0
VERTEX
  8
1
  10
-56.981934
  20
1009.367554
  0
VERTEX
  8
1
  10
-55.962097
  20
1006.755432
  0
VERTEX
  8
1
  10
-54.965881
  20
1004.131348
  0
VERTEX
  8
1
  10
-53.989307
  20
1001.497192
  0
VERTEX
  8
1
  10
-53.028366
  20
998.854919
  0
VERTEX
  8
1
  10
-52.079075
  20
996.206421
  0
VERTEX
  8
1
  10
-51.137428
  20
993.553650
  0
VERTEX
  8
1
  10
-50.199448
  20
990.898438
  0
VERTEX
  8
1
  10
-48.824421
  20
986.228149
  0
VERTEX
  8
1
  10
-47.445770
  20
981.563660
  0
VERTEX
  8
1
  10
-46.065666
  20
976.904419
  0
VERTEX
  8
1
  10
-44.686283
  20
972.249634
  0
VERTEX
  8
1
  10
-43.309788
  20
967.598633
  0
VERTEX
  8
1
  10
-41.938381
  20
962.950745
  0
VERTEX
  8
1
  10
-40.574196
  20
958.305298
  0
VERTEX
  8
1
  10
-39.219437
  20
953.661499
  0
VERTEX
  8
1
  10
-37.876278
  20
949.018738
  0
VERTEX
  8
1
  10
-36.546879
  20
944.376282
  0
VERTEX
  8
1
  10
-35.233418
  20
939.733521
  0
VERTEX
  8
1
  10
-33.938080
  20
935.089600
  0
VERTEX
  8
1
  10
-32.663017
  20
930.444031
  0
VERTEX
  8
1
  10
-31.410419
  20
925.795959
  0
VERTEX
  8
1
  10
-30.182465
  20
921.144714
  0
VERTEX
  8
1
  10
-28.981314
  20
916.489685
  0
VERTEX
  8
1
  10
-27.809147
  20
911.830078
  0
VERTEX
  8
1
  10
-26.668144
  20
907.165283
  0
VERTEX
  8
1
  10
-25.560474
  20
902.494568
  0
VERTEX
  8
1
  10
-24.488304
  20
897.817261
  0
VERTEX
  8
1
  10
-23.453817
  20
893.132629
  0
VERTEX
  8
1
  10
-22.459188
  20
888.440002
  0
VERTEX
  8
1
  10
-21.506586
  20
883.738647
  0
VERTEX
  8
1
  10
-20.598190
  20
879.027954
  0
VERTEX
  8
1
  10
-19.736168
  20
874.307251
  0
VERTEX
  8
1
  10
-18.922695
  20
869.575684
  0
VERTEX
  8
1
  10
-18.159950
  20
864.832703
  0
VERTEX
  8
1
  10
-17.450104
  20
860.077515
  0
VERTEX
  8
1
  10
-16.795332
  20
855.309509
  0
VERTEX
  8
1
  10
0.006015
  20
855.132935
  0
VERTEX
  8
1
  10
16.807375
  20
855.310242
  0
VERTEX
  8
1
  10
17.461946
  20
860.078247
  0
VERTEX
  8
1
  10
18.171600
  20
864.833435
  0
VERTEX
  8
1
  10
18.934147
  20
869.576477
  0
VERTEX
  8
1
  10
19.747419
  20
874.308044
  0
VERTEX
  8
1
  10
20.609241
  20
879.028870
  0
VERTEX
  8
1
  10
21.517450
  20
883.739563
  0
VERTEX
  8
1
  10
22.469852
  20
888.440918
  0
VERTEX
  8
1
  10
23.464287
  20
893.133606
  0
VERTEX
  8
1
  10
24.498579
  20
897.818237
  0
VERTEX
  8
1
  10
25.570549
  20
902.495605
  0
VERTEX
  8
1
  10
26.678028
  20
907.166382
  0
VERTEX
  8
1
  10
27.818844
  20
911.831238
  0
VERTEX
  8
1
  10
28.990814
  20
916.490845
  0
VERTEX
  8
1
  10
30.191763
  20
921.145996
  0
VERTEX
  8
1
  10
31.419531
  20
925.797241
  0
VERTEX
  8
1
  10
32.671932
  20
930.445374
  0
VERTEX
  8
1
  10
33.946796
  20
935.091064
  0
VERTEX
  8
1
  10
35.241947
  20
939.734985
  0
VERTEX
  8
1
  10
36.555218
  20
944.377808
  0
VERTEX
  8
1
  10
37.884418
  20
949.020325
  0
VERTEX
  8
1
  10
39.227394
  20
953.663147
  0
VERTEX
  8
1
  10
40.581959
  20
958.306946
  0
VERTEX
  8
1
  10
41.945942
  20
962.952515
  0
VERTEX
  8
1
  10
43.317165
  20
967.600464
  0
VERTEX
  8
1
  10
44.693462
  20
972.251526
  0
VERTEX
  8
1
  10
46.072647
  20
976.906311
  0
VERTEX
  8
1
  10
47.452560
  20
981.565674
  0
VERTEX
  8
1
  10
48.831017
  20
986.230164
  0
VERTEX
  8
1
  10
50.205849
  20
990.900513
  0
VERTEX
  8
1
  10
51.143723
  20
993.555725
  0
VERTEX
  8
1
  10
52.085255
  20
996.208618
  0
VERTEX
  8
1
  10
53.034439
  20
998.857117
  0
VERTEX
  8
1
  10
53.995266
  20
1001.499451
  0
VERTEX
  8
1
  10
54.971737
  20
1004.133667
  0
VERTEX
  8
1
  10
55.967842
  20
1006.757751
  0
VERTEX
  8
1
  10
56.987564
  20
1009.369934
  0
VERTEX
  8
1
  10
58.034916
  20
1011.968262
  0
VERTEX
  8
1
  10
59.113880
  20
1014.550720
  0
VERTEX
  8
1
  10
60.228447
  20
1017.115540
  0
VERTEX
  8
1
  10
61.382622
  20
1019.660645
  0
VERTEX
  8
1
  10
62.580387
  20
1022.184265
  0
VERTEX
  8
1
  10
63.825745
  20
1024.684448
  0
VERTEX
  8
1
  10
65.122688
  20
1027.159180
  0
VERTEX
  8
1
  10
66.280479
  20
1029.263916
  0
VERTEX
  8
1
  10
67.477364
  20
1031.348022
  0
VERTEX
  8
1
  10
68.711914
  20
1033.411621
  0
VERTEX
  8
1
  10
69.982658
  20
1035.455078
  0
VERTEX
  8
1
  10
71.288185
  20
1037.478394
  0
VERTEX
  8
1
  10
72.627037
  20
1039.481812
  0
VERTEX
  8
1
  10
73.997780
  20
1041.465698
  0
VERTEX
  8
1
  10
75.398964
  20
1043.430176
  0
VERTEX
  8
1
  10
76.829147
  20
1045.375366
  0
VERTEX
  8
1
  10
78.286903
  20
1047.301514
  0
VERTEX
  8
1
  10
79.770775
  20
1049.208862
  0
VERTEX
  8
1
  10
81.279320
  20
1051.097534
  0
VERTEX
  8
1
  10
82.811111
  20
1052.967773
  0
VERTEX
  8
1
  10
84.364700
  20
1054.819824
  0
VERTEX
  8
1
  10
85.938644
  20
1056.653931
  0
VERTEX
  8
1
  10
87.531502
  20
1058.470093
  0
VERTEX
  8
1
  10
90.365128
  20
1061.611938
  0
VERTEX
  8
1
  10
93.245171
  20
1064.704102
  0
VERTEX
  8
1
  10
96.165810
  20
1067.752808
  0
VERTEX
  8
1
  10
99.121178
  20
1070.764526
  0
VERTEX
  8
1
  10
102.105438
  20
1073.745605
  0
VERTEX
  8
1
  10
105.112732
  20
1076.702515
  0
VERTEX
  8
1
  10
108.137207
  20
1079.641602
  0
VERTEX
  8
1
  10
111.173027
  20
1082.569214
  0
VERTEX
  8
1
  10
114.214333
  20
1085.491699
  0
VERTEX
  8
1
  10
117.255264
  20
1088.415649
  0
VERTEX
  8
1
  10
120.289993
  20
1091.347046
  0
VERTEX
  8
1
  10
125.038460
  20
1095.981323
  0
VERTEX
  8
1
  10
129.757736
  20
1100.643555
  0
VERTEX
  8
1
  10
134.451218
  20
1105.331055
  0
VERTEX
  8
1
  10
139.122238
  20
1110.040527
  0
VERTEX
  8
1
  10
143.774185
  20
1114.769287
  0
VERTEX
  8
1
  10
148.410416
  20
1119.514404
  0
VERTEX
  8
1
  10
153.034317
  20
1124.272705
  0
VERTEX
  8
1
  10
157.649216
  20
1129.041504
  0
VERTEX
  8
1
  10
162.258530
  20
1133.817749
  0
VERTEX
  8
1
  10
166.865570
  20
1138.598511
  0
VERTEX
  8
1
  10
145.060989
  20
1172.389648
  0
VERTEX
  8
1
  10
141.494461
  20
1169.950073
  0
VERTEX
  8
1
  10
137.925827
  20
1167.513916
  0
VERTEX
  8
1
  10
134.352005
  20
1165.084595
  0
VERTEX
  8
1
  10
130.769928
  20
1162.665039
  0
VERTEX
  8
1
  10
127.176514
  20
1160.258423
  0
VERTEX
  8
1
  10
123.568672
  20
1157.868042
  0
VERTEX
  8
1
  10
119.943344
  20
1155.497070
  0
VERTEX
  8
1
  10
116.297447
  20
1153.148560
  0
VERTEX
  8
1
  10
112.627899
  20
1150.825684
  0
VERTEX
  8
1
  10
108.931641
  20
1148.531738
  0
VERTEX
  8
1
  10
105.205559
  20
1146.269775
  0
VERTEX
  8
1
  10
101.446594
  20
1144.042969
  0
VERTEX
  8
1
  10
99.738640
  20
1143.050537
  0
VERTEX
  8
1
  10
98.023743
  20
1142.066895
  0
VERTEX
  8
1
  10
96.301933
  20
1141.093018
  0
VERTEX
  8
1
  10
94.573189
  20
1140.129883
  0
VERTEX
  8
1
  10
92.837540
  20
1139.178467
  0
VERTEX
  8
1
  10
91.094963
  20
1138.239502
  0
VERTEX
  8
1
  10
89.345497
  20
1137.314087
  0
VERTEX
  8
1
  10
87.589127
  20
1136.403076
  0
VERTEX
  8
1
  10
85.825859
  20
1135.507446
  0
VERTEX
  8
1
  10
84.055725
  20
1134.628174
  0
VERTEX
  8
1
  10
82.278687
  20
1133.765869
  0
VERTEX
  8
1
  10
80.494781
  20
1132.921875
  0
VERTEX
  8
1
  10
78.704002
  20
1132.096802
  0
VERTEX
  8
1
  10
76.906372
  20
1131.291748
  0
VERTEX
  8
1
  10
75.101875
  20
1130.507446
  0
VERTEX
  8
1
  10
73.290520
  20
1129.745117
  0
VERTEX
  8
1
  10
71.472321
  20
1129.005371
  0
VERTEX
  8
1
  10
69.647293
  20
1128.289429
  0
VERTEX
  8
1
  10
67.815430
  20
1127.597900
  0
VERTEX
  8
1
  10
65.976730
  20
1126.932007
  0
VERTEX
  8
1
  10
64.131195
  20
1126.292480
  0
VERTEX
  8
1
  10
62.278862
  20
1125.680298
  0
VERTEX
  8
1
  10
60.419704
  20
1125.096436
  0
VERTEX
  8
1
  10
58.553749
  20
1124.541748
  0
VERTEX
  8
1
  10
56.680992
  20
1124.017212
  0
VERTEX
  8
1
  10
54.801445
  20
1123.523682
  0
VERTEX
  8
1
  10
52.915104
  20
1123.062134
  0
VERTEX
  8
1
  10
51.021984
  20
1122.633423
  0
VERTEX
  8
1
  10
48.765472
  20
1122.167847
  0
VERTEX
  8
1
  10
46.500355
  20
1121.748047
  0
VERTEX
  8
1
  10
44.227028
  20
1121.371582
  0
VERTEX
  8
1
  10
41.945881
  20
1121.036621
  0
VERTEX
  8
1
  10
39.657318
  20
1120.740723
  0
VERTEX
  8
1
  10
37.361729
  20
1120.481934
  0
VERTEX
  8
1
  10
35.059513
  20
1120.257812
  0
VERTEX
  8
1
  10
32.751064
  20
1120.066284
  0
VERTEX
  8
1
  10
30.436779
  20
1119.905273
  0
VERTEX
  8
1
  10
28.117060
  20
1119.772461
  0
VERTEX
  8
1
  10
25.792297
  20
1119.665771
  0
VERTEX
  8
1
  10
23.462889
  20
1119.582886
  0
VERTEX
  8
1
  10
21.129236
  20
1119.521851
  0
VERTEX
  8
1
  10
18.791723
  20
1119.480225
  0
VERTEX
  8
1
  10
16.450758
  20
1119.455933
  0
VERTEX
  8
1
  10
14.106730
  20
1119.446899
  0
VERTEX
  8
1
  10
11.760046
  20
1119.450806
  0
VERTEX
  8
1
  10
9.411089
  20
1119.465454
  0
VERTEX
  8
1
  10
7.060264
  20
1119.488770
  0
VERTEX
  8
1
  10
4.707964
  20
1119.518555
  0
VERTEX
  8
1
  10
2.354594
  20
1119.552612
  0
VERTEX
  8
1
  10
0.000534
  20
1119.588623
  0
VERTEX
  8
1
  10
-2.353522
  20
1119.552490
  0
VERTEX
  8
1
  10
-4.706897
  20
1119.518311
  0
VERTEX
  8
1
  10
-7.059196
  20
1119.488525
  0
VERTEX
  8
1
  10
-9.410021
  20
1119.465088
  0
VERTEX
  8
1
  10
-11.758974
  20
1119.450317
  0
VERTEX
  8
1
  10
-14.105663
  20
1119.446289
  0
VERTEX
  8
1
  10
-16.449688
  20
1119.455322
  0
VERTEX
  8
1
  10
-18.790655
  20
1119.479492
  0
VERTEX
  8
1
  10
-21.128168
  20
1119.520874
  0
VERTEX
  8
1
  10
-23.461830
  20
1119.581909
  0
VERTEX
  8
1
  10
-25.791241
  20
1119.664673
  0
VERTEX
  8
1
  10
-28.116007
  20
1119.771362
  0
VERTEX
  8
1
  10
-30.435732
  20
1119.904053
  0
VERTEX
  8
1
  10
-32.750027
  20
1120.064941
  0
VERTEX
  8
1
  10
-35.058487
  20
1120.256348
  0
VERTEX
  8
1
  10
-37.360718
  20
1120.480347
  0
VERTEX
  8
1
  10
-39.656315
  20
1120.739136
  0
VERTEX
  8
1
  10
-41.944901
  20
1121.034912
  0
VERTEX
  8
1
  10
-44.226059
  20
1121.369873
  0
VERTEX
  8
1
  10
-46.499405
  20
1121.746094
  0
VERTEX
  8
1
  10
-48.764530
  20
1122.165771
  0
VERTEX
  8
1
  10
-51.021061
  20
1122.631348
  0
VERTEX
  8
1
  10
-52.914204
  20
1123.059937
  0
VERTEX
  8
1
  10
-54.800560
  20
1123.521362
  0
VERTEX
  8
1
  10
-56.680134
  20
1124.014893
  0
VERTEX
  8
1
  10
-58.552914
  20
1124.539307
  0
VERTEX
  8
1
  10
-60.418896
  20
1125.093994
  0
VERTEX
  8
1
  10
-62.278069
  20
1125.677734
  0
VERTEX
  8
1
  10
-64.130440
  20
1126.289795
  0
VERTEX
  8
1
  10
-65.975975
  20
1126.929321
  0
VERTEX
  8
1
  10
-67.814713
  20
1127.595093
  0
VERTEX
  8
1
  10
-69.646606
  20
1128.286499
  0
VERTEX
  8
1
  10
-71.471680
  20
1129.002441
  0
VERTEX
  8
1
  10
-73.289894
  20
1129.742065
  0
VERTEX
  8
1
  10
-75.101280
  20
1130.504395
  0
VERTEX
  8
1
  10
-76.905807
  20
1131.288452
  0
VERTEX
  8
1
  10
-78.703476
  20
1132.093506
  0
VERTEX
  8
1
  10
-80.494293
  20
1132.918457
  0
VERTEX
  8
1
  10
-82.278229
  20
1133.762451
  0
VERTEX
  8
1
  10
-84.055290
  20
1134.624634
  0
VERTEX
  8
1
  10
-85.825478
  20
1135.503906
  0
VERTEX
  8
1
  10
-87.588768
  20
1136.399536
  0
VERTEX
  8
1
  10
-89.345192
  20
1137.310425
  0
VERTEX
  8
1
  10
-91.094688
  20
1138.235718
  0
VERTEX
  8
1
  10
-92.837311
  20
1139.174561
  0
VERTEX
  8
1
  10
-94.572990
  20
1140.125977
  0
VERTEX
  8
1
  10
-96.301773
  20
1141.088989
  0
VERTEX
  8
1
  10
-98.023636
  20
1142.062744
  0
VERTEX
  8
1
  10
-99.738571
  20
1143.046387
  0
VERTEX
  8
1
  10
-101.446564
  20
1144.038818
  0
VERTEX
  8
1
  10
-105.205612
  20
1146.265381
  0
VERTEX
  8
1
  10
-108.931793
  20
1148.527222
  0
VERTEX
  8
1
  10
-112.628159
  20
1150.821045
  0
VERTEX
  8
1
  10
-116.297806
  20
1153.143677
  0
VERTEX
  8
1
  10
-119.943787
  20
1155.492065
  0
VERTEX
  8
1
  10
-123.569214
  20
1157.862915
  0
VERTEX
  8
1
  10
-127.177155
  20
1160.253174
  0
VERTEX
  8
1
  10
-130.770660
  20
1162.659546
  0
VERTEX
  8
1
  10
-134.352859
  20
1165.078979
  0
VERTEX
  8
1
  10
-137.926773
  20
1167.508301
  0
VERTEX
  8
1
  10
-141.495499
  20
1169.944214
  0
SEQEND
  0
POINT
  8
2
  10
-145.062149
  20
1172.383667
  0
POINT
  8
2
  10
-166.865326
  20
1138.591553
  0
POINT
  8
2
  10
-50.199448
  20
990.898438
  0
POINT
  8
2
  10
-16.795332
  20
855.309509
  0
POINT
  8
2
  10
0.006015
  20
855.132935
  0
POINT
  8
2
  10
16.807375
  20
855.310242
  0
POINT
  8
2
  10
50.205849
  20
990.900513
  0
POINT
  8
2
  10
166.865570
  20
1138.598511
  0
POINT
  8
2
  10
145.060989
  20
1172.389648
  0
POINT
  8
2
  10
0.000534
  20
1119.588623
  0
POINT
  8
3
  10
-162.258072
  20
1133.811035
  0
POINT
  8
3
  10
-157.648575
  20
1129.034912
  0
POINT
  8
3
  10
-153.033463
  20
1124.266357
  0
POINT
  8
3
  10
-148.409378
  20
1119.508179
  0
POINT
  8
3
  10
-143.772934
  20
1114.763306
  0
POINT
  8
3
  10
-139.120804
  20
1110.034790
  0
POINT
  8
3
  10
-134.449585
  20
1105.325439
  0
POINT
  8
3
  10
-129.755905
  20
1100.638184
  0
POINT
  8
3
  10
-125.036430
  20
1095.976074
  0
POINT
  8
3
  10
-120.287766
  20
1091.342041
  0
POINT
  8
3
  10
-117.252914
  20
1088.410645
  0
POINT
  8
3
  10
-114.211861
  20
1085.487061
  0
POINT
  8
3
  10
-111.170425
  20
1082.564575
  0
POINT
  8
3
  10
-108.134491
  20
1079.637085
  0
POINT
  8
3
  10
-105.109894
  20
1076.698242
  0
POINT
  8
3
  10
-102.102478
  20
1073.741455
  0
POINT
  8
3
  10
-99.118095
  20
1070.760376
  0
POINT
  8
3
  10
-96.162598
  20
1067.748779
  0
POINT
  8
3
  10
-93.241844
  20
1064.700195
  0
POINT
  8
3
  10
-90.361664
  20
1061.608154
  0
POINT
  8
3
  10
-87.527916
  20
1058.466431
  0
POINT
  8
3
  10
-85.934982
  20
1056.650391
  0
POINT
  8
3
  10
-84.360962
  20
1054.816406
  0
POINT
  8
3
  10
-82.807297
  20
1052.964355
  0
POINT
  8
3
  10
-81.275436
  20
1051.094116
  0
POINT
  8
3
  10
-79.766792
  20
1049.205444
  0
POINT
  8
3
  10
-78.282845
  20
1047.298218
  0
POINT
  8
3
  10
-76.825012
  20
1045.372070
  0
POINT
  8
3
  10
-75.394753
  20
1043.427002
  0
POINT
  8
3
  10
-73.993477
  20
1041.462646
  0
POINT
  8
3
  10
-72.622658
  20
1039.478882
  0
POINT
  8
3
  10
-71.283722
  20
1037.475342
  0
POINT
  8
3
  10
-69.978111
  20
1035.452148
  0
POINT
  8
3
  10
-68.707275
  20
1033.408813
  0
POINT
  8
3
  10
-67.472649
  20
1031.345215
  0
POINT
  8
3
  10
-66.275681
  20
1029.261230
  0
POINT
  8
3
  10
-65.117790
  20
1027.156494
  0
POINT
  8
3
  10
-63.820744
  20
1024.681763
  0
POINT
  8
3
  10
-62.575291
  20
1022.181702
  0
POINT
  8
3
  10
-61.377419
  20
1019.658142
  0
POINT
  8
3
  10
-60.223137
  20
1017.113037
  0
POINT
  8
3
  10
-59.108459
  20
1014.548279
  0
POINT
  8
3
  10
-58.029392
  20
1011.965820
  0
POINT
  8
3
  10
-56.981934
  20
1009.367554
  0
POINT
  8
3
  10
-55.962097
  20
1006.755432
  0
POINT
  8
3
  10
-54.965881
  20
1004.131348
  0
POINT
  8
3
  10
-53.989307
  20
1001.497192
  0
POINT
  8
3
  10
-53.028366
  20
998.854919
  0
POINT
  8
3
  10
-52.079075
  20
996.206421
  0
POINT
  8
3
  10
-51.137428
  20
993.553650
  0
POINT
  8
3
  10
-48.824421
  20
986.228149
  0
POINT
  8
3
  10
-47.445770
  20
981.563660
  0
POINT
  8
3
  10
-46.065666
  20
976.904419
  0
POINT
  8
3
  10
-44.686283
  20
972.249634
  0
POINT
  8
3
  10
-43.309788
  20
967.598633
  0
POINT
  8
3
  10
-41.938381
  20
962.950745
  0
POINT
  8
3
  10
-40.574196
  20
958.305298
  0
POINT
  8
3
  10
-39.219437
  20
953.661499
  0
POINT
  8
3
  10
-37.876278
  20
949.018738
  0
POINT
  8
3
  10
-36.546879
  20
944.376282
  0
POINT
  8
3
  10
-35.233418
  20
939.733521
  0
POINT
  8
3
  10
-33.938080
  20
935.089600
  0
POINT
  8
3
  10
-32.663017
  20
930.444031
  0
POINT
  8
3
  10
-31.410419
  20
925.795959
  0
POINT
  8
3
  10
-30.182465
  20
921.144714
  0
POINT
  8
3
  10
-28.981314
  20
916.489685
  0
POINT
  8
3
  10
-27.809147
  20
911.830078
  0
POINT
  8
3
  10
-26.668144
  20
907.165283
  0
POINT
  8
3
  10
-25.560474
  20
902.494568
  0
POINT
  8
3
  10
-24.488304
  20
897.817261
  0
POINT
  8
3
  10
-23.453817
  20
893.132629
  0
POINT
  8
3
  10
-22.459188
  20
888.440002
  0
POINT
  8
3
  10
-21.506586
  20
883.738647
  0
POINT
  8
3
  10
-20.598190
  20
879.027954
  0
POINT
  8
3
  10
-19.736168
  20
874.307251
  0
POINT
  8
3
  10
-18.922695
  20
869.575684
  0
POINT
  8
3
  10
-18.159950
  20
864.832703
  0
POINT
  8
3
  10
-17.450104
  20
860.077515
  0
POINT
  8
3
  10
17.461946
  20
860.078247
  0
POINT
  8
3
  10
18.171600
  20
864.833435
  0
POINT
  8
3
  10
18.934147
  20
869.576477
  0
POINT
  8
3
  10
19.747419
  20
874.308044
  0
POINT
  8
3
  10
20.609241
  20
879.028870
  0
POINT
  8
3
  10
21.517450
  20
883.739563
  0
POINT
  8
3
  10
22.469852
  20
888.440918
  0
POINT
  8
3
  10
23.464287
  20
893.133606
  0
POINT
  8
3
  10
24.498579
  20
897.818237
  0
POINT
  8
3
  10
25.570549
  20
902.495605
  0
POINT
  8
3
  10
26.678028
  20
907.166382
  0
POINT
  8
3
  10
27.818844
  20
911.831238
  0
POINT
  8
3
  10
28.990814
  20
916.490845
  0
POINT
  8
3
  10
30.191763
  20
921.145996
  0
POINT
  8
3
  10
31.419531
  20
925.797241
  0
POINT
  8
3
  10
32.671932
  20
930.445374
  0
POINT
  8
3
  10
33.946796
  20
935.091064
  0
POINT
  8
3
  10
35.241947
  20
939.734985
  0
POINT
  8
3
  10
36.555218
  20
944.377808
  0
POINT
  8
3
  10
37.884418
  20
949.020325
  0
POINT
  8
3
  10
39.227394
  20
953.663147
  0
POINT
  8
3
  10
40.581959
  20
958.306946
  0
POINT
  8
3
  10
41.945942
  20
962.952515
  0
POINT
  8
3
  10
43.317165
  20
967.600464
  0
POINT
  8
3
  10
44.693462
  20
972.251526
  0
POINT
  8
3
  10
46.072647
  20
976.906311
  0
POINT
  8
3
  10
47.452560
  20
981.565674
  0
POINT
  8
3
  10
48.831017
  20
986.230164
  0
POINT
  8
3
  10
51.143723
  20
993.555725
  0
POINT
  8
3
  10
52.085255
  20
996.208618
  0
POINT
  8
3
  10
53.034439
  20
998.857117
  0
POINT
  8
3
  10
53.995266
  20
1001.499451
  0
POINT
  8
3
  10
54.971737
  20
1004.133667
  0
POINT
  8
3
  10
55.967842
  20
1006.757751
  0
POINT
  8
3
  10
56.987564
  20
1009.369934
  0
POINT
  8
3
  10
58.034916
  20
1011.968262
  0
POINT
  8
3
  10
59.113880
  20
1014.550720
  0
POINT
  8
3
  10
60.228447
  20
1017.115540
  0
POINT
  8
3
  10
61.382622
  20
1019.660645
  0
POINT
  8
3
  10
62.580387
  20
1022.184265
  0
POINT
  8
3
  10
63.825745
  20
1024.684448
  0
POINT
  8
3
  10
65.122688
  20
1027.159180
  0
POINT
  8
3
  10
66.280479
  20
1029.263916
  0
POINT
  8
3
  10
67.477364
  20
1031.348022
  0
POINT
  8
3
  10
68.711914
  20
1033.411621
  0
POINT
  8
3
  10
69.982658
  20
1035.455078
  0
POINT
  8
3
  10
71.288185
  20
1037.478394
  0
POINT
  8
3
  10
72.627037
  20
1039.481812
  0
POINT
  8
3
  10
73.997780
  20
1041.465698
  0
POINT
  8
3
  10
75.398964
  20
1043.430176
  0
POINT
  8
3
  10
76.829147
  20
1045.375366
  0
POINT
  8
3
  10
78.286903
  20
1047.301514
  0
POINT
  8
3
  10
79.770775
  20
1049.208862
  0
POINT
  8
3
  10
81.279320
  20
1051.097534
  0
POINT
  8
3
  10
82.811111
  20
1052.967773
  0
POINT
  8
3
  10
84.364700
  20
1054.819824
  0
POINT
  8
3
  10
85.938644
  20
1056.653931
  0
POINT
  8
3
  10
87.531502
  20
1058.470093
  0
POINT
  8
3
  10
90.365128
  20
1061.611938
  0
POINT
  8
3
  10
93.245171
  20
1064.704102
  0
POINT
  8
3
  10
96.165810
  20
1067.752808
  0
POINT
  8
3
  10
99.121178
  20
1070.764526
  0
POINT
  8
3
  10
102.105438
  20
1073.745605
  0
POINT
  8
3
  10
105.112732
  20
1076.702515
  0
POINT
  8
3
  10
108.137207
  20
1079.641602
  0
POINT
  8
3
  10
111.173027
  20
1082.569214
  0
POINT
  8
3
  10
114.214333
  20
1085.491699
  0
POINT
  8
3
  10
117.255264
  20
1088.415649
  0
POINT
  8
3
  10
120.289993
  20
1091.347046
  0
POINT
  8
3
  10
125.038460
  20
1095.981323
  0
POINT
  8
3
  10
129.757736
  20
1100.643555
  0
POINT
  8
3
  10
134.451218
  20
1105.331055
  0
POINT
  8
3
  10
139.122238
  20
1110.040527
  0
POINT
  8
3
  10
143.774185
  20
1114.769287
  0
POINT
  8
3
  10
148.410416
  20
1119.514404
  0
POINT
  8
3
  10
153.034317
  20
1124.272705
  0
POINT
  8
3
  10
157.649216
  20
1129.041504
  0
POINT
  8
3
  10
162.258530
  20
1133.817749
  0
POINT
  8
3
  10
141.494461
  20
1169.950073
  0
POINT
  8
3
  10
137.925827
  20
1167.513916
  0
POINT
  8
3
  10
134.352005
  20
1165.084595
  0
POINT
  8
3
  10
130.769928
  20
1162.665039
  0
POINT
  8
3
  10
127.176514
  20
1160.258423
  0
POINT
  8
3
  10
123.568672
  20
1157.868042
  0
POINT
  8
3
  10
119.943344
  20
1155.497070
  0
POINT
  8
3
  10
116.297447
  20
1153.148560
  0
POINT
  8
3
  10
112.627899
  20
1150.825684
  0
POINT
  8
3
  10
108.931641
  20
1148.531738
  0
POINT
  8
3
  10
105.205559
  20
1146.269775
  0
POINT
  8
3
  10
101.446594
  20
1144.042969
  0
POINT
  8
3
  10
99.738640
  20
1143.050537
  0
POINT
  8
3
  10
98.023743
  20
1142.066895
  0
POINT
  8
3
  10
96.301933
  20
1141.093018
  0
POINT
  8
3
  10
94.573189
  20
1140.129883
  0
POINT
  8
3
  10
92.837540
  20
1139.178467
  0
POINT
  8
3
  10
91.094963
  20
1138.239502
  0
POINT
  8
3
  10
89.345497
  20
1137.314087
  0
POINT
  8
3
  10
87.589127
  20
1136.403076
  0
POINT
  8
3
  10
85.825859
  20
1135.507446
  0
POINT
  8
3
  10
84.055725
  20
1134.628174
  0
POINT
  8
3
  10
82.278687
  20
1133.765869
  0
POINT
  8
3
  10
80.494781
  20
1132.921875
  0
POINT
  8
3
  10
78.704002
  20
1132.096802
  0
POINT
  8
3
  10
76.906372
  20
1131.291748
  0
POINT
  8
3
  10
75.101875
  20
1130.507446
  0
POINT
  8
3
  10
73.290520
  20
1129.745117
  0
POINT
  8
3
  10
71.472321
  20
1129.005371
  0
POINT
  8
3
  10
69.647293
  20
1128.289429
  0
POINT
  8
3
  10
67.815430
  20
1127.597900
  0
POINT
  8
3
  10
65.976730
  20
1126.932007
  0
POINT
  8
3
  10
64.131195
  20
1126.292480
  0
POINT
  8
3
  10
62.278862
  20
1125.680298
  0
POINT
  8
3
  10
60.419704
  20
1125.096436
  0
POINT
  8
3
  10
58.553749
  20
1124.541748
  0
POINT
  8
3
  10
56.680992
  20
1124.017212
  0
POINT
  8
3
  10
54.801445
  20
1123.523682
  0
POINT
  8
3
  10
52.915104
  20
1123.062134
  0
POINT
  8
3
  10
51.021984
  20
1122.633423
  0
POINT
  8
3
  10
48.765472
  20
1122.167847
  0
POINT
  8
3
  10
46.500355
  20
1121.748047
  0
POINT
  8
3
  10
44.227028
  20
1121.371582
  0
POINT
  8
3
  10
41.945881
  20
1121.036621
  0
POINT
  8
3
  10
39.657318
  20
1120.740723
  0
POINT
  8
3
  10
37.361729
  20
1120.481934
  0
POINT
  8
3
  10
35.059513
  20
1120.257812
  0
POINT
  8
3
  10
32.751064
  20
1120.066284
  0
POINT
  8
3
  10
30.436779
  20
1119.905273
  0
POINT
  8
3
  10
28.117060
  20
1119.772461
  0
POINT
  8
3
  10
25.792297
  20
1119.665771
  0
POINT
  8
3
  10
23.462889
  20
1119.582886
  0
POINT
  8
3
  10
21.129236
  20
1119.521851
  0
POINT
  8
3
  10
18.791723
  20
1119.480225
  0
POINT
  8
3
  10
16.450758
  20
1119.455933
  0
POINT
  8
3
  10
14.106730
  20
1119.446899
  0
POINT
  8
3
  10
11.760046
  20
1119.450806
  0
POINT
  8
3
  10
9.411089
  20
1119.465454
  0
POINT
  8
3
  10
7.060264
  20
1119.488770
  0
POINT
  8
3
  10
4.707964
  20
1119.518555
  0
POINT
  8
3
  10
2.354594
  20
1119.552612
  0
POINT
  8
3
  10
-2.353522
  20
1119.552490
  0
POINT
  8
3
  10
-4.706897
  20
1119.518311
  0
POINT
  8
3
  10
-7.059196
  20
1119.488525
  0
POINT
  8
3
  10
-9.410021
  20
1119.465088
  0
POINT
  8
3
  10
-11.758974
  20
1119.450317
  0
POINT
  8
3
  10
-14.105663
  20
1119.446289
  0
POINT
  8
3
  10
-16.449688
  20
1119.455322
  0
POINT
  8
3
  10
-18.790655
  20
1119.479492
  0
POINT
  8
3
  10
-21.128168
  20
1119.520874
  0
POINT
  8
3
  10
-23.461830
  20
1119.581909
  0
POINT
  8
3
  10
-25.791241
  20
1119.664673
  0
POINT
  8
3
  10
-28.116007
  20
1119.771362
  0
POINT
  8
3
  10
-30.435732
  20
1119.904053
  0
POINT
  8
3
  10
-32.750027
  20
1120.064941
  0
POINT
  8
3
  10
-35.058487
  20
1120.256348
  0
POINT
  8
3
  10
-37.360718
  20
1120.480347
  0
POINT
  8
3
  10
-39.656315
  20
1120.739136
  0
POINT
  8
3
  10
-41.944901
  20
1121.034912
  0
POINT
  8
3
  10
-44.226059
  20
1121.369873
  0
POINT
  8
3
  10
-46.499405
  20
1121.746094
  0
POINT
  8
3
  10
-48.764530
  20
1122.165771
  0
POINT
  8
3
  10
-51.021061
  20
1122.631348
  0
POINT
  8
3
  10
-52.914204
  20
1123.059937
  0
POINT
  8
3
  10
-54.800560
  20
1123.521362
  0
POINT
  8
3
  10
-56.680134
  20
1124.014893
  0
POINT
  8
3
  10
-58.552914
  20
1124.539307
  0
POINT
  8
3
  10
-60.418896
  20
1125.093994
  0
POINT
  8
3
  10
-62.278069
  20
1125.677734
  0
POINT
  8
3
  10
-64.130440
  20
1126.289795
  0
POINT
  8
3
  10
-65.975975
  20
1126.929321
  0
POINT
  8
3
  10
-67.814713
  20
1127.595093
  0
POINT
  8
3
  10
-69.646606
  20
1128.286499
  0
POINT
  8
3
  10
-71.471680
  20
1129.002441
  0
POINT
  8
3
  10
-73.289894
  20
1129.742065
  0
POINT
  8
3
  10
-75.101280
  20
1130.504395
  0
POINT
  8
3
  10
-76.905807
  20
1131.288452
  0
POINT
  8
3
  10
-78.703476
  20
1132.093506
  0
POINT
  8
3
  10
-80.494293
  20
1132.918457
  0
POINT
  8
3
  10
-82.278229
  20
1133.762451
  0
POINT
  8
3
  10
-84.055290
  20
1134.624634
  0
POINT
  8
3
  10
-85.825478
  20
1135.503906
  0
POINT
  8
3
  10
-87.588768
  20
1136.399536
  0
POINT
  8
3
  10
-89.345192
  20
1137.310425
  0
POINT
  8
3
  10
-91.094688
  20
1138.235718
  0
POINT
  8
3
  10
-92.837311
  20
1139.174561
  0
POINT
  8
3
  10
-94.572990
  20
1140.125977
  0
POINT
  8
3
  10
-96.301773
  20
1141.088989
  0
POINT
  8
3
  10
-98.023636
  20
1142.062744
  0
POINT
  8
3
  10
-99.738571
  20
1143.046387
  0
POINT
  8
3
  10
-101.446564
  20
1144.038818
  0
POINT
  8
3
  10
-105.205612
  20
1146.265381
  0
POINT
  8
3
  10
-108.931793
  20
1148.527222
  0
POINT
  8
3
  10
-112.628159
  20
1150.821045
  0
POINT
  8
3
  10
-116.297806
  20
1153.143677
  0
POINT
  8
3
  10
-119.943787
  20
1155.492065
  0
POINT
  8
3
  10
-123.569214
  20
1157.862915
  0
POINT
  8
3
  10
-127.177155
  20
1160.253174
  0
POINT
  8
3
  10
-130.770660
  20
1162.659546
  0
POINT
  8
3
  10
-134.352859
  20
1165.078979
  0
POINT
  8
3
  10
-137.926773
  20
1167.508301
  0
POINT
  8
3
  10
-141.495499
  20
1169.944214
  0
LINE
  8
7
  10
0.000122
  20
923.761292
  11
0.000122
  21
1103.761230
  0
POLYLINE
  8
14
  66
1
  70
1
  250
0
  0
VERTEX
  8
14
  10
-150.016342
  20
1175.772095
  0
VERTEX
  8
14
  10
-171.142410
  20
1143.029419
  0
VERTEX
  8
14
  10
-166.865326
  20
1138.591553
  0
VERTEX
  8
14
  10
-162.258072
  20
1133.811035
  0
VERTEX
  8
14
  10
-157.648575
  20
1129.034912
  0
VERTEX
  8
14
  10
-153.033463
  20
1124.266357
  0
VERTEX
  8
14
  10
-148.409378
  20
1119.508179
  0
VERTEX
  8
14
  10
-143.772934
  20
1114.763306
  0
VERTEX
  8
14
  10
-139.120804
  20
1110.034790
  0
VERTEX
  8
14
  10
-134.449585
  20
1105.325439
  0
VERTEX
  8
14
  10
-129.755905
  20
1100.638184
  0
VERTEX
  8
14
  10
-125.036430
  20
1095.976074
  0
VERTEX
  8
14
  10
-120.287766
  20
1091.342041
  0
VERTEX
  8
14
  10
-117.252914
  20
1088.410645
  0
VERTEX
  8
14
  10
-114.211861
  20
1085.487061
  0
VERTEX
  8
14
  10
-111.170425
  20
1082.564575
  0
VERTEX
  8
14
  10
-108.134491
  20
1079.637085
  0
VERTEX
  8
14
  10
-105.109894
  20
1076.698242
  0
VERTEX
  8
14
  10
-102.102478
  20
1073.741455
  0
VERTEX
  8
14
  10
-99.118095
  20
1070.760376
  0
VERTEX
  8
14
  10
-96.162598
  20
1067.748779
  0
VERTEX
  8
14
  10
-93.241844
  20
1064.700195
  0
VERTEX
  8
14
  10
-90.361664
  20
1061.608154
  0
VERTEX
  8
14
  10
-87.527916
  20
1058.466431
  0
VERTEX
  8
14
  10
-85.934982
  20
1056.650391
  0
VERTEX
  8
14
  10
-84.360962
  20
1054.816406
  0
VERTEX
  8
14
  10
-82.807297
  20
1052.964355
  0
VERTEX
  8
14
  10
-81.275436
  20
1051.094116
  0
VERTEX
  8
14
  10
-79.766792
  20
1049.205444
  0
VERTEX
  8
14
  10
-78.282845
  20
1047.298218
  0
VERTEX
  8
14
  10
-76.825012
  20
1045.372070
  0
VERTEX
  8
14
  10
-75.394753
  20
1043.427002
  0
VERTEX
  8
14
  10
-73.993477
  20
1041.462646
  0
VERTEX
  8
14
  10
-72.622658
  20
1039.478882
  0
VERTEX
  8
14
  10
-71.283722
  20
1037.475342
  0
VERTEX
  8
14
  10
-69.978111
  20
1035.452148
  0
VERTEX
  8
14
  10
-68.707275
  20
1033.408813
  0
VERTEX
  8
14
  10
-67.472649
  20
1031.345215
  0
VERTEX
  8
14
  10
-66.275681
  20
1029.261230
  0
VERTEX
  8
14
  10
-65.117790
  20
1027.156494
  0
VERTEX
  8
14
  10
-63.820744
  20
1024.681763
  0
VERTEX
  8
14
  10
-62.575291
  20
1022.181702
  0
VERTEX
  8
14
  10
-61.377419
  20
1019.658142
  0
VERTEX
  8
14
  10
-60.223137
  20
1017.113037
  0
VERTEX
  8
14
  10
-59.108459
  20
1014.548279
  0
VERTEX
  8
14
  10
-58.029392
  20
1011.965820
  0
VERTEX
  8
14
  10
-56.981934
  20
1009.367554
  0
VERTEX
  8
14
  10
-55.962097
  20
1006.755432
  0
VERTEX
  8
14
  10
-54.965881
  20
1004.131348
  0
VERTEX
  8
14
  10
-53.989307
  20
1001.497192
  0
VERTEX
  8
14
  10
-53.028366
  20
998.854919
  0
VERTEX
  8
14
  10
-52.079075
  20
996.206421
  0
VERTEX
  8
14
  10
-51.137428
  20
993.553650
  0
VERTEX
  8
14
  10
-50.199448
  20
990.898438
  0
VERTEX
  8
14
  10
-48.824421
  20
986.228149
  0
VERTEX
  8
14
  10
-47.445770
  20
981.563660
  0
VERTEX
  8
14
  10
-46.065666
  20
976.904419
  0
VERTEX
  8
14
  10
-44.686283
  20
972.249634
  0
VERTEX
  8
14
  10
-43.309788
  20
967.598633
  0
VERTEX
  8
14
  10
-41.938381
  20
962.950745
  0
VERTEX
  8
14
  10
-40.574196
  20
958.305298
  0
VERTEX
  8
14
  10
-39.219437
  20
953.661499
  0
VERTEX
  8
14
  10
-37.876278
  20
949.018738
  0
VERTEX
  8
14
  10
-36.546879
  20
944.376282
  0
VERTEX
  8
14
  10
-35.233418
  20
939.733521
  0
VERTEX
  8
14
  10
-33.938080
  20
935.089600
  0
VERTEX
  8
14
  10
-32.663017
  20
930.444031
  0
VERTEX
  8
14
  10
-31.410419
  20
925.795959
  0
VERTEX
  8
14
  10
-30.182465
  20
921.144714
  0
VERTEX
  8
14
  10
-28.981314
  20
916.489685
  0
VERTEX
  8
14
  10
-27.809147
  20
911.830078
  0
VERTEX
  8
14
  10
-26.668144
  20
907.165283
  0
VERTEX
  8
14
  10
-25.560474
  20
902.494568
  0
VERTEX
  8
14
  10
-24.488304
  20
897.817261
  0
VERTEX
  8
14
  10
-23.453817
  20
893.132629
  0
VERTEX
  8
14
  10
-22.459188
  20
888.440002
  0
VERTEX
  8
14
  10
-21.506586
  20
883.738647
  0
VERTEX
  8
14
  10
-20.598190
  20
879.027954
  0
VERTEX
  8
14
  10
-19.736168
  20
874.307251
  0
VERTEX
  8
14
  10
-18.922695
  20
869.575684
  0
VERTEX
  8
14
  10
-18.159950
  20
864.832703
  0
VERTEX
  8
14
  10
-17.450104
  20
860.077515
  0
VERTEX
  8
14
  10
-16.795332
  20
855.309509
  0
VERTEX
  8
14
  10
-17.746626
  20
849.319153
  0
VERTEX
  8
14
  10
0.006274
  20
849.132568
  0
VERTEX
  8
14
  10
17.758963
  20
849.319946
  0
VERTEX
  8
14
  10
16.807375
  20
855.310242
  0
VERTEX
  8
14
  10
17.461946
  20
860.078247
  0
VERTEX
  8
14
  10
18.171600
  20
864.833435
  0
VERTEX
  8
14
  10
18.934147
  20
869.576477
  0
VERTEX
  8
14
  10
19.747419
  20
874.308044
  0
VERTEX
  8
14
  10
20.609241
  20
879.028870
  0
VERTEX
  8
14
  10
21.517450
  20
883.739563
  0
VERTEX
  8
14
  10
22.469852
  20
888.440918
  0
VERTEX
  8
14
  10
23.464287
  20
893.133606
  0
VERTEX
  8
14
  10
24.498579
  20
897.818237
  0
VERTEX
  8
14
  10
25.570549
  20
902.495605
  0
VERTEX
  8
14
  10
26.678028
  20
907.166382
  0
VERTEX
  8
14
  10
27.818844
  20
911.831238
  0
VERTEX
  8
14
  10
28.990814
  20
916.490845
  0
VERTEX
  8
14
  10
30.191763
  20
921.145996
  0
VERTEX
  8
14
  10
31.419531
  20
925.797241
  0
VERTEX
  8
14
  10
32.671932
  20
930.445374
  0
VERTEX
  8
14
  10
33.946796
  20
935.091064
  0
VERTEX
  8
14
  10
35.241947
  20
939.734985
  0
VERTEX
  8
14
  10
36.555218
  20
944.377808
  0
VERTEX
  8
14
  10
37.884418
  20
949.020325
  0
VERTEX
  8
14
  10
39.227394
  20
953.663147
  0
VERTEX
  8
14
  10
40.581959
  20
958.306946
  0
VERTEX
  8
14
  10
41.945942
  20
962.952515
  0
VERTEX
  8
14
  10
43.317165
  20
967.600464
  0
VERTEX
  8
14
  10
44.693462
  20
972.251526
  0
VERTEX
  8
14
  10
46.072647
  20
976.906311
  0
VERTEX
  8
14
  10
47.452560
  20
981.565674
  0
VERTEX
  8
14
  10
48.831017
  20
986.230164
  0
VERTEX
  8
14
  10
50.205849
  20
990.900513
  0
VERTEX
  8
14
  10
51.143723
  20
993.555725
  0
VERTEX
  8
14
  10
52.085255
  20
996.208618
  0
VERTEX
  8
14
  10
53.034439
  20
998.857117
  0
VERTEX
  8
14
  10
53.995266
  20
1001.499451
  0
VERTEX
  8
14
  10
54.971737
  20
1004.133667
  0
VERTEX
  8
14
  10
55.967842
  20
1006.757751
  0
VERTEX
  8
14
  10
56.987564
  20
1009.369934
  0
VERTEX
  8
14
  10
58.034916
  20
1011.968262
  0
VERTEX
  8
14
  10
59.113880
  20
1014.550720
  0
VERTEX
  8
14
  10
60.228447
  20
1017.115540
  0
VERTEX
  8
14
  10
61.382622
  20
1019.660645
  0
VERTEX
  8
14
  10
62.580387
  20
1022.184265
  0
VERTEX
  8
14
  10
63.825745
  20
1024.684448
  0
VERTEX
  8
14
  10
65.122688
  20
1027.159180
  0
VERTEX
  8
14
  10
66.280479
  20
1029.263916
  0
VERTEX
  8
14
  10
67.477364
  20
1031.348022
  0
VERTEX
  8
14
  10
68.711914
  20
1033.411621
  0
VERTEX
  8
14
  10
69.982658
  20
1035.455078
  0
VERTEX
  8
14
  10
71.288185
  20
1037.478394
  0
VERTEX
  8
14
  10
72.627037
  20
1039.481812
  0
VERTEX
  8
14
  10
73.997780
  20
1041.465698
  0
VERTEX
  8
14
  10
75.398964
  20
1043.430176
  0
VERTEX
  8
14
  10
76.829147
  20
1045.375366
  0
VERTEX
  8
14
  10
78.286903
  20
1047.301514
  0
VERTEX
  8
14
  10
79.770775
  20
1049.208862
  0
VERTEX
  8
14
  10
81.279320
  20
1051.097534
  0
VERTEX
  8
14
  10
82.811111
  20
1052.967773
  0
VERTEX
  8
14
  10
84.364700
  20
1054.819824
  0
VERTEX
  8
14
  10
85.938644
  20
1056.653931
  0
VERTEX
  8
14
  10
87.531502
  20
1058.470093
  0
VERTEX
  8
14
  10
90.365128
  20
1061.611938
  0
VERTEX
  8
14
  10
93.245171
  20
1064.704102
  0
VERTEX
  8
14
  10
96.165810
  20
1067.752808
  0
VERTEX
  8
14
  10
99.121178
  20
1070.764526
  0
VERTEX
  8
14
  10
102.105438
  20
1073.745605
  0
VERTEX
  8
14
  10
105.112732
  20
1076.702515
  0
VERTEX
  8
14
  10
108.137207
  20
1079.641602
  0
VERTEX
  8
14
  10
111.173027
  20
1082.569214
  0
VERTEX
  8
14
  10
114.214333
  20
1085.491699
  0
VERTEX
  8
14
  10
117.255264
  20
1088.415649
  0
VERTEX
  8
14
  10
120.289993
  20
1091.347046
  0
VERTEX
  8
14
  10
125.038460
  20
1095.981323
  0
VERTEX
  8
14
  10
129.757736
  20
1100.643555
  0
VERTEX
  8
14
  10
134.451218
  20
1105.331055
  0
VERTEX
  8
14
  10
139.122238
  20
1110.040527
  0
VERTEX
  8
14
  10
143.774185
  20
1114.769287
  0
VERTEX
  8
14
  10
148.410416
  20
1119.514404
  0
VERTEX
  8
14
  10
153.034317
  20
1124.272705
  0
VERTEX
  8
14
  10
157.649216
  20
1129.041504
  0
VERTEX
  8
14
  10
162.258530
  20
1133.817749
  0
VERTEX
  8
14
  10
166.865570
  20
1138.598511
  0
VERTEX
  8
14
  10
171.142456
  20
1143.036621
  0
VERTEX
  8
14
  10
150.015060
  20
1175.778320
  0
VERTEX
  8
14
  10
145.060989
  20
1172.389648
  0
VERTEX
  8
14
  10
141.494461
  20
1169.950073
  0
VERTEX
  8
14
  10
137.925827
  20
1167.513916
  0
VERTEX
  8
14
  10
134.352005
  20
1165.084595
  0
VERTEX
  8
14
  10
130.769928
  20
1162.665039
  0
VERTEX
  8
14
  10
127.176514
  20
1160.258423
  0
VERTEX
  8
14
  10
123.568672
  20
1157.868042
  0
VERTEX
  8
14
  10
119.943344
  20
1155.497070
  0
VERTEX
  8
14
  10
116.297447
  20
1153.148560
  0
VERTEX
  8
14
  10
112.627899
  20
1150.825684
  0
VERTEX
  8
14
  10
108.931641
  20
1148.531738
  0
VERTEX
  8
14
  10
105.205559
  20
1146.269775
  0
VERTEX
  8
14
  10
101.446594
  20
1144.042969
  0
VERTEX
  8
14
  10
99.738640
  20
1143.050537
  0
VERTEX
  8
14
  10
98.023743
  20
1142.066895
  0
VERTEX
  8
14
  10
96.301933
  20
1141.093018
  0
VERTEX
  8
14
  10
94.573189
  20
1140.129883
  0
VERTEX
  8
14
  10
92.837540
  20
1139.178467
  0
VERTEX
  8
14
  10
91.094963
  20
1138.239502
  0
VERTEX
  8
14
  10
89.345497
  20
1137.314087
  0
VERTEX
  8
14
  10
87.589127
  20
1136.403076
  0
VERTEX
  8
14
  10
85.825859
  20
1135.507446
  0
VERTEX
  8
14
  10
84.055725
  20
1134.628174
  0
VERTEX
  8
14
  10
82.278687
  20
1133.765869
  0
VERTEX
  8
14
  10
80.494781
  20
1132.921875
  0
VERTEX
  8
14
  10
78.704002
  20
1132.096802
  0
VERTEX
  8
14
  10
76.906372
  20
1131.291748
  0
VERTEX
  8
14
  10
75.101875
  20
1130.507446
  0
VERTEX
  8
14
  10
73.290520
  20
1129.745117
  0
VERTEX
  8
14
  10
71.472321
  20
1129.005371
  0
VERTEX
  8
14
  10
69.647293
  20
1128.289429
  0
VERTEX
  8
14
  10
67.815430
  20
1127.597900
  0
VERTEX
  8
14
  10
65.976730
  20
1126.932007
  0
VERTEX
  8
14
  10
64.131195
  20
1126.292480
  0
VERTEX
  8
14
  10
62.278862
  20
1125.680298
  0
VERTEX
  8
14
  10
60.419704
  20
1125.096436
  0
VERTEX
  8
14
  10
58.553749
  20
1124.541748
  0
VERTEX
  8
14
  10
56.680992
  20
1124.017212
  0
VERTEX
  8
14
  10
54.801445
  20
1123.523682
  0
VERTEX
  8
14
  10
52.915104
  20
1123.062134
  0
VERTEX
  8
14
  10
51.021984
  20
1122.633423
  0
VERTEX
  8
14
  10
48.765472
  20
1122.167847
  0
VERTEX
  8
14
  10
46.500355
  20
1121.748047
  0
VERTEX
  8
14
  10
44.227028
  20
1121.371582
  0
VERTEX
  8
14
  10
41.945881
  20
1121.036621
  0
VERTEX
  8
14
  10
39.657318
  20
1120.740723
  0
VERTEX
  8
14
  10
37.361729
  20
1120.481934
  0
VERTEX
  8
14
  10
35.059513
  20
1120.257812
  0
VERTEX
  8
14
  10
32.751064
  20
1120.066284
  0
VERTEX
  8
14
  10
30.436779
  20
1119.905273
  0
VERTEX
  8
14
  10
28.117060
  20
1119.772461
  0
VERTEX
  8
14
  10
25.792297
  20
1119.665771
  0
VERTEX
  8
14
  10
23.462889
  20
1119.582886
  0
VERTEX
  8
14
  10
21.129236
  20
1119.521851
  0
VERTEX
  8
14
  10
18.791723
  20
1119.480225
  0
VERTEX
  8
14
  10
16.450758
  20
1119.455933
  0
VERTEX
  8
14
  10
14.106730
  20
1119.446899
  0
VERTEX
  8
14
  10
11.760046
  20
1119.450806
  0
VERTEX
  8
14
  10
9.411089
  20
1119.465454
  0
VERTEX
  8
14
  10
7.060264
  20
1119.488770
  0
VERTEX
  8
14
  10
4.707964
  20
1119.518555
  0
VERTEX
  8
14
  10
2.354594
  20
1119.552612
  0
VERTEX
  8
14
  10
0.000535
  20
1119.588623
  0
VERTEX
  8
14
  10
-2.353522
  20
1119.552490
  0
VERTEX
  8
14
  10
-4.706897
  20
1119.518311
  0
VERTEX
  8
14
  10
-7.059196
  20
1119.488525
  0
VERTEX
  8
14
  10
-9.410021
  20
1119.465088
  0
VERTEX
  8
14
  10
-11.758974
  20
1119.450317
  0
VERTEX
  8
14
  10
-14.105663
  20
1119.446289
  0
VERTEX
  8
14
  10
-16.449688
  20
1119.455322
  0
VERTEX
  8
14
  10
-18.790655
  20
1119.479492
  0
VERTEX
  8
14
  10
-21.128168
  20
1119.520874
  0
VERTEX
  8
14
  10
-23.461830
  20
1119.581909
  0
VERTEX
  8
14
  10
-25.791241
  20
1119.664673
  0
VERTEX
  8
14
  10
-28.116007
  20
1119.771362
  0
VERTEX
  8
14
  10
-30.435732
  20
1119.904053
  0
VERTEX
  8
14
  10
-32.750027
  20
1120.064941
  0
VERTEX
  8
14
  10
-35.058487
  20
1120.256348
  0
VERTEX
  8
14
  10
-37.360718
  20
1120.480347
  0
VERTEX
  8
14
  10
-39.656315
  20
1120.739136
  0
VERTEX
  8
14
  10
-41.944901
  20
1121.034912
  0
VERTEX
  8
14
  10
-44.226059
  20
1121.369873
  0
VERTEX
  8
14
  10
-46.499405
  20
1121.746094
  0
VERTEX
  8
14
  10
-48.764530
  20
1122.165771
  0
VERTEX
  8
14
  10
-51.021061
  20
1122.631348
  0
VERTEX
  8
14
  10
-52.914204
  20
1123.059937
  0
VERTEX
  8
14
  10
-54.800560
  20
1123.521362
  0
VERTEX
  8
14
  10
-56.680134
  20
1124.014893
  0
VERTEX
  8
14
  10
-58.552914
  20
1124.539307
  0
VERTEX
  8
14
  10
-60.418896
  20
1125.093994
  0
VERTEX
  8
14
  10
-62.278069
  20
1125.677734
  0
VERTEX
  8
14
  10
-64.130440
  20
1126.289795
  0
VERTEX
  8
14
  10
-65.975975
  20
1126.929321
  0
VERTEX
  8
14
  10
-67.814713
  20
1127.595093
  0
VERTEX
  8
14
  10
-69.646606
  20
1128.286499
  0
VERTEX
  8
14
  10
-71.471680
  20
1129.002441
  0
VERTEX
  8
14
  10
-73.289894
  20
1129.742065
  0
VERTEX
  8
14
  10
-75.101280
  20
1130.504395
  0
VERTEX
  8
14
  10
-76.905807
  20
1131.288452
  0
VERTEX
  8
14
  10
-78.703476
  20
1132.093506
  0
VERTEX
  8
14
  10
-80.494293
  20
1132.918457
  0
VERTEX
  8
14
  10
-82.278229
  20
1133.762451
  0
VERTEX
  8
14
  10
-84.055290
  20
1134.624634
  0
VERTEX
  8
14
  10
-85.825478
  20
1135.503906
  0
VERTEX
  8
14
  10
-87.588768
  20
1136.399536
  0
VERTEX
  8
14
  10
-89.345192
  20
1137.310425
  0
VERTEX
  8
14
  10
-91.094688
  20
1138.235718
  0
VERTEX
  8
14
  10
-92.837311
  20
1139.174561
  0
VERTEX
  8
14
  10
-94.572990
  20
1140.125977
  0
VERTEX
  8
14
  10
-96.301773
  20
1141.088989
  0
VERTEX
  8
14
  10
-98.023636
  20
1142.062744
  0
VERTEX
  8
14
  10
-99.738571
  20
1143.046387
  0
VERTEX
  8
14
  10
-101.446564
  20
1144.038818
  0
VERTEX
  8
14
  10
-105.205612
  20
1146.265381
  0
VERTEX
  8
14
  10
-108.931793
  20
1148.527222
  0
VERTEX
  8
14
  10
-112.628159
  20
1150.821045
  0
VERTEX
  8
14
  10
-116.297806
  20
1153.143677
  0
VERTEX
  8
14
  10
-119.943787
  20
1155.492065
  0
VERTEX
  8
14
  10
-123.569214
  20
1157.862915
  0
VERTEX
  8
14
  10
-127.177155
  20
1160.253174
  0
VERTEX
  8
14
  10
-130.770660
  20
1162.659546
  0
VERTEX
  8
14
  10
-134.352859
  20
1165.078979
  0
VERTEX
  8
14
  10
-137.926773
  20
1167.508301
  0
VERTEX
  8
14
  10
-141.495499
  20
1169.944214
  0
VERTEX
  8
14
  10
-145.062149
  20
1172.383667
  0
SEQEND
  0
POINT
  8
2
  10
-150.016342
  20
1175.772095
  0
POINT
  8
2
  10
-171.142410
  20
1143.029419
  0
POINT
  8
2
  10
-166.865326
  20
1138.591553
  0
POINT
  8
2
  10
-50.199448
  20
990.898438
  0
POINT
  8
2
  10
-16.795332
  20
855.309509
  0
POINT
  8
2
  10
-17.746626
  20
849.319153
  0
POINT
  8
2
  10
0.006274
  20
849.132568
  0
POINT
  8
2
  10
17.758963
  20
849.319946
  0
POINT
  8
2
  10
16.807375
  20
855.310242
  0
POINT
  8
2
  10
50.205849
  20
990.900513
  0
POINT
  8
2
  10
166.865570
  20
1138.598511
  0
POINT
  8
2
  10
171.142456
  20
1143.036621
  0
POINT
  8
2
  10
150.015060
  20
1175.778320
  0
POINT
  8
2
  10
145.060989
  20
1172.389648
  0
POINT
  8
2
  10
0.000534
  20
1119.588623
  0
POINT
  8
2
  10
-145.062149
  20
1172.383667
  0
POINT
  8
3
  10
-166.865326
  20
1138.591553
  0
POINT
  8
3
  10
-162.258072
  20
1133.811035
  0
POINT
  8
3
  10
-157.648575
  20
1129.034912
  0
POINT
  8
3
  10
-153.033463
  20
1124.266357
  0
POINT
  8
3
  10
-148.409378
  20
1119.508179
  0
POINT
  8
3
  10
-143.772934
  20
1114.763306
  0
POINT
  8
3
  10
-139.120804
  20
1110.034790
  0
POINT
  8
3
  10
-134.449585
  20
1105.325439
  0
POINT
  8
3
  10
-129.755905
  20
1100.638184
  0
POINT
  8
3
  10
-125.036430
  20
1095.976074
  0
POINT
  8
3
  10
-120.287766
  20
1091.342041
  0
POINT
  8
3
  10
-117.252914
  20
1088.410645
  0
POINT
  8
3
  10
-114.211861
  20
1085.487061
  0
POINT
  8
3
  10
-111.170425
  20
1082.564575
  0
POINT
  8
3
  10
-108.134491
  20
1079.637085
  0
POINT
  8
3
  10
-105.109894
  20
1076.698242
  0
POINT
  8
3
  10
-102.102478
  20
1073.741455
  0
POINT
  8
3
  10
-99.118095
  20
1070.760376
  0
POINT
  8
3
  10
-96.162598
  20
1067.748779
  0
POINT
  8
3
  10
-93.241844
  20
1064.700195
  0
POINT
  8
3
  10
-90.361664
  20
1061.608154
  0
POINT
  8
3
  10
-87.527916
  20
1058.466431
  0
POINT
  8
3
  10
-85.934982
  20
1056.650391
  0
POINT
  8
3
  10
-84.360962
  20
1054.816406
  0
POINT
  8
3
  10
-82.807297
  20
1052.964355
  0
POINT
  8
3
  10
-81.275436
  20
1051.094116
  0
POINT
  8
3
  10
-79.766792
  20
1049.205444
  0
POINT
  8
3
  10
-78.282845
  20
1047.298218
  0
POINT
  8
3
  10
-76.825012
  20
1045.372070
  0
POINT
  8
3
  10
-75.394753
  20
1043.427002
  0
POINT
  8
3
  10
-73.993477
  20
1041.462646
  0
POINT
  8
3
  10
-72.622658
  20
1039.478882
  0
POINT
  8
3
  10
-71.283722
  20
1037.475342
  0
POINT
  8
3
  10
-69.978111
  20
1035.452148
  0
POINT
  8
3
  10
-68.707275
  20
1033.408813
  0
POINT
  8
3
  10
-67.472649
  20
1031.345215
  0
POINT
  8
3
  10
-66.275681
  20
1029.261230
  0
POINT
  8
3
  10
-65.117790
  20
1027.156494
  0
POINT
  8
3
  10
-63.820744
  20
1024.681763
  0
POINT
  8
3
  10
-62.575291
  20
1022.181702
  0
POINT
  8
3
  10
-61.377419
  20
1019.658142
  0
POINT
  8
3
  10
-60.223137
  20
1017.113037
  0
POINT
  8
3
  10
-59.108459
  20
1014.548279
  0
POINT
  8
3
  10
-58.029392
  20
1011.965820
  0
POINT
  8
3
  10
-56.981934
  20
1009.367554
  0
POINT
  8
3
  10
-55.962097
  20
1006.755432
  0
POINT
  8
3
  10
-54.965881
  20
1004.131348
  0
POINT
  8
3
  10
-53.989307
  20
1001.497192
  0
POINT
  8
3
  10
-53.028366
  20
998.854919
  0
POINT
  8
3
  10
-52.079075
  20
996.206421
  0
POINT
  8
3
  10
-51.137428
  20
993.553650
  0
POINT
  8
3
  10
-50.199448
  20
990.898438
  0
POINT
  8
3
  10
-48.824421
  20
986.228149
  0
POINT
  8
3
  10
-47.445770
  20
981.563660
  0
POINT
  8
3
  10
-46.065666
  20
976.904419
  0
POINT
  8
3
  10
-44.686283
  20
972.249634
  0
POINT
  8
3
  10
-43.309788
  20
967.598633
  0
POINT
  8
3
  10
-41.938381
  20
962.950745
  0
POINT
  8
3
  10
-40.574196
  20
958.305298
  0
POINT
  8
3
  10
-39.219437
  20
953.661499
  0
POINT
  8
3
  10
-37.876278
  20
949.018738
  0
POINT
  8
3
  10
-36.546879
  20
944.376282
  0
POINT
  8
3
  10
-35.233418
  20
939.733521
  0
POINT
  8
3
  10
-33.938080
  20
935.089600
  0
POINT
  8
3
  10
-32.663017
  20
930.444031
  0
POINT
  8
3
  10
-31.410419
  20
925.795959
  0
POINT
  8
3
  10
-30.182465
  20
921.144714
  0
POINT
  8
3
  10
-28.981314
  20
916.489685
  0
POINT
  8
3
  10
-27.809147
  20
911.830078
  0
POINT
  8
3
  10
-26.668144
  20
907.165283
  0
POINT
  8
3
  10
-25.560474
  20
902.494568
  0
POINT
  8
3
  10
-24.488304
  20
897.817261
  0
POINT
  8
3
  10
-23.453817
  20
893.132629
  0
POINT
  8
3
  10
-22.459188
  20
888.440002
  0
POINT
  8
3
  10
-21.506586
  20
883.738647
  0
POINT
  8
3
  10
-20.598190
  20
879.027954
  0
POINT
  8
3
  10
-19.736168
  20
874.307251
  0
POINT
  8
3
  10
-18.922695
  20
869.575684
  0
POINT
  8
3
  10
-18.159950
  20
864.832703
  0
POINT
  8
3
  10
-17.450104
  20
860.077515
  0
POINT
  8
3
  10
-16.795332
  20
855.309509
  0
POINT
  8
3
  10
16.807375
  20
855.310242
  0
POINT
  8
3
  10
17.461946
  20
860.078247
  0
POINT
  8
3
  10
18.171600
  20
864.833435
  0
POINT
  8
3
  10
18.934147
  20
869.576477
  0
POINT
  8
3
  10
19.747419
  20
874.308044
  0
POINT
  8
3
  10
20.609241
  20
879.028870
  0
POINT
  8
3
  10
21.517450
  20
883.739563
  0
POINT
  8
3
  10
22.469852
  20
888.440918
  0
POINT
  8
3
  10
23.464287
  20
893.133606
  0
POINT
  8
3
  10
24.498579
  20
897.818237
  0
POINT
  8
3
  10
25.570549
  20
902.495605
  0
POINT
  8
3
  10
26.678028
  20
907.166382
  0
POINT
  8
3
  10
27.818844
  20
911.831238
  0
POINT
  8
3
  10
28.990814
  20
916.490845
  0
POINT
  8
3
  10
30.191763
  20
921.145996
  0
POINT
  8
3
  10
31.419531
  20
925.797241
  0
POINT
  8
3
  10
32.671932
  20
930.445374
  0
POINT
  8
3
  10
33.946796
  20
935.091064
  0
POINT
  8
3
  10
35.241947
  20
939.734985
  0
POINT
  8
3
  10
36.555218
  20
944.377808
  0
POINT
  8
3
  10
37.884418
  20
949.020325
  0
POINT
  8
3
  10
39.227394
  20
953.663147
  0
POINT
  8
3
  10
40.581959
  20
958.306946
  0
POINT
  8
3
  10
41.945942
  20
962.952515
  0
POINT
  8
3
  10
43.317165
  20
967.600464
  0
POINT
  8
3
  10
44.693462
  20
972.251526
  0
POINT
  8
3
  10
46.072647
  20
976.906311
  0
POINT
  8
3
  10
47.452560
  20
981.565674
  0
POINT
  8
3
  10
48.831017
  20
986.230164
  0
POINT
  8
3
  10
50.205849
  20
990.900513
  0
POINT
  8
3
  10
51.143723
  20
993.555725
  0
POINT
  8
3
  10
52.085255
  20
996.208618
  0
POINT
  8
3
  10
53.034439
  20
998.857117
  0
POINT
  8
3
  10
53.995266
  20
1001.499451
  0
POINT
  8
3
  10
54.971737
  20
1004.133667
  0
POINT
  8
3
  10
55.967842
  20
1006.757751
  0
POINT
  8
3
  10
56.987564
  20
1009.369934
  0
POINT
  8
3
  10
58.034916
  20
1011.968262
  0
POINT
  8
3
  10
59.113880
  20
1014.550720
  0
POINT
  8
3
  10
60.228447
  20
1017.115540
  0
POINT
  8
3
  10
61.382622
  20
1019.660645
  0
POINT
  8
3
  10
62.580387
  20
1022.184265
  0
POINT
  8
3
  10
63.825745
  20
1024.684448
  0
POINT
  8
3
  10
65.122688
  20
1027.159180
  0
POINT
  8
3
  10
66.280479
  20
1029.263916
  0
POINT
  8
3
  10
67.477364
  20
1031.348022
  0
POINT
  8
3
  10
68.711914
  20
1033.411621
  0
POINT
  8
3
  10
69.982658
  20
1035.455078
  0
POINT
  8
3
  10
71.288185
  20
1037.478394
  0
POINT
  8
3
  10
72.627037
  20
1039.481812
  0
POINT
  8
3
  10
73.997780
  20
1041.465698
  0
POINT
  8
3
  10
75.398964
  20
1043.430176
  0
POINT
  8
3
  10
76.829147
  20
1045.375366
  0
POINT
  8
3
  10
78.286903
  20
1047.301514
  0
POINT
  8
3
  10
79.770775
  20
1049.208862
  0
POINT
  8
3
  10
81.279320
  20
1051.097534
  0
POINT
  8
3
  10
82.811111
  20
1052.967773
  0
POINT
  8
3
  10
84.364700
  20
1054.819824
  0
POINT
  8
3
  10
85.938644
  20
1056.653931
  0
POINT
  8
3
  10
87.531502
  20
1058.470093
  0
POINT
  8
3
  10
90.365128
  20
1061.611938
  0
POINT
  8
3
  10
93.245171
  20
1064.704102
  0
POINT
  8
3
  10
96.165810
  20
1067.752808
  0
POINT
  8
3
  10
99.121178
  20
1070.764526
  0
POINT
  8
3
  10
102.105438
  20
1073.745605
  0
POINT
  8
3
  10
105.112732
  20
1076.702515
  0
POINT
  8
3
  10
108.137207
  20
1079.641602
  0
POINT
  8
3
  10
111.173027
  20
1082.569214
  0
POINT
  8
3
  10
114.214333
  20
1085.491699
  0
POINT
  8
3
  10
117.255264
  20
1088.415649
  0
POINT
  8
3
  10
120.289993
  20
1091.347046
  0
POINT
  8
3
  10
125.038460
  20
1095.981323
  0
POINT
  8
3
  10
129.757736
  20
1100.643555
  0
POINT
  8
3
  10
134.451218
  20
1105.331055
  0
POINT
  8
3
  10
139.122238
  20
1110.040527
  0
POINT
  8
3
  10
143.774185
  20
1114.769287
  0
POINT
  8
3
  10
148.410416
  20
1119.514404
  0
POINT
  8
3
  10
153.034317
  20
1124.272705
  0
POINT
  8
3
  10
157.649216
  20
1129.041504
  0
POINT
  8
3
  10
162.258530
  20
1133.817749
  0
POINT
  8
3
  10
166.865570
  20
1138.598511
  0
POINT
  8
3
  10
145.060989
  20
1172.389648
  0
POINT
  8
3
  10
141.494461
  20
1169.950073
  0
POINT
  8
3
  10
137.925827
  20
1167.513916
  0
POINT
  8
3
  10
134.352005
  20
1165.084595
  0
POINT
  8
3
  10
130.769928
  20
1162.665039
  0
POINT
  8
3
  10
127.176514
  20
1160.258423
  0
POINT
  8
3
  10
123.568672
  20
1157.868042
  0
POINT
  8
3
  10
119.943344
  20
1155.497070
  0
POINT
  8
3
  10
116.297447
  20
1153.148560
  0
POINT
  8
3
  10
112.627899
  20
1150.825684
  0
POINT
  8
3
  10
108.931641
  20
1148.531738
  0
POINT
  8
3
  10
105.205559
  20
1146.269775
  0
POINT
  8
3
  10
101.446594
  20
1144.042969
  0
POINT
  8
3
  10
99.738640
  20
1143.050537
  0
POINT
  8
3
  10
98.023743
  20
1142.066895
  0
POINT
  8
3
  10
96.301933
  20
1141.093018
  0
POINT
  8
3
  10
94.573189
  20
1140.129883
  0
POINT
  8
3
  10
92.837540
  20
1139.178467
  0
POINT
  8
3
  10
91.094963
  20
1138.239502
  0
POINT
  8
3
  10
89.345497
  20
1137.314087
  0
POINT
  8
3
  10
87.589127
  20
1136.403076
  0
POINT
  8
3
  10
85.825859
  20
1135.507446
  0
POINT
  8
3
  10
84.055725
  20
1134.628174
  0
POINT
  8
3
  10
82.278687
  20
1133.765869
  0
POINT
  8
3
  10
80.494781
  20
1132.921875
  0
POINT
  8
3
  10
78.704002
  20
1132.096802
  0
POINT
  8
3
  10
76.906372
  20
1131.291748
  0
POINT
  8
3
  10
75.101875
  20
1130.507446
  0
POINT
  8
3
  10
73.290520
  20
1129.745117
  0
POINT
  8
3
  10
71.472321
  20
1129.005371
  0
POINT
  8
3
  10
69.647293
  20
1128.289429
  0
POINT
  8
3
  10
67.815430
  20
1127.597900
  0
POINT
  8
3
  10
65.976730
  20
1126.932007
  0
POINT
  8
3
  10
64.131195
  20
1126.292480
  0
POINT
  8
3
  10
62.278862
  20
1125.680298
  0
POINT
  8
3
  10
60.419704
  20
1125.096436
  0
POINT
  8
3
  10
58.553749
  20
1124.541748
  0
POINT
  8
3
  10
56.680992
  20
1124.017212
  0
POINT
  8
3
  10
54.801445
  20
1123.523682
  0
POINT
  8
3
  10
52.915104
  20
1123.062134
  0
POINT
  8
3
  10
51.021984
  20
1122.633423
  0
POINT
  8
3
  10
48.765472
  20
1122.167847
  0
POINT
  8
3
  10
46.500355
  20
1121.748047
  0
POINT
  8
3
  10
44.227028
  20
1121.371582
  0
POINT
  8
3
  10
41.945881
  20
1121.036621
  0
POINT
  8
3
  10
39.657318
  20
1120.740723
  0
POINT
  8
3
  10
37.361729
  20
1120.481934
  0
POINT
  8
3
  10
35.059513
  20
1120.257812
  0
POINT
  8
3
  10
32.751064
  20
1120.066284
  0
POINT
  8
3
  10
30.436779
  20
1119.905273
  0
POINT
  8
3
  10
28.117060
  20
1119.772461
  0
POINT
  8
3
  10
25.792297
  20
1119.665771
  0
POINT
  8
3
  10
23.462889
  20
1119.582886
  0
POINT
  8
3
  10
21.129236
  20
1119.521851
  0
POINT
  8
3
  10
18.791723
  20
1119.480225
  0
POINT
  8
3
  10
16.450758
  20
1119.455933
  0
POINT
  8
3
  10
14.106730
  20
1119.446899
  0
POINT
  8
3
  10
11.760046
  20
1119.450806
  0
POINT
  8
3
  10
9.411089
  20
1119.465454
  0
POINT
  8
3
  10
7.060264
  20
1119.488770
  0
POINT
  8
3
  10
4.707964
  20
1119.518555
  0
POINT
  8
3
  10
2.354594
  20
1119.552612
  0
POINT
  8
3
  10
0.000535
  20
1119.588623
  0
POINT
  8
3
  10
-2.353522
  20
1119.552490
  0
POINT
  8
3
  10
-4.706897
  20
1119.518311
  0
POINT
  8
3
  10
-7.059196
  20
1119.488525
  0
POINT
  8
3
  10
-9.410021
  20
1119.465088
  0
POINT
  8
3
  10
-11.758974
  20
1119.450317
  0
POINT
  8
3
  10
-14.105663
  20
1119.446289
  0
POINT
  8
3
  10
-16.449688
  20
1119.455322
  0
POINT
  8
3
  10
-18.790655
  20
1119.479492
  0
POINT
  8
3
  10
-21.128168
  20
1119.520874
  0
POINT
  8
3
  10
-23.461830
  20
1119.581909
  0
POINT
  8
3
  10
-25.791241
  20
1119.664673
  0
POINT
  8
3
  10
-28.116007
  20
1119.771362
  0
POINT
  8
3
  10
-30.435732
  20
1119.904053
  0
POINT
  8
3
  10
-32.750027
  20
1120.064941
  0
POINT
  8
3
  10
-35.058487
  20
1120.256348
  0
POINT
  8
3
  10
-37.360718
  20
1120.480347
  0
POINT
  8
3
  10
-39.656315
  20
1120.739136
  0
POINT
  8
3
  10
-41.944901
  20
1121.034912
  0
POINT
  8
3
  10
-44.226059
  20
1121.369873
  0
POINT
  8
3
  10
-46.499405
  20
1121.746094
  0
POINT
  8
3
  10
-48.764530
  20
1122.165771
  0
POINT
  8
3
  10
-51.021061
  20
1122.631348
  0
POINT
  8
3
  10
-52.914204
  20
1123.059937
  0
POINT
  8
3
  10
-54.800560
  20
1123.521362
  0
POINT
  8
3
  10
-56.680134
  20
1124.014893
  0
POINT
  8
3
  10
-58.552914
  20
1124.539307
  0
POINT
  8
3
  10
-60.418896
  20
1125.093994
  0
POINT
  8
3
  10
-62.278069
  20
1125.677734
  0
POINT
  8
3
  10
-64.130440
  20
1126.289795
  0
POINT
  8
3
  10
-65.975975
  20
1126.929321
  0
POINT
  8
3
  10
-67.814713
  20
1127.595093
  0
POINT
  8
3
  10
-69.646606
  20
1128.286499
  0
POINT
  8
3
  10
-71.471680
  20
1129.002441
  0
POINT
  8
3
  10
-73.289894
  20
1129.742065
  0
POINT
  8
3
  10
-75.101280
  20
1130.504395
  0
POINT
  8
3
  10
-76.905807
  20
1131.288452
  0
POINT
  8
3
  10
-78.703476
  20
1132.093506
  0
POINT
  8
3
  10
-80.494293
  20
1132.918457
  0
POINT
  8
3
  10
-82.278229
  20
1133.762451
  0
POINT
  8
3
  10
-84.055290
  20
1134.624634
  0
POINT
  8
3
  10
-85.825478
  20
1135.503906
  0
POINT
  8
3
  10
-87.588768
  20
1136.399536
  0
POINT
  8
3
  10
-89.345192
  20
1137.310425
  0
POINT
  8
3
  10
-91.094688
  20
1138.235718
  0
POINT
  8
3
  10
-92.837311
  20
1139.174561
  0
POINT
  8
3
  10
-94.572990
  20
1140.125977
  0
POINT
  8
3
  10
-96.301773
  20
1141.088989
  0
POINT
  8
3
  10
-98.023636
  20
1142.062744
  0
POINT
  8
3
  10
-99.738571
  20
1143.046387
  0
POINT
  8
3
  10
-101.446564
  20
1144.038818
  0
POINT
  8
3
  10
-105.205612
  20
1146.265381
  0
POINT
  8
3
  10
-108.931793
  20
1148.527222
  0
POINT
  8
3
  10
-112.628159
  20
1150.821045
  0
POINT
  8
3
  10
-116.297806
  20
1153.143677
  0
POINT
  8
3
  10
-119.943787
  20
1155.492065
  0
POINT
  8
3
  10
-123.569214
  20
1157.862915
  0
POINT
  8
3
  10
-127.177155
  20
1160.253174
  0
POINT
  8
3
  10
-130.770660
  20
1162.659546
  0
POINT
  8
3
  10
-134.352859
  20
1165.078979
  0
POINT
  8
3
  10
-137.926773
  20
1167.508301
  0
POINT
  8
3
  10
-141.495499
  20
1169.944214
  0
POINT
  8
3
  10
-145.062149
  20
1172.383667
  0
ENDBLK
  0
BLOCK
  8
0
  2
Pattern_16023304_M
  70
64
  10
0
  20
0
  0
TEXT
  8
1
  10
145.203537
  20
911.588867
  50
0.000000
  51
0.000000
  71
0.000000
  1
PIECE NAME: Pattern_16023304
  7
STANDARD
  0
TEXT
  8
1
  10
145.203537
  20
906.588867
  50
0.000000
  51
0.000000
  71
0.000000
  1
SIZE: M
  7
STANDARD
  0
TEXT
  8
1
  10
145.203537
  20
896.588867
  50
0.000000
  51
0.000000
  71
0.000000
  1
QUANTITY: 1
  7
STANDARD
  0
POLYLINE
  8
1
  66
1
  70
1
  250
2
  0
VERTEX
  8
1
  10
145.203552
  20
978.965637
  0
VERTEX
  8
1
  10
94.993439
  20
979.463501
  0
VERTEX
  8
1
  10
96.454025
  20
974.487305
  0
VERTEX
  8
1
  10
97.909180
  20
969.560120
  0
VERTEX
  8
1
  10
99.357056
  20
964.678772
  0
VERTEX
  8
1
  10
100.795807
  20
959.840210
  0
VERTEX
  8
1
  10
102.223602
  20
955.041382
  0
VERTEX
  8
1
  10
103.638580
  20
950.279236
  0
VERTEX
  8
1
  10
105.038910
  20
945.550720
  0
VERTEX
  8
1
  10
106.422745
  20
940.852661
  0
VERTEX
  8
1
  10
107.788239
  20
936.182068
  0
VERTEX
  8
1
  10
109.133560
  20
931.535889
  0
VERTEX
  8
1
  10
110.456841
  20
926.911011
  0
VERTEX
  8
1
  10
111.756248
  20
922.304321
  0
VERTEX
  8
1
  10
113.029953
  20
917.712830
  0
VERTEX
  8
1
  10
114.276100
  20
913.133423
  0
VERTEX
  8
1
  10
115.492836
  20
908.563049
  0
VERTEX
  8
1
  10
116.678329
  20
903.998657
  0
VERTEX
  8
1
  10
117.830734
  20
899.437134
  0
VERTEX
  8
1
  10
118.948212
  20
894.875366
  0
VERTEX
  8
1
  10
120.028908
  20
890.310425
  0
VERTEX
  8
1
  10
121.070992
  20
885.739075
  0
VERTEX
  8
1
  10
122.072601
  20
881.158386
  0
VERTEX
  8
1
  10
123.031906
  20
876.565186
  0
VERTEX
  8
1
  10
123.947067
  20
871.956421
  0
VERTEX
  8
1
  10
124.816231
  20
867.329102
  0
VERTEX
  8
1
  10
125.637550
  20
862.680054
  0
VERTEX
  8
1
  10
126.409195
  20
858.006287
  0
VERTEX
  8
1
  10
127.129311
  20
853.304688
  0
VERTEX
  8
1
  10
127.796051
  20
848.572205
  0
VERTEX
  8
1
  10
128.407593
  20
843.805725
  0
VERTEX
  8
1
  10
145.204086
  20
843.713928
  0
VERTEX
  8
1
  10
162.000610
  20
843.805847
  0
VERTEX
  8
1
  10
162.612106
  20
848.572327
  0
VERTEX
  8
1
  10
163.278809
  20
853.304871
  0
VERTEX
  8
1
  10
163.998886
  20
858.006470
  0
VERTEX
  8
1
  10
164.770493
  20
862.680237
  0
VERTEX
  8
1
  10
165.591766
  20
867.329285
  0
VERTEX
  8
1
  10
166.460907
  20
871.956604
  0
VERTEX
  8
1
  10
167.376022
  20
876.565369
  0
VERTEX
  8
1
  10
168.335281
  20
881.158569
  0
VERTEX
  8
1
  10
169.336868
  20
885.739258
  0
VERTEX
  8
1
  10
170.378906
  20
890.310608
  0
VERTEX
  8
1
  10
171.459564
  20
894.875610
  0
VERTEX
  8
1
  10
172.576996
  20
899.437317
  0
VERTEX
  8
1
  10
173.729370
  20
903.998901
  0
VERTEX
  8
1
  10
174.914825
  20
908.563293
  0
VERTEX
  8
1
  10
176.131531
  20
913.133667
  0
VERTEX
  8
1
  10
177.377625
  20
917.713074
  0
VERTEX
  8
1
  10
178.651291
  20
922.304626
  0
VERTEX
  8
1
  10
179.950668
  20
926.911255
  0
VERTEX
  8
1
  10
181.273926
  20
931.536194
  0
VERTEX
  8
1
  10
182.619186
  20
936.182373
  0
VERTEX
  8
1
  10
183.984650
  20
940.852966
  0
VERTEX
  8
1
  10
185.368439
  20
945.551025
  0
VERTEX
  8
1
  10
186.768738
  20
950.279602
  0
VERTEX
  8
1
  10
188.183685
  20
955.041748
  0
VERTEX
  8
1
  10
189.611435
  20
959.840576
  0
VERTEX
  8
1
  10
191.050140
  20
964.679138
  0
VERTEX
  8
1
  10
192.497986
  20
969.560486
  0
VERTEX
  8
1
  10
193.953094
  20
974.487671
  0
VERTEX
  8
1
  10
195.413635
  20
979.463867
  0
SEQEND
  0
POINT
  8
2
  10
145.203552
  20
978.965637
  0
POINT
  8
2
  10
94.993439
  20
979.463501
  0
POINT
  8
2
  10
128.407593
  20
843.805725
  0
POINT
  8
2
  10
145.204086
  20
843.713928
  0
POINT
  8
2
  10
162.000610
  20
843.805847
  0
POINT
  8
2
  10
195.413635
  20
979.463867
  0
POINT
  8
3
  10
96.454025
  20
974.487305
  0
POINT
  8
3
  10
97.909180
  20
969.560120
  0
POINT
  8
3
  10
99.357056
  20
964.678772
  0
POINT
  8
3
  10
100.795807
  20
959.840210
  0
POINT
  8
3
  10
102.223602
  20
955.041382
  0
POINT
  8
3
  10
103.638580
  20
950.279236
  0
POINT
  8
3
  10
105.038910
  20
945.550720
  0
POINT
  8
3
  10
106.422745
  20
940.852661
  0
POINT
  8
3
  10
107.788239
  20
936.182068
  0
POINT
  8
3
  10
109.133560
  20
931.535889
  0
POINT
  8
3
  10
110.456841
  20
926.911011
  0
POINT
  8
3
  10
111.756248
  20
922.304321
  0
POINT
  8
3
  10
113.029953
  20
917.712830
  0
POINT
  8
3
  10
114.276100
  20
913.133423
  0
POINT
  8
3
  10
115.492836
  20
908.563049
  0
POINT
  8
3
  10
116.678329
  20
903.998657
  0
POINT
  8
3
  10
117.830734
  20
899.437134
  0
POINT
  8
3
  10
118.948212
  20
894.875366
  0
POINT
  8
3
  10
120.028908
  20
890.310425
  0
POINT
  8
3
  10
121.070992
  20
885.739075
  0
POINT
  8
3
  10
122.072601
  20
881.158386
  0
POINT
  8
3
  10
123.031906
  20
876.565186
  0
POINT
  8
3
  10
123.947067
  20
871.956421
  0
POINT
  8
3
  10
124.816231
  20
867.329102
  0
POINT
  8
3
  10
125.637550
  20
862.680054
  0
POINT
  8
3
  10
126.409195
  20
858.006287
  0
POINT
  8
3
  10
127.129311
  20
853.304688
  0
POINT
  8
3
  10
127.796051
  20
848.572205
  0
POINT
  8
3
  10
162.612106
  20
848.572327
  0
POINT
  8
3
  10
163.278809
  20
853.304871
  0
POINT
  8
3
  10
163.998886
  20
858.006470
  0
POINT
  8
3
  10
164.770493
  20
862.680237
  0
POINT
  8
3
  10
165.591766
  20
867.329285
  0
POINT
  8
3
  10
166.460907
  20
871.956604
  0
POINT
  8
3
  10
167.376022
  20
876.565369
  0
POINT
  8
3
  10
168.335281
  20
881.158569
  0
POINT
  8
3
  10
169.336868
  20
885.739258
  0
POINT
  8
3
  10
170.378906
  20
890.310608
  0
POINT
  8
3
  10
171.459564
  20
894.875610
  0
POINT
  8
3
  10
172.576996
  20
899.437317
  0
POINT
  8
3
  10
173.729370
  20
903.998901
  0
POINT
  8
3
  10
174.914825
  20
908.563293
  0
POINT
  8
3
  10
176.131531
  20
913.133667
  0
POINT
  8
3
  10
177.377625
  20
917.713074
  0
POINT
  8
3
  10
178.651291
  20
922.304626
  0
POINT
  8
3
  10
179.950668
  20
926.911255
  0
POINT
  8
3
  10
181.273926
  20
931.536194
  0
POINT
  8
3
  10
182.619186
  20
936.182373
  0
POINT
  8
3
  10
183.984650
  20
940.852966
  0
POINT
  8
3
  10
185.368439
  20
945.551025
  0
POINT
  8
3
  10
186.768738
  20
950.279602
  0
POINT
  8
3
  10
188.183685
  20
955.041748
  0
POINT
  8
3
  10
189.611435
  20
959.840576
  0
POINT
  8
3
  10
191.050140
  20
964.679138
  0
POINT
  8
3
  10
192.497986
  20
969.560486
  0
POINT
  8
3
  10
193.953094
  20
974.487671
  0
LINE
  8
7
  10
145.203537
  20
821.588867
  11
145.203537
  21
1001.588867
  0
POLYLINE
  8
14
  66
1
  70
1
  250
0
  0
VERTEX
  8
14
  10
145.203552
  20
978.965637
  0
VERTEX
  8
14
  10
94.993439
  20
979.463501
  0
VERTEX
  8
14
  10
96.454025
  20
974.487305
  0
VERTEX
  8
14
  10
97.909180
  20
969.560120
  0
VERTEX
  8
14
  10
99.357056
  20
964.678772
  0
VERTEX
  8
14
  10
100.795807
  20
959.840210
  0
VERTEX
  8
14
  10
102.223602
  20
955.041382
  0
VERTEX
  8
14
  10
103.638580
  20
950.279236
  0
VERTEX
  8
14
  10
105.038910
  20
945.550720
  0
VERTEX
  8
14
  10
106.422745
  20
940.852661
  0
VERTEX
  8
14
  10
107.788239
  20
936.182068
  0
VERTEX
  8
14
  10
109.133560
  20
931.535889
  0
VERTEX
  8
14
  10
110.456841
  20
926.911011
  0
VERTEX
  8
14
  10
111.756248
  20
922.304321
  0
VERTEX
  8
14
  10
113.029953
  20
917.712830
  0
VERTEX
  8
14
  10
114.276100
  20
913.133423
  0
VERTEX
  8
14
  10
115.492836
  20
908.563049
  0
VERTEX
  8
14
  10
116.678329
  20
903.998657
  0
VERTEX
  8
14
  10
117.830734
  20
899.437134
  0
VERTEX
  8
14
  10
118.948212
  20
894.875366
  0
VERTEX
  8
14
  10
120.028908
  20
890.310425
  0
VERTEX
  8
14
  10
121.070992
  20
885.739075
  0
VERTEX
  8
14
  10
122.072601
  20
881.158386
  0
VERTEX
  8
14
  10
123.031906
  20
876.565186
  0
VERTEX
  8
14
  10
123.947067
  20
871.956421
  0
VERTEX
  8
14
  10
124.816231
  20
867.329102
  0
VERTEX
  8
14
  10
125.637550
  20
862.680054
  0
VERTEX
  8
14
  10
126.409195
  20
858.006287
  0
VERTEX
  8
14
  10
127.129311
  20
853.304688
  0
VERTEX
  8
14
  10
127.796051
  20
848.572205
  0
VERTEX
  8
14
  10
128.407593
  20
843.805725
  0
VERTEX
  8
14
  10
127.710983
  20
838.809448
  0
VERTEX
  8
14
  10
145.204117
  20
838.713867
  0
VERTEX
  8
14
  10
162.697235
  20
838.809570
  0
VERTEX
  8
14
  10
162.000610
  20
843.805847
  0
VERTEX
  8
14
  10
162.612106
  20
848.572327
  0
VERTEX
  8
14
  10
163.278809
  20
853.304871
  0
VERTEX
  8
14
  10
163.998886
  20
858.006470
  0
VERTEX
  8
14
  10
164.770493
  20
862.680237
  0
VERTEX
  8
14
  10
165.591766
  20
867.329285
  0
VERTEX
  8
14
  10
166.460907
  20
871.956604
  0
VERTEX
  8
14
  10
167.376022
  20
876.565369
  0
VERTEX
  8
14
  10
168.335281
  20
881.158569
  0
VERTEX
  8
14
  10
169.336868
  20
885.739258
  0
VERTEX
  8
14
  10
170.378906
  20
890.310608
  0
VERTEX
  8
14
  10
171.459564
  20
894.875610
  0
VERTEX
  8
14
  10
172.576996
  20
899.437317
  0
VERTEX
  8
14
  10
173.729370
  20
903.998901
  0
VERTEX
  8
14
  10
174.914825
  20
908.563293
  0
VERTEX
  8
14
  10
176.131531
  20
913.133667
  0
VERTEX
  8
14
  10
177.377625
  20
917.713074
  0
VERTEX
  8
14
  10
178.651291
  20
922.304626
  0
VERTEX
  8
14
  10
179.950668
  20
926.911255
  0
VERTEX
  8
14
  10
181.273926
  20
931.536194
  0
VERTEX
  8
14
  10
182.619186
  20
936.182373
  0
VERTEX
  8
14
  10
183.984650
  20
940.852966
  0
VERTEX
  8
14
  10
185.368439
  20
945.551025
  0
VERTEX
  8
14
  10
186.768738
  20
950.279602
  0
VERTEX
  8
14
  10
188.183685
  20
955.041748
  0
VERTEX
  8
14
  10
189.611435
  20
959.840576
  0
VERTEX
  8
14
  10
191.050140
  20
964.679138
  0
VERTEX
  8
14
  10
192.497986
  20
969.560486
  0
VERTEX
  8
14
  10
193.953094
  20
974.487671
  0
VERTEX
  8
14
  10
195.413635
  20
979.463867
  0
VERTEX
  8
14
  10
145.203552
  20
978.965637
  0
SEQEND
  0
POINT
  8
2
  10
145.203552
  20
978.965637
  0
POINT
  8
2
  10
94.993439
  20
979.463501
  0
POINT
  8
2
  10
128.407593
  20
843.805725
  0
POINT
  8
2
  10
127.710983
  20
838.809448
  0
POINT
  8
2
  10
145.204117
  20
838.713867
  0
POINT
  8
2
  10
162.697235
  20
838.809570
  0
POINT
  8
2
  10
162.000610
  20
843.805847
  0
POINT
  8
2
  10
195.413635
  20
979.463867
  0
POINT
  8
2
  10
145.203552
  20
978.965637
  0
POINT
  8
3
  10
94.993439
  20
979.463501
  0
POINT
  8
3
  10
96.454025
  20
974.487305
  0
POINT
  8
3
  10
97.909180
  20
969.560120
  0
POINT
  8
3
  10
99.357056
  20
964.678772
  0
POINT
  8
3
  10
100.795807
  20
959.840210
  0
POINT
  8
3
  10
102.223602
  20
955.041382
  0
POINT
  8
3
  10
103.638580
  20
950.279236
  0
POINT
  8
3
  10
105.038910
  20
945.550720
  0
POINT
  8
3
  10
106.422745
  20
940.852661
  0
POINT
  8
3
  10
107.788239
  20
936.182068
  0
POINT
  8
3
  10
109.133560
  20
931.535889
  0
POINT
  8
3
  10
110.456841
  20
926.911011
  0
POINT
  8
3
  10
111.756248
  20
922.304321
  0
POINT
  8
3
  10
113.029953
  20
917.712830
  0
POINT
  8
3
  10
114.276100
  20
913.133423
  0
POINT
  8
3
  10
115.492836
  20
908.563049
  0
POINT
  8
3
  10
116.678329
  20
903.998657
  0
POINT
  8
3
  10
117.830734
  20
899.437134
  0
POINT
  8
3
  10
118.948212
  20
894.875366
  0
POINT
  8
3
  10
120.028908
  20
890.310425
  0
POINT
  8
3
  10
121.070992
  20
885.739075
  0
POINT
  8
3
  10
122.072601
  20
881.158386
  0
POINT
  8
3
  10
123.031906
  20
876.565186
  0
POINT
  8
3
  10
123.947067
  20
871.956421
  0
POINT
  8
3
  10
124.816231
  20
867.329102
  0
POINT
  8
3
  10
125.637550
  20
862.680054
  0
POINT
  8
3
  10
126.409195
  20
858.006287
  0
POINT
  8
3
  10
127.129311
  20
853.304688
  0
POINT
  8
3
  10
127.796051
  20
848.572205
  0
POINT
  8
3
  10
128.407593
  20
843.805725
  0
POINT
  8
3
  10
162.000610
  20
843.805847
  0
POINT
  8
3
  10
162.612106
  20
848.572327
  0
POINT
  8
3
  10
163.278809
  20
853.304871
  0
POINT
  8
3
  10
163.998886
  20
858.006470
  0
POINT
  8
3
  10
164.770493
  20
862.680237
  0
POINT
  8
3
  10
165.591766
  20
867.329285
  0
POINT
  8
3
  10
166.460907
  20
871.956604
  0
POINT
  8
3
  10
167.376022
  20
876.565369
  0
POINT
  8
3
  10
168.335281
  20
881.158569
  0
POINT
  8
3
  10
169.336868
  20
885.739258
  0
POINT
  8
3
  10
170.378906
  20
890.310608
  0
POINT
  8
3
  10
171.459564
  20
894.875610
  0
POINT
  8
3
  10
172.576996
  20
899.437317
  0
POINT
  8
3
  10
173.729370
  20
903.998901
  0
POINT
  8
3
  10
174.914825
  20
908.563293
  0
POINT
  8
3
  10
176.131531
  20
913.133667
  0
POINT
  8
3
  10
177.377625
  20
917.713074
  0
POINT
  8
3
  10
178.651291
  20
922.304626
  0
POINT
  8
3
  10
179.950668
  20
926.911255
  0
POINT
  8
3
  10
181.273926
  20
931.536194
  0
POINT
  8
3
  10
182.619186
  20
936.182373
  0
POINT
  8
3
  10
183.984650
  20
940.852966
  0
POINT
  8
3
  10
185.368439
  20
945.551025
  0
POINT
  8
3
  10
186.768738
  20
950.279602
  0
POINT
  8
3
  10
188.183685
  20
955.041748
  0
POINT
  8
3
  10
189.611435
  20
959.840576
  0
POINT
  8
3
  10
191.050140
  20
964.679138
  0
POINT
  8
3
  10
192.497986
  20
969.560486
  0
POINT
  8
3
  10
193.953094
  20
974.487671
  0
POINT
  8
3
  10
195.413635
  20
979.463867
  0
ENDBLK
  0
BLOCK
  8
0
  2
Pattern_1813237_M
  70
64
  10
0
  20
0
  0
TEXT
  8
1
  10
0.000015
  20
1280.194580
  50
0.000000
  51
0.000000
  71
0.000000
  1
PIECE NAME: Pattern_1813237
  7
STANDARD
  0
TEXT
  8
1
  10
0.000015
  20
1275.194580
  50
0.000000
  51
0.000000
  71
0.000000
  1
SIZE: M
  7
STANDARD
  0
TEXT
  8
1
  10
0.000015
  20
1265.194580
  50
0.000000
  51
0.000000
  71
0.000000
  1
QUANTITY: 1
  7
STANDARD
  0
POLYLINE
  8
1
  66
1
  70
1
  250
2
  0
VERTEX
  8
1
  10
-0.000207
  20
1357.178833
  0
VERTEX
  8
1
  10
-5.912758
  20
1357.243896
  0
VERTEX
  8
1
  10
-11.718362
  20
1357.519653
  0
VERTEX
  8
1
  10
-17.422529
  20
1357.996704
  0
VERTEX
  8
1
  10
-23.030771
  20
1358.665649
  0
VERTEX
  8
1
  10
-28.548601
  20
1359.517090
  0
VERTEX
  8
1
  10
-33.981552
  20
1360.541382
  0
VERTEX
  8
1
  10
-39.335110
  20
1361.729126
  0
VERTEX
  8
1
  10
-44.614803
  20
1363.071045
  0
VERTEX
  8
1
  10
-49.826145
  20
1364.557495
  0
VERTEX
  8
1
  10
-54.974655
  20
1366.179199
  0
VERTEX
  8
1
  10
-60.065830
  20
1367.926514
  0
VERTEX
  8
1
  10
-65.105217
  20
1369.790161
  0
VERTEX
  8
1
  10
-70.098289
  20
1371.760498
  0
VERTEX
  8
1
  10
-75.050568
  20
1373.828247
  0
VERTEX
  8
1
  10
-79.967598
  20
1375.984009
  0
VERTEX
  8
1
  10
-84.854866
  20
1378.218018
  0
VERTEX
  8
1
  10
-89.717903
  20
1380.521118
  0
VERTEX
  8
1
  10
-94.562195
  20
1382.883789
  0
VERTEX
  8
1
  10
-99.393288
  20
1385.296631
  0
VERTEX
  8
1
  10
-104.216675
  20
1387.750000
  0
VERTEX
  8
1
  10
-109.037880
  20
1390.234619
  0
VERTEX
  8
1
  10
-113.862419
  20
1392.740967
  0
VERTEX
  8
1
  10
-118.695816
  20
1395.259644
  0
VERTEX
  8
1
  10
-123.543541
  20
1397.781128
  0
VERTEX
  8
1
  10
-128.411148
  20
1400.296143
  0
VERTEX
  8
1
  10
-133.304138
  20
1402.794922
  0
VERTEX
  8
1
  10
-138.228043
  20
1405.268311
  0
VERTEX
  8
1
  10
-143.188339
  20
1407.706787
  0
VERTEX
  8
1
  10
-148.190582
  20
1410.100708
  0
VERTEX
  8
1
  10
-166.768143
  20
1373.649902
  0
VERTEX
  8
1
  10
-158.771362
  20
1369.252808
  0
VERTEX
  8
1
  10
-150.789459
  20
1365.003784
  0
VERTEX
  8
1
  10
-142.842163
  20
1360.875122
  0
VERTEX
  8
1
  10
-134.949234
  20
1356.839233
  0
VERTEX
  8
1
  10
-127.130402
  20
1352.868042
  0
VERTEX
  8
1
  10
-119.405502
  20
1348.934082
  0
VERTEX
  8
1
  10
-111.794197
  20
1345.009399
  0
VERTEX
  8
1
  10
-104.316315
  20
1341.066284
  0
VERTEX
  8
1
  10
-96.991615
  20
1337.076904
  0
VERTEX
  8
1
  10
-89.839813
  20
1333.013672
  0
VERTEX
  8
1
  10
-82.880684
  20
1328.848633
  0
VERTEX
  8
1
  10
-76.134018
  20
1324.554199
  0
VERTEX
  8
1
  10
-69.619530
  20
1320.102539
  0
VERTEX
  8
1
  10
-63.356987
  20
1315.465820
  0
VERTEX
  8
1
  10
-57.366177
  20
1310.616211
  0
VERTEX
  8
1
  10
-51.666832
  20
1305.526245
  0
VERTEX
  8
1
  10
-46.278713
  20
1300.167847
  0
VERTEX
  8
1
  10
-41.221588
  20
1294.513428
  0
VERTEX
  8
1
  10
-36.515205
  20
1288.535156
  0
VERTEX
  8
1
  10
-32.179329
  20
1282.205322
  0
VERTEX
  8
1
  10
-28.233727
  20
1275.496216
  0
VERTEX
  8
1
  10
-24.698145
  20
1268.379883
  0
VERTEX
  8
1
  10
-21.592344
  20
1260.828613
  0
VERTEX
  8
1
  10
-18.936083
  20
1252.814697
  0
VERTEX
  8
1
  10
-16.749128
  20
1244.310425
  0
VERTEX
  8
1
  10
-15.051229
  20
1235.287964
  0
VERTEX
  8
1
  10
-13.862147
  20
1225.719604
  0
VERTEX
  8
1
  10
-13.201644
  20
1215.577515
  0
VERTEX
  8
1
  10
-13.089475
  20
1204.833862
  0
VERTEX
  8
1
  10
-13.051859
  20
1201.410156
  0
VERTEX
  8
1
  10
-13.091917
  20
1197.990845
  0
VERTEX
  8
1
  10
-13.200788
  20
1194.575195
  0
VERTEX
  8
1
  10
-13.369606
  20
1191.162964
  0
VERTEX
  8
1
  10
-13.589511
  20
1187.753418
  0
VERTEX
  8
1
  10
-13.851638
  20
1184.346069
  0
VERTEX
  8
1
  10
-14.147122
  20
1180.940552
  0
VERTEX
  8
1
  10
-14.467103
  20
1177.536377
  0
VERTEX
  8
1
  10
-14.802716
  20
1174.132935
  0
VERTEX
  8
1
  10
-15.145096
  20
1170.729736
  0
VERTEX
  8
1
  10
-15.485383
  20
1167.326416
  0
VERTEX
  8
1
  10
-15.814711
  20
1163.922363
  0
VERTEX
  8
1
  10
-16.124216
  20
1160.517090
  0
VERTEX
  8
1
  10
-16.405039
  20
1157.110107
  0
VERTEX
  8
1
  10
-16.648312
  20
1153.700928
  0
VERTEX
  8
1
  10
-16.845173
  20
1150.288940
  0
VERTEX
  8
1
  10
-0.003071
  20
1150.353271
  0
VERTEX
  8
1
  10
16.839031
  20
1150.288574
  0
VERTEX
  8
1
  10
16.642262
  20
1153.700439
  0
VERTEX
  8
1
  10
16.399084
  20
1157.109619
  0
VERTEX
  8
1
  10
16.118357
  20
1160.516602
  0
VERTEX
  8
1
  10
15.808945
  20
1163.921875
  0
VERTEX
  8
1
  10
15.479712
  20
1167.326050
  0
VERTEX
  8
1
  10
15.139519
  20
1170.729370
  0
VERTEX
  8
1
  10
14.797232
  20
1174.132568
  0
VERTEX
  8
1
  10
14.461715
  20
1177.536011
  0
VERTEX
  8
1
  10
14.141829
  20
1180.940186
  0
VERTEX
  8
1
  10
13.846437
  20
1184.345703
  0
VERTEX
  8
1
  10
13.584405
  20
1187.753052
  0
VERTEX
  8
1
  10
13.364595
  20
1191.162598
  0
VERTEX
  8
1
  10
13.195869
  20
1194.574829
  0
VERTEX
  8
1
  10
13.087095
  20
1197.990479
  0
VERTEX
  8
1
  10
13.047130
  20
1201.409912
  0
VERTEX
  8
1
  10
13.084842
  20
1204.833496
  0
VERTEX
  8
1
  10
13.197308
  20
1215.577148
  0
VERTEX
  8
1
  10
13.858095
  20
1225.719238
  0
VERTEX
  8
1
  10
15.047439
  20
1235.287598
  0
VERTEX
  8
1
  10
16.745586
  20
1244.309937
  0
VERTEX
  8
1
  10
18.932779
  20
1252.814209
  0
VERTEX
  8
1
  10
21.589264
  20
1260.828003
  0
VERTEX
  8
1
  10
24.695271
  20
1268.379150
  0
VERTEX
  8
1
  10
28.231047
  20
1275.495361
  0
VERTEX
  8
1
  10
32.176842
  20
1282.204468
  0
VERTEX
  8
1
  10
36.512894
  20
1288.534180
  0
VERTEX
  8
1
  10
41.219433
  20
1294.512329
  0
VERTEX
  8
1
  10
46.276722
  20
1300.166626
  0
VERTEX
  8
1
  10
51.664986
  20
1305.524780
  0
VERTEX
  8
1
  10
57.364468
  20
1310.614624
  0
VERTEX
  8
1
  10
63.355423
  20
1315.463989
  0
VERTEX
  8
1
  10
69.618088
  20
1320.100586
  0
VERTEX
  8
1
  10
76.132706
  20
1324.552124
  0
VERTEX
  8
1
  10
82.879494
  20
1328.846436
  0
VERTEX
  8
1
  10
89.838737
  20
1333.011230
  0
VERTEX
  8
1
  10
96.990639
  20
1337.074219
  0
VERTEX
  8
1
  10
104.315468
  20
1341.063354
  0
VERTEX
  8
1
  10
111.793465
  20
1345.006226
  0
VERTEX
  8
1
  10
119.404861
  20
1348.930786
  0
VERTEX
  8
1
  10
127.129890
  20
1352.864502
  0
VERTEX
  8
1
  10
134.948807
  20
1356.835449
  0
VERTEX
  8
1
  10
142.841858
  20
1360.871216
  0
VERTEX
  8
1
  10
150.789276
  20
1364.999634
  0
VERTEX
  8
1
  10
158.771286
  20
1369.248413
  0
VERTEX
  8
1
  10
166.768173
  20
1373.645386
  0
VERTEX
  8
1
  10
148.191620
  20
1410.096680
  0
VERTEX
  8
1
  10
143.189316
  20
1407.702759
  0
VERTEX
  8
1
  10
138.228973
  20
1405.264526
  0
VERTEX
  8
1
  10
133.305008
  20
1402.791260
  0
VERTEX
  8
1
  10
128.411926
  20
1400.292480
  0
VERTEX
  8
1
  10
123.544228
  20
1397.777710
  0
VERTEX
  8
1
  10
118.696465
  20
1395.256348
  0
VERTEX
  8
1
  10
113.862976
  20
1392.737793
  0
VERTEX
  8
1
  10
109.038376
  20
1390.231567
  0
VERTEX
  8
1
  10
104.217110
  20
1387.747070
  0
VERTEX
  8
1
  10
99.393654
  20
1385.293823
  0
VERTEX
  8
1
  10
94.562492
  20
1382.881226
  0
VERTEX
  8
1
  10
89.718132
  20
1380.518677
  0
VERTEX
  8
1
  10
84.855042
  20
1378.215698
  0
VERTEX
  8
1
  10
79.967697
  20
1375.981689
  0
VERTEX
  8
1
  10
75.050621
  20
1373.826172
  0
VERTEX
  8
1
  10
70.098274
  20
1371.758545
  0
VERTEX
  8
1
  10
65.105148
  20
1369.788330
  0
VERTEX
  8
1
  10
60.065723
  20
1367.924927
  0
VERTEX
  8
1
  10
54.974499
  20
1366.177734
  0
VERTEX
  8
1
  10
49.825939
  20
1364.556152
  0
VERTEX
  8
1
  10
44.614559
  20
1363.069824
  0
VERTEX
  8
1
  10
39.334824
  20
1361.728149
  0
VERTEX
  8
1
  10
33.981228
  20
1360.540405
  0
VERTEX
  8
1
  10
28.548258
  20
1359.516235
  0
VERTEX
  8
1
  10
23.030401
  20
1358.665039
  0
VERTEX
  8
1
  10
17.422138
  20
1357.996216
  0
VERTEX
  8
1
  10
11.717954
  20
1357.519287
  0
VERTEX
  8
1
  10
5.912351
  20
1357.243652
  0
SEQEND
  0
POINT
  8
2
  10
-0.000207
  20
1357.178833
  0
POINT
  8
2
  10
-148.190582
  20
1410.100708
  0
POINT
  8
2
  10
-166.768143
  20
1373.649902
  0
POINT
  8
2
  10
-13.089475
  20
1204.833862
  0
POINT
  8
2
  10
-16.845173
  20
1150.288940
  0
POINT
  8
2
  10
-0.003071
  20
1150.353271
  0
POINT
  8
2
  10
16.839031
  20
1150.288574
  0
POINT
  8
2
  10
13.084842
  20
1204.833496
  0
POINT
  8
2
  10
166.768173
  20
1373.645386
  0
POINT
  8
2
  10
148.191620
  20
1410.096680
  0
POINT
  8
3
  10
-5.912758
  20
1357.243896
  0
POINT
  8
3
  10
-11.718362
  20
1357.519653
  0
POINT
  8
3
  10
-17.422529
  20
1357.996704
  0
POINT
  8
3
  10
-23.030771
  20
1358.665649
  0
POINT
  8
3
  10
-28.548601
  20
1359.517090
  0
POINT
  8
3
  10
-33.981552
  20
1360.541382
  0
POINT
  8
3
  10
-39.335110
  20
1361.729126
  0
POINT
  8
3
  10
-44.614803
  20
1363.071045
  0
POINT
  8
3
  10
-49.826145
  20
1364.557495
  0
POINT
  8
3
  10
-54.974655
  20
1366.179199
  0
POINT
  8
3
  10
-60.065830
  20
1367.926514
  0
POINT
  8
3
  10
-65.105217
  20
1369.790161
  0
POINT
  8
3
  10
-70.098289
  20
1371.760498
  0
POINT
  8
3
  10
-75.050568
  20
1373.828247
  0
POINT
  8
3
  10
-79.967598
  20
1375.984009
  0
POINT
  8
3
  10
-84.854866
  20
1378.218018
  0
POINT
  8
3
  10
-89.717903
  20
1380.521118
  0
POINT
  8
3
  10
-94.562195
  20
1382.883789
  0
POINT
  8
3
  10
-99.393288
  20
1385.296631
  0
POINT
  8
3
  10
-104.216675
  20
1387.750000
  0
POINT
  8
3
  10
-109.037880
  20
1390.234619
  0
POINT
  8
3
  10
-113.862419
  20
1392.740967
  0
POINT
  8
3
  10
-118.695816
  20
1395.259644
  0
POINT
  8
3
  10
-123.543541
  20
1397.781128
  0
POINT
  8
3
  10
-128.411148
  20
1400.296143
  0
POINT
  8
3
  10
-133.304138
  20
1402.794922
  0
POINT
  8
3
  10
-138.228043
  20
1405.268311
  0
POINT
  8
3
  10
-143.188339
  20
1407.706787
  0
POINT
  8
3
  10
-158.771362
  20
1369.252808
  0
POINT
  8
3
  10
-150.789459
  20
1365.003784
  0
POINT
  8
3
  10
-142.842163
  20
1360.875122
  0
POINT
  8
3
  10
-134.949234
  20
1356.839233
  0
POINT
  8
3
  10
-127.130402
  20
1352.868042
  0
POINT
  8
3
  10
-119.405502
  20
1348.934082
  0
POINT
  8
3
  10
-111.794197
  20
1345.009399
  0
POINT
  8
3
  10
-104.316315
  20
1341.066284
  0
POINT
  8
3
  10
-96.991615
  20
1337.076904
  0
POINT
  8
3
  10
-89.839813
  20
1333.013672
  0
POINT
  8
3
  10
-82.880684
  20
1328.848633
  0
POINT
  8
3
  10
-76.134018
  20
1324.554199
  0
POINT
  8
3
  10
-69.619530
  20
1320.102539
  0
POINT
  8
3
  10
-63.356987
  20
1315.465820
  0
POINT
  8
3
  10
-57.366177
  20
1310.616211
  0
POINT
  8
3
  10
-51.666832
  20
1305.526245
  0
POINT
  8
3
  10
-46.278713
  20
1300.167847
  0
POINT
  8
3
  10
-41.221588
  20
1294.513428
  0
POINT
  8
3
  10
-36.515205
  20
1288.535156
  0
POINT
  8
3
  10
-32.179329
  20
1282.205322
  0
POINT
  8
3
  10
-28.233727
  20
1275.496216
  0
POINT
  8
3
  10
-24.698145
  20
1268.379883
  0
POINT
  8
3
  10
-21.592344
  20
1260.828613
  0
POINT
  8
3
  10
-18.936083
  20
1252.814697
  0
POINT
  8
3
  10
-16.749128
  20
1244.310425
  0
POINT
  8
3
  10
-15.051229
  20
1235.287964
  0
POINT
  8
3
  10
-13.862147
  20
1225.719604
  0
POINT
  8
3
  10
-13.201644
  20
1215.577515
  0
POINT
  8
3
  10
-13.051859
  20
1201.410156
  0
POINT
  8
3
  10
-13.091917
  20
1197.990845
  0
POINT
  8
3
  10
-13.200788
  20
1194.575195
  0
POINT
  8
3
  10
-13.369606
  20
1191.162964
  0
POINT
  8
3
  10
-13.589511
  20
1187.753418
  0
POINT
  8
3
  10
-13.851638
  20
1184.346069
  0
POINT
  8
3
  10
-14.147122
  20
1180.940552
  0
POINT
  8
3
  10
-14.467103
  20
1177.536377
  0
POINT
  8
3
  10
-14.802716
  20
1174.132935
  0
POINT
  8
3
  10
-15.145096
  20
1170.729736
  0
POINT
  8
3
  10
-15.485383
  20
1167.326416
  0
POINT
  8
3
  10
-15.814711
  20
1163.922363
  0
POINT
  8
3
  10
-16.124216
  20
1160.517090
  0
POINT
  8
3
  10
-16.405039
  20
1157.110107
  0
POINT
  8
3
  10
-16.648312
  20
1153.700928
  0
POINT
  8
3
  10
16.642262
  20
1153.700439
  0
POINT
  8
3
  10
16.399084
  20
1157.109619
  0
POINT
  8
3
  10
16.118357
  20
1160.516602
  0
POINT
  8
3
  10
15.808945
  20
1163.921875
  0
POINT
  8
3
  10
15.479712
  20
1167.326050
  0
POINT
  8
3
  10
15.139519
  20
1170.729370
  0
POINT
  8
3
  10
14.797232
  20
1174.132568
  0
POINT
  8
3
  10
14.461715
  20
1177.536011
  0
POINT
  8
3
  10
14.141829
  20
1180.940186
  0
POINT
  8
3
  10
13.846437
  20
1184.345703
  0
POINT
  8
3
  10
13.584405
  20
1187.753052
  0
POINT
  8
3
  10
13.364595
  20
1191.162598
  0
POINT
  8
3
  10
13.195869
  20
1194.574829
  0
POINT
  8
3
  10
13.087095
  20
1197.990479
  0
POINT
  8
3
  10
13.047130
  20
1201.409912
  0
POINT
  8
3
  10
13.197308
  20
1215.577148
  0
POINT
  8
3
  10
13.858095
  20
1225.719238
  0
POINT
  8
3
  10
15.047439
  20
1235.287598
  0
POINT
  8
3
  10
16.745586
  20
1244.309937
  0
POINT
  8
3
  10
18.932779
  20
1252.814209
  0
POINT
  8
3
  10
21.589264
  20
1260.828003
  0
POINT
  8
3
  10
24.695271
  20
1268.379150
  0
POINT
  8
3
  10
28.231047
  20
1275.495361
  0
POINT
  8
3
  10
32.176842
  20
1282.204468
  0
POINT
  8
3
  10
36.512894
  20
1288.534180
  0
POINT
  8
3
  10
41.219433
  20
1294.512329
  0
POINT
  8
3
  10
46.276722
  20
1300.166626
  0
POINT
  8
3
  10
51.664986
  20
1305.524780
  0
POINT
  8
3
  10
57.364468
  20
1310.614624
  0
POINT
  8
3
  10
63.355423
  20
1315.463989
  0
POINT
  8
3
  10
69.618088
  20
1320.100586
  0
POINT
  8
3
  10
76.132706
  20
1324.552124
  0
POINT
  8
3
  10
82.879494
  20
1328.846436
  0
POINT
  8
3
  10
89.838737
  20
1333.011230
  0
POINT
  8
3
  10
96.990639
  20
1337.074219
  0
POINT
  8
3
  10
104.315468
  20
1341.063354
  0
POINT
  8
3
  10
111.793465
  20
1345.006226
  0
POINT
  8
3
  10
119.404861
  20
1348.930786
  0
POINT
  8
3
  10
127.129890
  20
1352.864502
  0
POINT
  8
3
  10
134.948807
  20
1356.835449
  0
POINT
  8
3
  10
142.841858
  20
1360.871216
  0
POINT
  8
3
  10
150.789276
  20
1364.999634
  0
POINT
  8
3
  10
158.771286
  20
1369.248413
  0
POINT
  8
3
  10
143.189316
  20
1407.702759
  0
POINT
  8
3
  10
138.228973
  20
1405.264526
  0
POINT
  8
3
  10
133.305008
  20
1402.791260
  0
POINT
  8
3
  10
128.411926
  20
1400.292480
  0
POINT
  8
3
  10
123.544228
  20
1397.777710
  0
POINT
  8
3
  10
118.696465
  20
1395.256348
  0
POINT
  8
3
  10
113.862976
  20
1392.737793
  0
POINT
  8
3
  10
109.038376
  20
1390.231567
  0
POINT
  8
3
  10
104.217110
  20
1387.747070
  0
POINT
  8
3
  10
99.393654
  20
1385.293823
  0
POINT
  8
3
  10
94.562492
  20
1382.881226
  0
POINT
  8
3
  10
89.718132
  20
1380.518677
  0
POINT
  8
3
  10
84.855042
  20
1378.215698
  0
POINT
  8
3
  10
79.967697
  20
1375.981689
  0
POINT
  8
3
  10
75.050621
  20
1373.826172
  0
POINT
  8
3
  10
70.098274
  20
1371.758545
  0
POINT
  8
3
  10
65.105148
  20
1369.788330
  0
POINT
  8
3
  10
60.065723
  20
1367.924927
  0
POINT
  8
3
  10
54.974499
  20
1366.177734
  0
POINT
  8
3
  10
49.825939
  20
1364.556152
  0
POINT
  8
3
  10
44.614559
  20
1363.069824
  0
POINT
  8
3
  10
39.334824
  20
1361.728149
  0
POINT
  8
3
  10
33.981228
  20
1360.540405
  0
POINT
  8
3
  10
28.548258
  20
1359.516235
  0
POINT
  8
3
  10
23.030401
  20
1358.665039
  0
POINT
  8
3
  10
17.422138
  20
1357.996216
  0
POINT
  8
3
  10
11.717954
  20
1357.519287
  0
POINT
  8
3
  10
5.912351
  20
1357.243652
  0
LINE
  8
7
  10
0.000015
  20
1190.194580
  11
0.000015
  21
1370.194580
  0
POLYLINE
  8
14
  66
1
  70
1
  250
0
  0
VERTEX
  8
14
  10
-0.000207
  20
1357.178833
  0
VERTEX
  8
14
  10
-5.912758
  20
1357.243896
  0
VERTEX
  8
14
  10
-11.718362
  20
1357.519653
  0
VERTEX
  8
14
  10
-17.422529
  20
1357.996704
  0
VERTEX
  8
14
  10
-23.030771
  20
1358.665649
  0
VERTEX
  8
14
  10
-28.548601
  20
1359.517090
  0
VERTEX
  8
14
  10
-33.981552
  20
1360.541382
  0
VERTEX
  8
14
  10
-39.335110
  20
1361.729126
  0
VERTEX
  8
14
  10
-44.614803
  20
1363.071045
  0
VERTEX
  8
14
  10
-49.826145
  20
1364.557495
  0
VERTEX
  8
14
  10
-54.974655
  20
1366.179199
  0
VERTEX
  8
14
  10
-60.065830
  20
1367.926514
  0
VERTEX
  8
14
  10
-65.105217
  20
1369.790161
  0
VERTEX
  8
14
  10
-70.098289
  20
1371.760498
  0
VERTEX
  8
14
  10
-75.050568
  20
1373.828247
  0
VERTEX
  8
14
  10
-79.967598
  20
1375.984009
  0
VERTEX
  8
14
  10
-84.854866
  20
1378.218018
  0
VERTEX
  8
14
  10
-89.717903
  20
1380.521118
  0
VERTEX
  8
14
  10
-94.562195
  20
1382.883789
  0
VERTEX
  8
14
  10
-99.393288
  20
1385.296631
  0
VERTEX
  8
14
  10
-104.216675
  20
1387.750000
  0
VERTEX
  8
14
  10
-109.037880
  20
1390.234619
  0
VERTEX
  8
14
  10
-113.862419
  20
1392.740967
  0
VERTEX
  8
14
  10
-118.695816
  20
1395.259644
  0
VERTEX
  8
14
  10
-123.543541
  20
1397.781128
  0
VERTEX
  8
14
  10
-128.411148
  20
1400.296143
  0
VERTEX
  8
14
  10
-133.304138
  20
1402.794922
  0
VERTEX
  8
14
  10
-138.228043
  20
1405.268311
  0
VERTEX
  8
14
  10
-143.188339
  20
1407.706787
  0
VERTEX
  8
14
  10
-148.190582
  20
1410.100708
  0
VERTEX
  8
14
  10
-153.468262
  20
1412.958740
  0
VERTEX
  8
14
  10
-172.199402
  20
1376.206543
  0
VERTEX
  8
14
  10
-166.768143
  20
1373.649902
  0
VERTEX
  8
14
  10
-158.771362
  20
1369.252808
  0
VERTEX
  8
14
  10
-150.789459
  20
1365.003784
  0
VERTEX
  8
14
  10
-142.842163
  20
1360.875122
  0
VERTEX
  8
14
  10
-134.949234
  20
1356.839233
  0
VERTEX
  8
14
  10
-127.130402
  20
1352.868042
  0
VERTEX
  8
14
  10
-119.405502
  20
1348.934082
  0
VERTEX
  8
14
  10
-111.794197
  20
1345.009399
  0
VERTEX
  8
14
  10
-104.316315
  20
1341.066284
  0
VERTEX
  8
14
  10
-96.991615
  20
1337.076904
  0
VERTEX
  8
14
  10
-89.839813
  20
1333.013672
  0
VERTEX
  8
14
  10
-82.880684
  20
1328.848633
  0
VERTEX
  8
14
  10
-76.134018
  20
1324.554199
  0
VERTEX
  8
14
  10
-69.619530
  20
1320.102539
  0
VERTEX
  8
14
  10
-63.356987
  20
1315.465820
  0
VERTEX
  8
14
  10
-57.366177
  20
1310.616211
  0
VERTEX
  8
14
  10
-51.666832
  20
1305.526245
  0
VERTEX
  8
14
  10
-46.278713
  20
1300.167847
  0
VERTEX
  8
14
  10
-41.221588
  20
1294.513428
  0
VERTEX
  8
14
  10
-36.515205
  20
1288.535156
  0
VERTEX
  8
14
  10
-32.179329
  20
1282.205322
  0
VERTEX
  8
14
  10
-28.233727
  20
1275.496216
  0
VERTEX
  8
14
  10
-24.698145
  20
1268.379883
  0
VERTEX
  8
14
  10
-21.592344
  20
1260.828613
  0
VERTEX
  8
14
  10
-18.936083
  20
1252.814697
  0
VERTEX
  8
14
  10
-16.749128
  20
1244.310425
  0
VERTEX
  8
14
  10
-15.051229
  20
1235.287964
  0
VERTEX
  8
14
  10
-13.862147
  20
1225.719604
  0
VERTEX
  8
14
  10
-13.201644
  20
1215.577515
  0
VERTEX
  8
14
  10
-13.089475
  20
1204.833862
  0
VERTEX
  8
14
  10
-13.051859
  20
1201.410156
  0
VERTEX
  8
14
  10
-13.091917
  20
1197.990845
  0
VERTEX
  8
14
  10
-13.200788
  20
1194.575195
  0
VERTEX
  8
14
  10
-13.369606
  20
1191.162964
  0
VERTEX
  8
14
  10
-13.589511
  20
1187.753418
  0
VERTEX
  8
14
  10
-13.851638
  20
1184.346069
  0
VERTEX
  8
14
  10
-14.147122
  20
1180.940552
  0
VERTEX
  8
14
  10
-14.467103
  20
1177.536377
  0
VERTEX
  8
14
  10
-14.802716
  20
1174.132935
  0
VERTEX
  8
14
  10
-15.145096
  20
1170.729736
  0
VERTEX
  8
14
  10
-15.485383
  20
1167.326416
  0
VERTEX
  8
14
  10
-15.814711
  20
1163.922363
  0
VERTEX
  8
14
  10
-16.124216
  20
1160.517090
  0
VERTEX
  8
14
  10
-16.405039
  20
1157.110107
  0
VERTEX
  8
14
  10
-16.648312
  20
1153.700928
  0
VERTEX
  8
14
  10
-16.845173
  20
1150.288940
  0
VERTEX
  8
14
  10
-16.453064
  20
1144.290405
  0
VERTEX
  8
14
  10
-0.003201
  20
1144.353149
  0
VERTEX
  8
14
  10
16.446808
  20
1144.290039
  0
VERTEX
  8
14
  10
16.839031
  20
1150.288574
  0
VERTEX
  8
14
  10
16.642262
  20
1153.700439
  0
VERTEX
  8
14
  10
16.399084
  20
1157.109619
  0
VERTEX
  8
14
  10
16.118357
  20
1160.516602
  0
VERTEX
  8
14
  10
15.808945
  20
1163.921875
  0
VERTEX
  8
14
  10
15.479712
  20
1167.326050
  0
VERTEX
  8
14
  10
15.139519
  20
1170.729370
  0
VERTEX
  8
14
  10
14.797232
  20
1174.132568
  0
VERTEX
  8
14
  10
14.461715
  20
1177.536011
  0
VERTEX
  8
14
  10
14.141829
  20
1180.940186
  0
VERTEX
  8
14
  10
13.846437
  20
1184.345703
  0
VERTEX
  8
14
  10
13.584405
  20
1187.753052
  0
VERTEX
  8
14
  10
13.364595
  20
1191.162598
  0
VERTEX
  8
14
  10
13.195869
  20
1194.574829
  0
VERTEX
  8
14
  10
13.087095
  20
1197.990479
  0
VERTEX
  8
14
  10
13.047130
  20
1201.409912
  0
VERTEX
  8
14
  10
13.084842
  20
1204.833496
  0
VERTEX
  8
14
  10
13.197308
  20
1215.577148
  0
VERTEX
  8
14
  10
13.858095
  20
1225.719238
  0
VERTEX
  8
14
  10
15.047439
  20
1235.287598
  0
VERTEX
  8
14
  10
16.745586
  20
1244.309937
  0
VERTEX
  8
14
  10
18.932779
  20
1252.814209
  0
VERTEX
  8
14
  10
21.589264
  20
1260.828003
  0
VERTEX
  8
14
  10
24.695271
  20
1268.379150
  0
VERTEX
  8
14
  10
28.231047
  20
1275.495361
  0
VERTEX
  8
14
  10
32.176842
  20
1282.204468
  0
VERTEX
  8
14
  10
36.512894
  20
1288.534180
  0
VERTEX
  8
14
  10
41.219433
  20
1294.512329
  0
VERTEX
  8
14
  10
46.276722
  20
1300.166626
  0
VERTEX
  8
14
  10
51.664986
  20
1305.524780
  0
VERTEX
  8
14
  10
57.364468
  20
1310.614624
  0
VERTEX
  8
14
  10
63.355423
  20
1315.463989
  0
VERTEX
  8
14
  10
69.618088
  20
1320.100586
  0
VERTEX
  8
14
  10
76.132706
  20
1324.552124
  0
VERTEX
  8
14
  10
82.879494
  20
1328.846436
  0
VERTEX
  8
14
  10
89.838737
  20
1333.011230
  0
VERTEX
  8
14
  10
96.990639
  20
1337.074219
  0
VERTEX
  8
14
  10
104.315468
  20
1341.063354
  0
VERTEX
  8
14
  10
111.793465
  20
1345.006226
  0
VERTEX
  8
14
  10
119.404861
  20
1348.930786
  0
VERTEX
  8
14
  10
127.129890
  20
1352.864502
  0
VERTEX
  8
14
  10
134.948807
  20
1356.835449
  0
VERTEX
  8
14
  10
142.841858
  20
1360.871216
  0
VERTEX
  8
14
  10
150.789276
  20
1364.999634
  0
VERTEX
  8
14
  10
158.771286
  20
1369.248413
  0
VERTEX
  8
14
  10
166.768173
  20
1373.645386
  0
VERTEX
  8
14
  10
172.199554
  20
1376.201904
  0
VERTEX
  8
14
  10
153.469452
  20
1412.954468
  0
VERTEX
  8
14
  10
148.191620
  20
1410.096680
  0
VERTEX
  8
14
  10
143.189316
  20
1407.702759
  0
VERTEX
  8
14
  10
138.228973
  20
1405.264526
  0
VERTEX
  8
14
  10
133.305008
  20
1402.791260
  0
VERTEX
  8
14
  10
128.411926
  20
1400.292480
  0
VERTEX
  8
14
  10
123.544228
  20
1397.777710
  0
VERTEX
  8
14
  10
118.696465
  20
1395.256348
  0
VERTEX
  8
14
  10
113.862976
  20
1392.737793
  0
VERTEX
  8
14
  10
109.038376
  20
1390.231567
  0
VERTEX
  8
14
  10
104.217110
  20
1387.747070
  0
VERTEX
  8
14
  10
99.393654
  20
1385.293823
  0
VERTEX
  8
14
  10
94.562492
  20
1382.881226
  0
VERTEX
  8
14
  10
89.718132
  20
1380.518677
  0
VERTEX
  8
14
  10
84.855042
  20
1378.215698
  0
VERTEX
  8
14
  10
79.967697
  20
1375.981689
  0
VERTEX
  8
14
  10
75.050621
  20
1373.826172
  0
VERTEX
  8
14
  10
70.098274
  20
1371.758545
  0
VERTEX
  8
14
  10
65.105148
  20
1369.788330
  0
VERTEX
  8
14
  10
60.065723
  20
1367.924927
  0
VERTEX
  8
14
  10
54.974499
  20
1366.177734
  0
VERTEX
  8
14
  10
49.825939
  20
1364.556152
  0
VERTEX
  8
14
  10
44.614559
  20
1363.069824
  0
VERTEX
  8
14
  10
39.334824
  20
1361.728149
  0
VERTEX
  8
14
  10
33.981228
  20
1360.540405
  0
VERTEX
  8
14
  10
28.548258
  20
1359.516235
  0
VERTEX
  8
14
  10
23.030401
  20
1358.665039
  0
VERTEX
  8
14
  10
17.422138
  20
1357.996216
  0
VERTEX
  8
14
  10
11.717954
  20
1357.519287
  0
VERTEX
  8
14
  10
5.912351
  20
1357.243652
  0
VERTEX
  8
14
  10
-0.000207
  20
1357.178833
  0
SEQEND
  0
POINT
  8
2
  10
-0.000207
  20
1357.178833
  0
POINT
  8
2
  10
-148.190582
  20
1410.100708
  0
POINT
  8
2
  10
-153.468262
  20
1412.958740
  0
POINT
  8
2
  10
-172.199402
  20
1376.206543
  0
POINT
  8
2
  10
-166.768143
  20
1373.649902
  0
POINT
  8
2
  10
-13.089475
  20
1204.833862
  0
POINT
  8
2
  10
-16.845173
  20
1150.288940
  0
POINT
  8
2
  10
-16.453064
  20
1144.290405
  0
POINT
  8
2
  10
-0.003201
  20
1144.353149
  0
POINT
  8
2
  10
16.446808
  20
1144.290039
  0
POINT
  8
2
  10
16.839031
  20
1150.288574
  0
POINT
  8
2
  10
13.084842
  20
1204.833496
  0
POINT
  8
2
  10
166.768173
  20
1373.645386
  0
POINT
  8
2
  10
172.199554
  20
1376.201904
  0
POINT
  8
2
  10
153.469452
  20
1412.954468
  0
POINT
  8
2
  10
148.191620
  20
1410.096680
  0
POINT
  8
2
  10
-0.000207
  20
1357.178833
  0
POINT
  8
3
  10
-0.000207
  20
1357.178833
  0
POINT
  8
3
  10
-5.912758
  20
1357.243896
  0
POINT
  8
3
  10
-11.718362
  20
1357.519653
  0
POINT
  8
3
  10
-17.422529
  20
1357.996704
  0
POINT
  8
3
  10
-23.030771
  20
1358.665649
  0
POINT
  8
3
  10
-28.548601
  20
1359.517090
  0
POINT
  8
3
  10
-33.981552
  20
1360.541382
  0
POINT
  8
3
  10
-39.335110
  20
1361.729126
  0
POINT
  8
3
  10
-44.614803
  20
1363.071045
  0
POINT
  8
3
  10
-49.826145
  20
1364.557495
  0
POINT
  8
3
  10
-54.974655
  20
1366.179199
  0
POINT
  8
3
  10
-60.065830
  20
1367.926514
  0
POINT
  8
3
  10
-65.105217
  20
1369.790161
  0
POINT
  8
3
  10
-70.098289
  20
1371.760498
  0
POINT
  8
3
  10
-75.050568
  20
1373.828247
  0
POINT
  8
3
  10
-79.967598
  20
1375.984009
  0
POINT
  8
3
  10
-84.854866
  20
1378.218018
  0
POINT
  8
3
  10
-89.717903
  20
1380.521118
  0
POINT
  8
3
  10
-94.562195
  20
1382.883789
  0
POINT
  8
3
  10
-99.393288
  20
1385.296631
  0
POINT
  8
3
  10
-104.216675
  20
1387.750000
  0
POINT
  8
3
  10
-109.037880
  20
1390.234619
  0
POINT
  8
3
  10
-113.862419
  20
1392.740967
  0
POINT
  8
3
  10
-118.695816
  20
1395.259644
  0
POINT
  8
3
  10
-123.543541
  20
1397.781128
  0
POINT
  8
3
  10
-128.411148
  20
1400.296143
  0
POINT
  8
3
  10
-133.304138
  20
1402.794922
  0
POINT
  8
3
  10
-138.228043
  20
1405.268311
  0
POINT
  8
3
  10
-143.188339
  20
1407.706787
  0
POINT
  8
3
  10
-148.190582
  20
1410.100708
  0
POINT
  8
3
  10
-166.768143
  20
1373.649902
  0
POINT
  8
3
  10
-158.771362
  20
1369.252808
  0
POINT
  8
3
  10
-150.789459
  20
1365.003784
  0
POINT
  8
3
  10
-142.842163
  20
1360.875122
  0
POINT
  8
3
  10
-134.949234
  20
1356.839233
  0
POINT
  8
3
  10
-127.130402
  20
1352.868042
  0
POINT
  8
3
  10
-119.405502
  20
1348.934082
  0
POINT
  8
3
  10
-111.794197
  20
1345.009399
  0
POINT
  8
3
  10
-104.316315
  20
1341.066284
  0
POINT
  8
3
  10
-96.991615
  20
1337.076904
  0
POINT
  8
3
  10
-89.839813
  20
1333.013672
  0
POINT
  8
3
  10
-82.880684
  20
1328.848633
  0
POINT
  8
3
  10
-76.134018
  20
1324.554199
  0
POINT
  8
3
  10
-69.619530
  20
1320.102539
  0
POINT
  8
3
  10
-63.356987
  20
1315.465820
  0
POINT
  8
3
  10
-57.366177
  20
1310.616211
  0
POINT
  8
3
  10
-51.666832
  20
1305.526245
  0
POINT
  8
3
  10
-46.278713
  20
1300.167847
  0
POINT
  8
3
  10
-41.221588
  20
1294.513428
  0
POINT
  8
3
  10
-36.515205
  20
1288.535156
  0
POINT
  8
3
  10
-32.179329
  20
1282.205322
  0
POINT
  8
3
  10
-28.233727
  20
1275.496216
  0
POINT
  8
3
  10
-24.698145
  20
1268.379883
  0
POINT
  8
3
  10
-21.592344
  20
1260.828613
  0
POINT
  8
3
  10
-18.936083
  20
1252.814697
  0
POINT
  8
3
  10
-16.749128
  20
1244.310425
  0
POINT
  8
3
  10
-15.051229
  20
1235.287964
  0
POINT
  8
3
  10
-13.862147
  20
1225.719604
  0
POINT
  8
3
  10
-13.201644
  20
1215.577515
  0
POINT
  8
3
  10
-13.089475
  20
1204.833862
  0
POINT
  8
3
  10
-13.051859
  20
1201.410156
  0
POINT
  8
3
  10
-13.091917
  20
1197.990845
  0
POINT
  8
3
  10
-13.200788
  20
1194.575195
  0
POINT
  8
3
  10
-13.369606
  20
1191.162964
  0
POINT
  8
3
  10
-13.589511
  20
1187.753418
  0
POINT
  8
3
  10
-13.851638
  20
1184.346069
  0
POINT
  8
3
  10
-14.147122
  20
1180.940552
  0
POINT
  8
3
  10
-14.467103
  20
1177.536377
  0
POINT
  8
3
  10
-14.802716
  20
1174.132935
  0
POINT
  8
3
  10
-15.145096
  20
1170.729736
  0
POINT
  8
3
  10
-15.485383
  20
1167.326416
  0
POINT
  8
3
  10
-15.814711
  20
1163.922363
  0
POINT
  8
3
  10
-16.124216
  20
1160.517090
  0
POINT
  8
3
  10
-16.405039
  20
1157.110107
  0
POINT
  8
3
  10
-16.648312
  20
1153.700928
  0
POINT
  8
3
  10
-16.845173
  20
1150.288940
  0
POINT
  8
3
  10
16.839031
  20
1150.288574
  0
POINT
  8
3
  10
16.642262
  20
1153.700439
  0
POINT
  8
3
  10
16.399084
  20
1157.109619
  0
POINT
  8
3
  10
16.118357
  20
1160.516602
  0
POINT
  8
3
  10
15.808945
  20
1163.921875
  0
POINT
  8
3
  10
15.479712
  20
1167.326050
  0
POINT
  8
3
  10
15.139519
  20
1170.729370
  0
POINT
  8
3
  10
14.797232
  20
1174.132568
  0
POINT
  8
3
  10
14.461715
  20
1177.536011
  0
POINT
  8
3
  10
14.141829
  20
1180.940186
  0
POINT
  8
3
  10
13.846437
  20
1184.345703
  0
POINT
  8
3
  10
13.584405
  20
1187.753052
  0
POINT
  8
3
  10
13.364595
  20
1191.162598
  0
POINT
  8
3
  10
13.195869
  20
1194.574829
  0
POINT
  8
3
  10
13.087095
  20
1197.990479
  0
POINT
  8
3
  10
13.047130
  20
1201.409912
  0
POINT
  8
3
  10
13.084842
  20
1204.833496
  0
POINT
  8
3
  10
13.197308
  20
1215.577148
  0
POINT
  8
3
  10
13.858095
  20
1225.719238
  0
POINT
  8
3
  10
15.047439
  20
1235.287598
  0
POINT
  8
3
  10
16.745586
  20
1244.309937
  0
POINT
  8
3
  10
18.932779
  20
1252.814209
  0
POINT
  8
3
  10
21.589264
  20
1260.828003
  0
POINT
  8
3
  10
24.695271
  20
1268.379150
  0
POINT
  8
3
  10
28.231047
  20
1275.495361
  0
POINT
  8
3
  10
32.176842
  20
1282.204468
  0
POINT
  8
3
  10
36.512894
  20
1288.534180
  0
POINT
  8
3
  10
41.219433
  20
1294.512329
  0
POINT
  8
3
  10
46.276722
  20
1300.166626
  0
POINT
  8
3
  10
51.664986
  20
1305.524780
  0
POINT
  8
3
  10
57.364468
  20
1310.614624
  0
POINT
  8
3
  10
63.355423
  20
1315.463989
  0
POINT
  8
3
  10
69.618088
  20
1320.100586
  0
POINT
  8
3
  10
76.132706
  20
1324.552124
  0
POINT
  8
3
  10
82.879494
  20
1328.846436
  0
POINT
  8
3
  10
89.838737
  20
1333.011230
  0
POINT
  8
3
  10
96.990639
  20
1337.074219
  0
POINT
  8
3
  10
104.315468
  20
1341.063354
  0
POINT
  8
3
  10
111.793465
  20
1345.006226
  0
POINT
  8
3
  10
119.404861
  20
1348.930786
  0
POINT
  8
3
  10
127.129890
  20
1352.864502
  0
POINT
  8
3
  10
134.948807
  20
1356.835449
  0
POINT
  8
3
  10
142.841858
  20
1360.871216
  0
POINT
  8
3
  10
150.789276
  20
1364.999634
  0
POINT
  8
3
  10
158.771286
  20
1369.248413
  0
POINT
  8
3
  10
166.768173
  20
1373.645386
  0
POINT
  8
3
  10
148.191620
  20
1410.096680
  0
POINT
  8
3
  10
143.189316
  20
1407.702759
  0
POINT
  8
3
  10
138.228973
  20
1405.264526
  0
POINT
  8
3
  10
133.305008
  20
1402.791260
  0
POINT
  8
3
  10
128.411926
  20
1400.292480
  0
POINT
  8
3
  10
123.544228
  20
1397.777710
  0
POINT
  8
3
  10
118.696465
  20
1395.256348
  0
POINT
  8
3
  10
113.862976
  20
1392.737793
  0
POINT
  8
3
  10
109.038376
  20
1390.231567
  0
POINT
  8
3
  10
104.217110
  20
1387.747070
  0
POINT
  8
3
  10
99.393654
  20
1385.293823
  0
POINT
  8
3
  10
94.562492
  20
1382.881226
  0
POINT
  8
3
  10
89.718132
  20
1380.518677
  0
POINT
  8
3
  10
84.855042
  20
1378.215698
  0
POINT
  8
3
  10
79.967697
  20
1375.981689
  0
POINT
  8
3
  10
75.050621
  20
1373.826172
  0
POINT
  8
3
  10
70.098274
  20
1371.758545
  0
POINT
  8
3
  10
65.105148
  20
1369.788330
  0
POINT
  8
3
  10
60.065723
  20
1367.924927
  0
POINT
  8
3
  10
54.974499
  20
1366.177734
  0
POINT
  8
3
  10
49.825939
  20
1364.556152
  0
POINT
  8
3
  10
44.614559
  20
1363.069824
  0
POINT
  8
3
  10
39.334824
  20
1361.728149
  0
POINT
  8
3
  10
33.981228
  20
1360.540405
  0
POINT
  8
3
  10
28.548258
  20
1359.516235
  0
POINT
  8
3
  10
23.030401
  20
1358.665039
  0
POINT
  8
3
  10
17.422138
  20
1357.996216
  0
POINT
  8
3
  10
11.717954
  20
1357.519287
  0
POINT
  8
3
  10
5.912351
  20
1357.243652
  0
POINT
  8
3
  10
-0.000207
  20
1357.178833
  0
ENDBLK
  0
ENDSEC
  0
SECTION
  2
ENTITIES
  0
INSERT
  8
1
  2
Pattern_1813235_M
  10
0.000000
  20
0.000000
  0
INSERT
  8
1
  2
Pattern_16023304_M
  10
0.000000
  20
0.000000
  0
INSERT
  8
1
  2
Pattern_1813237_M
  10
0.000000
  20
0.000000
  0
TEXT
  8
1
  10
0.000000
  20
0.000000
  40
0.250000
  50
0.000000
  1
STYLE NAME: 1
  7
STANDARD
  0
TEXT
  8
1
  10
0.000000
  20
0.000000
  40
0.250000
  50
0.000000
  1
CREATION DATE: 23-03-2024
  7
STANDARD
  0
TEXT
  8
1
  10
0.000000
  20
0.000000
  40
0.250000
  50
0.000000
  1
CREATION TIME: 19:28
  7
STANDARD
  0
TEXT
  8
1
  10
0.000000
  20
0.000000
  40
0.250000
  50
0.000000
  1
AUTHOR: CLO Virtual Fashion Inc.
  7
STANDARD
  0
TEXT
  8
1
  10
0.000000
  20
0.000000
  40
0.250000
  50
0.000000
  1
PRODUCT: CLO Standalone OnlineAuth 7.3.98
  7
STANDARD
  0
TEXT
  8
1
  10
0.000000
  20
0.000000
  40
0.250000
  50
0.000000
  1
VERSION: 3
  7
STANDARD
  0
TEXT
  8
1
  10
0.000000
  20
0.000000
  40
0.250000
  50
0.000000
  1
SAMPLE SIZE: M
  7
STANDARD
  0
TEXT
  8
1
  10
0.000000
  20
0.000000
  40
0.250000
  50
0.000000
  1
UNITS: METRIC
  7
STANDARD
  0
ENDSEC
  0
EOF
