  0
SECTION
  2
HEADER
  9
$ACADVER
  1
AC1006
  9
$INSBASE
  10
0.000000
  20
0.000000
  30
0.000000
  9
$EXTMIN
  10
0.000000
  20
0.000000
  9
$EXTMAX
  10
1000.000000
  20
1000.000000
  0
ENDSEC
  0
SECTION
  2
BLOCKS
  0
BLOCK
  8
0
  2
Pattern_1813235_M
  70
64
  10
0
  20
0
  0
TEXT
  8
1
  10
0.000000
  20
911.688171
  50
0.000000
  51
0.000000
  71
0.000000
  1
PIECE NAME: Pattern_1813235
  7
STANDARD
  0
TEXT
  8
1
  10
0.000000
  20
906.688171
  50
0.000000
  51
0.000000
  71
0.000000
  1
SIZE: M
  7
STANDARD
  0
TEXT
  8
1
  10
0.000000
  20
896.688171
  50
0.000000
  51
0.000000
  71
0.000000
  1
QUANTITY: 1
  7
STANDARD
  0
POLYLINE
  8
14
  66
1
  70
1
  250
2
  0
VERTEX
  8
14
  10
-141.859253
  20
1056.571289
  0
VERTEX
  8
14
  10
-157.776306
  20
1031.060791
  0
VERTEX
  8
14
  10
-154.072968
  20
1027.745239
  0
VERTEX
  8
14
  10
-150.295624
  20
1024.437256
  0
VERTEX
  8
14
  10
-146.449509
  20
1021.123840
  0
VERTEX
  8
14
  10
-142.539871
  20
1017.792358
  0
VERTEX
  8
14
  10
-138.571960
  20
1014.430054
  0
VERTEX
  8
14
  10
-134.551117
  20
1011.024231
  0
VERTEX
  8
14
  10
-130.482483
  20
1007.562073
  0
VERTEX
  8
14
  10
-126.371399
  20
1004.031006
  0
VERTEX
  8
14
  10
-122.223114
  20
1000.418152
  0
VERTEX
  8
14
  10
-118.042862
  20
996.710815
  0
VERTEX
  8
14
  10
-113.835892
  20
992.896240
  0
VERTEX
  8
14
  10
-109.607544
  20
988.961792
  0
VERTEX
  8
14
  10
-105.362961
  20
984.894653
  0
VERTEX
  8
14
  10
-101.107452
  20
980.682068
  0
VERTEX
  8
14
  10
-96.846329
  20
976.311401
  0
VERTEX
  8
14
  10
-92.584778
  20
971.769836
  0
VERTEX
  8
14
  10
-88.328079
  20
967.044617
  0
VERTEX
  8
14
  10
-84.081497
  20
962.123108
  0
VERTEX
  8
14
  10
-79.850281
  20
956.992554
  0
VERTEX
  8
14
  10
-75.639709
  20
951.640137
  0
VERTEX
  8
14
  10
-71.455032
  20
946.053223
  0
VERTEX
  8
14
  10
-67.301514
  20
940.218994
  0
VERTEX
  8
14
  10
-63.184383
  20
934.124817
  0
VERTEX
  8
14
  10
-59.108932
  20
927.757874
  0
VERTEX
  8
14
  10
-55.080418
  20
921.105469
  0
VERTEX
  8
14
  10
-51.104076
  20
914.154846
  0
VERTEX
  8
14
  10
-47.185184
  20
906.893311
  0
VERTEX
  8
14
  10
-43.329002
  20
899.308044
  0
VERTEX
  8
14
  10
-39.540779
  20
891.386414
  0
VERTEX
  8
14
  10
-37.617794
  20
887.220703
  0
VERTEX
  8
14
  10
-35.763744
  20
882.938904
  0
VERTEX
  8
14
  10
-33.978809
  20
878.552917
  0
VERTEX
  8
14
  10
-32.263191
  20
874.074646
  0
VERTEX
  8
14
  10
-30.617073
  20
869.516052
  0
VERTEX
  8
14
  10
-29.040670
  20
864.888916
  0
VERTEX
  8
14
  10
-27.534149
  20
860.205200
  0
VERTEX
  8
14
  10
-26.097712
  20
855.476807
  0
VERTEX
  8
14
  10
-24.731562
  20
850.715637
  0
VERTEX
  8
14
  10
-23.435881
  20
845.933533
  0
VERTEX
  8
14
  10
-22.210859
  20
841.142395
  0
VERTEX
  8
14
  10
-21.056702
  20
836.354187
  0
VERTEX
  8
14
  10
-19.973589
  20
831.580750
  0
VERTEX
  8
14
  10
-18.961716
  20
826.834045
  0
VERTEX
  8
14
  10
-18.021284
  20
822.125854
  0
VERTEX
  8
14
  10
-17.152477
  20
817.468140
  0
VERTEX
  8
14
  10
-16.355492
  20
812.872742
  0
VERTEX
  8
14
  10
-15.630520
  20
808.351685
  0
VERTEX
  8
14
  10
-14.977755
  20
803.916748
  0
VERTEX
  8
14
  10
-14.397387
  20
799.579834
  0
VERTEX
  8
14
  10
-13.889612
  20
795.352905
  0
VERTEX
  8
14
  10
-13.454624
  20
791.247803
  0
VERTEX
  8
14
  10
-13.092611
  20
787.276428
  0
VERTEX
  8
14
  10
-12.803769
  20
783.450684
  0
VERTEX
  8
14
  10
-12.588291
  20
779.782471
  0
VERTEX
  8
14
  10
-12.446367
  20
776.283691
  0
VERTEX
  8
14
  10
-12.378193
  20
772.966187
  0
VERTEX
  8
14
  10
-12.383961
  20
769.841919
  0
VERTEX
  8
14
  10
-12.463862
  20
766.922791
  0
VERTEX
  8
14
  10
0.000004
  20
766.805054
  0
VERTEX
  8
14
  10
12.463870
  20
766.922791
  0
VERTEX
  8
14
  10
12.383967
  20
769.841919
  0
VERTEX
  8
14
  10
12.378201
  20
772.966187
  0
VERTEX
  8
14
  10
12.446375
  20
776.283691
  0
VERTEX
  8
14
  10
12.588298
  20
779.782471
  0
VERTEX
  8
14
  10
12.803775
  20
783.450684
  0
VERTEX
  8
14
  10
13.092620
  20
787.276428
  0
VERTEX
  8
14
  10
13.454630
  20
791.247803
  0
VERTEX
  8
14
  10
13.889619
  20
795.352905
  0
VERTEX
  8
14
  10
14.397394
  20
799.579834
  0
VERTEX
  8
14
  10
14.977762
  20
803.916748
  0
VERTEX
  8
14
  10
15.630526
  20
808.351685
  0
VERTEX
  8
14
  10
16.355501
  20
812.872742
  0
VERTEX
  8
14
  10
17.152487
  20
817.468079
  0
VERTEX
  8
14
  10
18.021290
  20
822.125854
  0
VERTEX
  8
14
  10
18.961727
  20
826.833984
  0
VERTEX
  8
14
  10
19.973595
  20
831.580750
  0
VERTEX
  8
14
  10
21.056709
  20
836.354187
  0
VERTEX
  8
14
  10
22.210869
  20
841.142395
  0
VERTEX
  8
14
  10
23.435890
  20
845.933533
  0
VERTEX
  8
14
  10
24.731571
  20
850.715637
  0
VERTEX
  8
14
  10
26.097723
  20
855.476807
  0
VERTEX
  8
14
  10
27.534157
  20
860.205200
  0
VERTEX
  8
14
  10
29.040676
  20
864.888916
  0
VERTEX
  8
14
  10
30.617088
  20
869.516052
  0
VERTEX
  8
14
  10
32.263199
  20
874.074646
  0
VERTEX
  8
14
  10
33.978817
  20
878.552917
  0
VERTEX
  8
14
  10
35.763748
  20
882.938904
  0
VERTEX
  8
14
  10
37.617802
  20
887.220703
  0
VERTEX
  8
14
  10
39.540787
  20
891.386414
  0
VERTEX
  8
14
  10
43.329006
  20
899.308044
  0
VERTEX
  8
14
  10
47.185196
  20
906.893311
  0
VERTEX
  8
14
  10
51.104084
  20
914.154846
  0
VERTEX
  8
14
  10
55.080418
  20
921.105469
  0
VERTEX
  8
14
  10
59.108932
  20
927.757874
  0
VERTEX
  8
14
  10
63.184399
  20
934.124817
  0
VERTEX
  8
14
  10
67.301498
  20
940.218994
  0
VERTEX
  8
14
  10
71.455032
  20
946.053223
  0
VERTEX
  8
14
  10
75.639725
  20
951.640137
  0
VERTEX
  8
14
  10
79.850296
  20
956.992554
  0
VERTEX
  8
14
  10
84.081497
  20
962.123108
  0
VERTEX
  8
14
  10
88.328094
  20
967.044617
  0
VERTEX
  8
14
  10
92.584778
  20
971.769836
  0
VERTEX
  8
14
  10
96.846313
  20
976.311401
  0
VERTEX
  8
14
  10
101.107468
  20
980.682068
  0
VERTEX
  8
14
  10
105.362961
  20
984.894653
  0
VERTEX
  8
14
  10
109.607529
  20
988.961792
  0
VERTEX
  8
14
  10
113.835922
  20
992.896240
  0
VERTEX
  8
14
  10
118.042877
  20
996.710815
  0
VERTEX
  8
14
  10
122.223114
  20
1000.418152
  0
VERTEX
  8
14
  10
126.371414
  20
1004.031006
  0
VERTEX
  8
14
  10
130.482498
  20
1007.562134
  0
VERTEX
  8
14
  10
134.551117
  20
1011.024231
  0
VERTEX
  8
14
  10
138.571991
  20
1014.430054
  0
VERTEX
  8
14
  10
142.539871
  20
1017.792358
  0
VERTEX
  8
14
  10
146.449493
  20
1021.123779
  0
VERTEX
  8
14
  10
150.295624
  20
1024.437256
  0
VERTEX
  8
14
  10
154.072968
  20
1027.745239
  0
VERTEX
  8
14
  10
157.776306
  20
1031.060791
  0
VERTEX
  8
14
  10
141.859253
  20
1056.571289
  0
VERTEX
  8
14
  10
137.011597
  20
1052.853760
  0
VERTEX
  8
14
  10
132.106277
  20
1049.259644
  0
VERTEX
  8
14
  10
127.149261
  20
1045.789307
  0
VERTEX
  8
14
  10
122.146652
  20
1042.442505
  0
VERTEX
  8
14
  10
117.104507
  20
1039.219604
  0
VERTEX
  8
14
  10
112.028946
  20
1036.120605
  0
VERTEX
  8
14
  10
106.925934
  20
1033.145508
  0
VERTEX
  8
14
  10
101.801590
  20
1030.294434
  0
VERTEX
  8
14
  10
96.662003
  20
1027.567505
  0
VERTEX
  8
14
  10
91.513199
  20
1024.964722
  0
VERTEX
  8
14
  10
86.361221
  20
1022.486267
  0
VERTEX
  8
14
  10
81.212189
  20
1020.132202
  0
VERTEX
  8
14
  10
76.072113
  20
1017.902588
  0
VERTEX
  8
14
  10
70.947067
  20
1015.797546
  0
VERTEX
  8
14
  10
65.843155
  20
1013.817078
  0
VERTEX
  8
14
  10
60.766415
  20
1011.961304
  0
VERTEX
  8
14
  10
55.722897
  20
1010.230347
  0
VERTEX
  8
14
  10
50.718678
  20
1008.624268
  0
VERTEX
  8
14
  10
45.759819
  20
1007.143188
  0
VERTEX
  8
14
  10
40.852379
  20
1005.787109
  0
VERTEX
  8
14
  10
36.002438
  20
1004.556152
  0
VERTEX
  8
14
  10
31.216038
  20
1003.450378
  0
VERTEX
  8
14
  10
26.499252
  20
1002.469910
  0
VERTEX
  8
14
  10
21.858145
  20
1001.614868
  0
VERTEX
  8
14
  10
17.298786
  20
1000.885254
  0
VERTEX
  8
14
  10
12.827223
  20
1000.281128
  0
VERTEX
  8
14
  10
8.449528
  20
999.802734
  0
VERTEX
  8
14
  10
4.171772
  20
999.449951
  0
VERTEX
  8
14
  10
0.000004
  20
999.223022
  0
VERTEX
  8
14
  10
-4.171762
  20
999.449951
  0
VERTEX
  8
14
  10
-8.449523
  20
999.802734
  0
VERTEX
  8
14
  10
-12.827215
  20
1000.281128
  0
VERTEX
  8
14
  10
-17.298775
  20
1000.885254
  0
VERTEX
  8
14
  10
-21.858137
  20
1001.614868
  0
VERTEX
  8
14
  10
-26.499249
  20
1002.469910
  0
VERTEX
  8
14
  10
-31.216026
  20
1003.450378
  0
VERTEX
  8
14
  10
-36.002422
  20
1004.556152
  0
VERTEX
  8
14
  10
-40.852371
  20
1005.787109
  0
VERTEX
  8
14
  10
-45.759808
  20
1007.143188
  0
VERTEX
  8
14
  10
-50.718666
  20
1008.624268
  0
VERTEX
  8
14
  10
-55.722893
  20
1010.230408
  0
VERTEX
  8
14
  10
-60.766407
  20
1011.961304
  0
VERTEX
  8
14
  10
-65.843155
  20
1013.817078
  0
VERTEX
  8
14
  10
-70.947067
  20
1015.797546
  0
VERTEX
  8
14
  10
-76.072098
  20
1017.902588
  0
VERTEX
  8
14
  10
-81.212173
  20
1020.132202
  0
VERTEX
  8
14
  10
-86.361206
  20
1022.486328
  0
VERTEX
  8
14
  10
-91.513184
  20
1024.964722
  0
VERTEX
  8
14
  10
-96.662003
  20
1027.567505
  0
VERTEX
  8
14
  10
-101.801605
  20
1030.294434
  0
VERTEX
  8
14
  10
-106.925934
  20
1033.145508
  0
VERTEX
  8
14
  10
-112.028931
  20
1036.120605
  0
VERTEX
  8
14
  10
-117.104523
  20
1039.219604
  0
VERTEX
  8
14
  10
-122.146652
  20
1042.442627
  0
VERTEX
  8
14
  10
-127.149261
  20
1045.789307
  0
VERTEX
  8
14
  10
-132.106262
  20
1049.259644
  0
VERTEX
  8
14
  10
-137.011612
  20
1052.853760
  0
SEQEND
  0
POINT
  8
2
  10
-141.859253
  20
1056.571289
  0
POINT
  8
2
  10
-157.776306
  20
1031.060791
  0
POINT
  8
2
  10
-39.540779
  20
891.386414
  0
POINT
  8
2
  10
-12.463862
  20
766.922791
  0
POINT
  8
2
  10
0.000004
  20
766.805054
  0
POINT
  8
2
  10
12.463870
  20
766.922791
  0
POINT
  8
2
  10
39.540787
  20
891.386414
  0
POINT
  8
2
  10
157.776306
  20
1031.060791
  0
POINT
  8
2
  10
141.859253
  20
1056.571289
  0
POINT
  8
2
  10
0.000004
  20
999.223022
  0
POINT
  8
3
  10
-154.072968
  20
1027.745239
  0
POINT
  8
3
  10
-150.295624
  20
1024.437256
  0
POINT
  8
3
  10
-146.449509
  20
1021.123840
  0
POINT
  8
3
  10
-142.539871
  20
1017.792358
  0
POINT
  8
3
  10
-138.571960
  20
1014.430054
  0
POINT
  8
3
  10
-134.551117
  20
1011.024231
  0
POINT
  8
3
  10
-130.482483
  20
1007.562073
  0
POINT
  8
3
  10
-126.371399
  20
1004.031006
  0
POINT
  8
3
  10
-122.223114
  20
1000.418152
  0
POINT
  8
3
  10
-118.042862
  20
996.710815
  0
POINT
  8
3
  10
-113.835892
  20
992.896240
  0
POINT
  8
3
  10
-109.607544
  20
988.961792
  0
POINT
  8
3
  10
-105.362961
  20
984.894653
  0
POINT
  8
3
  10
-101.107452
  20
980.682068
  0
POINT
  8
3
  10
-96.846329
  20
976.311401
  0
POINT
  8
3
  10
-92.584778
  20
971.769836
  0
POINT
  8
3
  10
-88.328079
  20
967.044617
  0
POINT
  8
3
  10
-84.081497
  20
962.123108
  0
POINT
  8
3
  10
-79.850281
  20
956.992554
  0
POINT
  8
3
  10
-75.639709
  20
951.640137
  0
POINT
  8
3
  10
-71.455032
  20
946.053223
  0
POINT
  8
3
  10
-67.301514
  20
940.218994
  0
POINT
  8
3
  10
-63.184383
  20
934.124817
  0
POINT
  8
3
  10
-59.108932
  20
927.757874
  0
POINT
  8
3
  10
-55.080418
  20
921.105469
  0
POINT
  8
3
  10
-51.104076
  20
914.154846
  0
POINT
  8
3
  10
-47.185184
  20
906.893311
  0
POINT
  8
3
  10
-43.329002
  20
899.308044
  0
POINT
  8
3
  10
-37.617794
  20
887.220703
  0
POINT
  8
3
  10
-35.763744
  20
882.938904
  0
POINT
  8
3
  10
-33.978809
  20
878.552917
  0
POINT
  8
3
  10
-32.263191
  20
874.074646
  0
POINT
  8
3
  10
-30.617073
  20
869.516052
  0
POINT
  8
3
  10
-29.040670
  20
864.888916
  0
POINT
  8
3
  10
-27.534149
  20
860.205200
  0
POINT
  8
3
  10
-26.097712
  20
855.476807
  0
POINT
  8
3
  10
-24.731562
  20
850.715637
  0
POINT
  8
3
  10
-23.435881
  20
845.933533
  0
POINT
  8
3
  10
-22.210859
  20
841.142395
  0
POINT
  8
3
  10
-21.056702
  20
836.354187
  0
POINT
  8
3
  10
-19.973589
  20
831.580750
  0
POINT
  8
3
  10
-18.961716
  20
826.834045
  0
POINT
  8
3
  10
-18.021284
  20
822.125854
  0
POINT
  8
3
  10
-17.152477
  20
817.468140
  0
POINT
  8
3
  10
-16.355492
  20
812.872742
  0
POINT
  8
3
  10
-15.630520
  20
808.351685
  0
POINT
  8
3
  10
-14.977755
  20
803.916748
  0
POINT
  8
3
  10
-14.397387
  20
799.579834
  0
POINT
  8
3
  10
-13.889612
  20
795.352905
  0
POINT
  8
3
  10
-13.454624
  20
791.247803
  0
POINT
  8
3
  10
-13.092611
  20
787.276428
  0
POINT
  8
3
  10
-12.803769
  20
783.450684
  0
POINT
  8
3
  10
-12.588291
  20
779.782471
  0
POINT
  8
3
  10
-12.446367
  20
776.283691
  0
POINT
  8
3
  10
-12.378193
  20
772.966187
  0
POINT
  8
3
  10
-12.383961
  20
769.841919
  0
POINT
  8
3
  10
12.383967
  20
769.841919
  0
POINT
  8
3
  10
12.378201
  20
772.966187
  0
POINT
  8
3
  10
12.446375
  20
776.283691
  0
POINT
  8
3
  10
12.588298
  20
779.782471
  0
POINT
  8
3
  10
12.803775
  20
783.450684
  0
POINT
  8
3
  10
13.092620
  20
787.276428
  0
POINT
  8
3
  10
13.454630
  20
791.247803
  0
POINT
  8
3
  10
13.889619
  20
795.352905
  0
POINT
  8
3
  10
14.397394
  20
799.579834
  0
POINT
  8
3
  10
14.977762
  20
803.916748
  0
POINT
  8
3
  10
15.630526
  20
808.351685
  0
POINT
  8
3
  10
16.355501
  20
812.872742
  0
POINT
  8
3
  10
17.152487
  20
817.468079
  0
POINT
  8
3
  10
18.021290
  20
822.125854
  0
POINT
  8
3
  10
18.961727
  20
826.833984
  0
POINT
  8
3
  10
19.973595
  20
831.580750
  0
POINT
  8
3
  10
21.056709
  20
836.354187
  0
POINT
  8
3
  10
22.210869
  20
841.142395
  0
POINT
  8
3
  10
23.435890
  20
845.933533
  0
POINT
  8
3
  10
24.731571
  20
850.715637
  0
POINT
  8
3
  10
26.097723
  20
855.476807
  0
POINT
  8
3
  10
27.534157
  20
860.205200
  0
POINT
  8
3
  10
29.040676
  20
864.888916
  0
POINT
  8
3
  10
30.617088
  20
869.516052
  0
POINT
  8
3
  10
32.263199
  20
874.074646
  0
POINT
  8
3
  10
33.978817
  20
878.552917
  0
POINT
  8
3
  10
35.763748
  20
882.938904
  0
POINT
  8
3
  10
37.617802
  20
887.220703
  0
POINT
  8
3
  10
43.329006
  20
899.308044
  0
POINT
  8
3
  10
47.185196
  20
906.893311
  0
POINT
  8
3
  10
51.104084
  20
914.154846
  0
POINT
  8
3
  10
55.080418
  20
921.105469
  0
POINT
  8
3
  10
59.108932
  20
927.757874
  0
POINT
  8
3
  10
63.184399
  20
934.124817
  0
POINT
  8
3
  10
67.301498
  20
940.218994
  0
POINT
  8
3
  10
71.455032
  20
946.053223
  0
POINT
  8
3
  10
75.639725
  20
951.640137
  0
POINT
  8
3
  10
79.850296
  20
956.992554
  0
POINT
  8
3
  10
84.081497
  20
962.123108
  0
POINT
  8
3
  10
88.328094
  20
967.044617
  0
POINT
  8
3
  10
92.584778
  20
971.769836
  0
POINT
  8
3
  10
96.846313
  20
976.311401
  0
POINT
  8
3
  10
101.107468
  20
980.682068
  0
POINT
  8
3
  10
105.362961
  20
984.894653
  0
POINT
  8
3
  10
109.607529
  20
988.961792
  0
POINT
  8
3
  10
113.835922
  20
992.896240
  0
POINT
  8
3
  10
118.042877
  20
996.710815
  0
POINT
  8
3
  10
122.223114
  20
1000.418152
  0
POINT
  8
3
  10
126.371414
  20
1004.031006
  0
POINT
  8
3
  10
130.482498
  20
1007.562134
  0
POINT
  8
3
  10
134.551117
  20
1011.024231
  0
POINT
  8
3
  10
138.571991
  20
1014.430054
  0
POINT
  8
3
  10
142.539871
  20
1017.792358
  0
POINT
  8
3
  10
146.449493
  20
1021.123779
  0
POINT
  8
3
  10
150.295624
  20
1024.437256
  0
POINT
  8
3
  10
154.072968
  20
1027.745239
  0
POINT
  8
3
  10
137.011597
  20
1052.853760
  0
POINT
  8
3
  10
132.106277
  20
1049.259644
  0
POINT
  8
3
  10
127.149261
  20
1045.789307
  0
POINT
  8
3
  10
122.146652
  20
1042.442505
  0
POINT
  8
3
  10
117.104507
  20
1039.219604
  0
POINT
  8
3
  10
112.028946
  20
1036.120605
  0
POINT
  8
3
  10
106.925934
  20
1033.145508
  0
POINT
  8
3
  10
101.801590
  20
1030.294434
  0
POINT
  8
3
  10
96.662003
  20
1027.567505
  0
POINT
  8
3
  10
91.513199
  20
1024.964722
  0
POINT
  8
3
  10
86.361221
  20
1022.486267
  0
POINT
  8
3
  10
81.212189
  20
1020.132202
  0
POINT
  8
3
  10
76.072113
  20
1017.902588
  0
POINT
  8
3
  10
70.947067
  20
1015.797546
  0
POINT
  8
3
  10
65.843155
  20
1013.817078
  0
POINT
  8
3
  10
60.766415
  20
1011.961304
  0
POINT
  8
3
  10
55.722897
  20
1010.230347
  0
POINT
  8
3
  10
50.718678
  20
1008.624268
  0
POINT
  8
3
  10
45.759819
  20
1007.143188
  0
POINT
  8
3
  10
40.852379
  20
1005.787109
  0
POINT
  8
3
  10
36.002438
  20
1004.556152
  0
POINT
  8
3
  10
31.216038
  20
1003.450378
  0
POINT
  8
3
  10
26.499252
  20
1002.469910
  0
POINT
  8
3
  10
21.858145
  20
1001.614868
  0
POINT
  8
3
  10
17.298786
  20
1000.885254
  0
POINT
  8
3
  10
12.827223
  20
1000.281128
  0
POINT
  8
3
  10
8.449528
  20
999.802734
  0
POINT
  8
3
  10
4.171772
  20
999.449951
  0
POINT
  8
3
  10
-4.171762
  20
999.449951
  0
POINT
  8
3
  10
-8.449523
  20
999.802734
  0
POINT
  8
3
  10
-12.827215
  20
1000.281128
  0
POINT
  8
3
  10
-17.298775
  20
1000.885254
  0
POINT
  8
3
  10
-21.858137
  20
1001.614868
  0
POINT
  8
3
  10
-26.499249
  20
1002.469910
  0
POINT
  8
3
  10
-31.216026
  20
1003.450378
  0
POINT
  8
3
  10
-36.002422
  20
1004.556152
  0
POINT
  8
3
  10
-40.852371
  20
1005.787109
  0
POINT
  8
3
  10
-45.759808
  20
1007.143188
  0
POINT
  8
3
  10
-50.718666
  20
1008.624268
  0
POINT
  8
3
  10
-55.722893
  20
1010.230408
  0
POINT
  8
3
  10
-60.766407
  20
1011.961304
  0
POINT
  8
3
  10
-65.843155
  20
1013.817078
  0
POINT
  8
3
  10
-70.947067
  20
1015.797546
  0
POINT
  8
3
  10
-76.072098
  20
1017.902588
  0
POINT
  8
3
  10
-81.212173
  20
1020.132202
  0
POINT
  8
3
  10
-86.361206
  20
1022.486328
  0
POINT
  8
3
  10
-91.513184
  20
1024.964722
  0
POINT
  8
3
  10
-96.662003
  20
1027.567505
  0
POINT
  8
3
  10
-101.801605
  20
1030.294434
  0
POINT
  8
3
  10
-106.925934
  20
1033.145508
  0
POINT
  8
3
  10
-112.028931
  20
1036.120605
  0
POINT
  8
3
  10
-117.104523
  20
1039.219604
  0
POINT
  8
3
  10
-122.146652
  20
1042.442627
  0
POINT
  8
3
  10
-127.149261
  20
1045.789307
  0
POINT
  8
3
  10
-132.106262
  20
1049.259644
  0
POINT
  8
3
  10
-137.011612
  20
1052.853760
  0
LINE
  8
7
  10
0.000000
  20
821.688171
  11
0.000000
  21
1001.688171
  0
POLYLINE
  8
8
  66
1
  70
0
  250
0
  0
VERTEX
  8
8
  10
0.000004
  20
1021.257141
  0
VERTEX
  8
8
  10
-4.999996
  20
1021.257080
  0
VERTEX
  8
8
  10
-4.999996
  20
1026.257080
  0
SEQEND
  0
POINT
  8
2
  10
0.000004
  20
1021.257141
  0
POINT
  8
2
  10
-4.999996
  20
1021.257080
  0
POINT
  8
2
  10
-4.999996
  20
1026.257080
  0
POLYLINE
  8
8
  66
1
  70
0
  250
0
  0
VERTEX
  8
8
  10
0.000004
  20
1021.257141
  0
VERTEX
  8
8
  10
-4.999996
  20
1021.257080
  0
VERTEX
  8
8
  10
-4.999996
  20
1026.257080
  0
SEQEND
  0
POINT
  8
2
  10
0.000004
  20
1021.257141
  0
POINT
  8
2
  10
-4.999996
  20
1021.257080
  0
POINT
  8
2
  10
-4.999996
  20
1026.257080
  0
POLYLINE
  8
8
  66
1
  70
0
  250
0
  0
VERTEX
  8
8
  10
0.000004
  20
1021.257141
  0
VERTEX
  8
8
  10
5.000004
  20
1021.257080
  0
VERTEX
  8
8
  10
5.000004
  20
1026.257080
  0
SEQEND
  0
POINT
  8
2
  10
0.000004
  20
1021.257141
  0
POINT
  8
2
  10
5.000004
  20
1021.257080
  0
POINT
  8
2
  10
5.000004
  20
1026.257080
  0
POLYLINE
  8
8
  66
1
  70
0
  250
0
  0
VERTEX
  8
8
  10
0.000004
  20
1021.257141
  0
VERTEX
  8
8
  10
5.000004
  20
1021.257080
  0
VERTEX
  8
8
  10
5.000004
  20
1026.257080
  0
SEQEND
  0
POINT
  8
2
  10
0.000004
  20
1021.257141
  0
POINT
  8
2
  10
5.000004
  20
1021.257080
  0
POINT
  8
2
  10
5.000004
  20
1026.257080
  0
POLYLINE
  8
1
  66
1
  70
1
  250
0
  0
VERTEX
  8
1
  10
-146.357162
  20
1058.807861
  0
VERTEX
  8
1
  10
-162.479050
  20
1032.969116
  0
VERTEX
  8
1
  10
-157.776306
  20
1031.060791
  0
VERTEX
  8
1
  10
-154.072968
  20
1027.745239
  0
VERTEX
  8
1
  10
-150.295624
  20
1024.437256
  0
VERTEX
  8
1
  10
-146.449509
  20
1021.123840
  0
VERTEX
  8
1
  10
-142.539871
  20
1017.792358
  0
VERTEX
  8
1
  10
-138.571960
  20
1014.430054
  0
VERTEX
  8
1
  10
-134.551117
  20
1011.024231
  0
VERTEX
  8
1
  10
-130.482483
  20
1007.562073
  0
VERTEX
  8
1
  10
-126.371399
  20
1004.031006
  0
VERTEX
  8
1
  10
-122.223114
  20
1000.418152
  0
VERTEX
  8
1
  10
-118.042862
  20
996.710815
  0
VERTEX
  8
1
  10
-113.835892
  20
992.896240
  0
VERTEX
  8
1
  10
-109.607544
  20
988.961792
  0
VERTEX
  8
1
  10
-105.362961
  20
984.894653
  0
VERTEX
  8
1
  10
-101.107452
  20
980.682068
  0
VERTEX
  8
1
  10
-96.846329
  20
976.311401
  0
VERTEX
  8
1
  10
-92.584778
  20
971.769836
  0
VERTEX
  8
1
  10
-88.328079
  20
967.044617
  0
VERTEX
  8
1
  10
-84.081497
  20
962.123108
  0
VERTEX
  8
1
  10
-79.850281
  20
956.992554
  0
VERTEX
  8
1
  10
-75.639709
  20
951.640137
  0
VERTEX
  8
1
  10
-71.455032
  20
946.053223
  0
VERTEX
  8
1
  10
-67.301514
  20
940.218994
  0
VERTEX
  8
1
  10
-63.184383
  20
934.124817
  0
VERTEX
  8
1
  10
-59.108932
  20
927.757874
  0
VERTEX
  8
1
  10
-55.080418
  20
921.105469
  0
VERTEX
  8
1
  10
-51.104076
  20
914.154846
  0
VERTEX
  8
1
  10
-47.185184
  20
906.893311
  0
VERTEX
  8
1
  10
-43.329002
  20
899.308044
  0
VERTEX
  8
1
  10
-39.540779
  20
891.386414
  0
VERTEX
  8
1
  10
-37.617794
  20
887.220703
  0
VERTEX
  8
1
  10
-35.763744
  20
882.938904
  0
VERTEX
  8
1
  10
-33.978809
  20
878.552917
  0
VERTEX
  8
1
  10
-32.263191
  20
874.074646
  0
VERTEX
  8
1
  10
-30.617073
  20
869.516052
  0
VERTEX
  8
1
  10
-29.040670
  20
864.888916
  0
VERTEX
  8
1
  10
-27.534149
  20
860.205200
  0
VERTEX
  8
1
  10
-26.097712
  20
855.476807
  0
VERTEX
  8
1
  10
-24.731562
  20
850.715637
  0
VERTEX
  8
1
  10
-23.435881
  20
845.933533
  0
VERTEX
  8
1
  10
-22.210859
  20
841.142395
  0
VERTEX
  8
1
  10
-21.056702
  20
836.354187
  0
VERTEX
  8
1
  10
-19.973589
  20
831.580750
  0
VERTEX
  8
1
  10
-18.961716
  20
826.834045
  0
VERTEX
  8
1
  10
-18.021284
  20
822.125854
  0
VERTEX
  8
1
  10
-17.152477
  20
817.468140
  0
VERTEX
  8
1
  10
-16.355492
  20
812.872742
  0
VERTEX
  8
1
  10
-15.630520
  20
808.351685
  0
VERTEX
  8
1
  10
-14.977755
  20
803.916748
  0
VERTEX
  8
1
  10
-14.397387
  20
799.579834
  0
VERTEX
  8
1
  10
-13.889612
  20
795.352905
  0
VERTEX
  8
1
  10
-13.454624
  20
791.247803
  0
VERTEX
  8
1
  10
-13.092611
  20
787.276428
  0
VERTEX
  8
1
  10
-12.803769
  20
783.450684
  0
VERTEX
  8
1
  10
-12.588291
  20
779.782471
  0
VERTEX
  8
1
  10
-12.446367
  20
776.283691
  0
VERTEX
  8
1
  10
-12.378193
  20
772.966187
  0
VERTEX
  8
1
  10
-12.383961
  20
769.841919
  0
VERTEX
  8
1
  10
-12.463862
  20
766.922791
  0
VERTEX
  8
1
  10
-12.421491
  20
761.922180
  0
VERTEX
  8
1
  10
0.000003
  20
761.804810
  0
VERTEX
  8
1
  10
12.421496
  20
761.922180
  0
VERTEX
  8
1
  10
12.463870
  20
766.922791
  0
VERTEX
  8
1
  10
12.383967
  20
769.841919
  0
VERTEX
  8
1
  10
12.378201
  20
772.966187
  0
VERTEX
  8
1
  10
12.446375
  20
776.283691
  0
VERTEX
  8
1
  10
12.588298
  20
779.782471
  0
VERTEX
  8
1
  10
12.803775
  20
783.450684
  0
VERTEX
  8
1
  10
13.092620
  20
787.276428
  0
VERTEX
  8
1
  10
13.454630
  20
791.247803
  0
VERTEX
  8
1
  10
13.889619
  20
795.352905
  0
VERTEX
  8
1
  10
14.397394
  20
799.579834
  0
VERTEX
  8
1
  10
14.977762
  20
803.916748
  0
VERTEX
  8
1
  10
15.630526
  20
808.351685
  0
VERTEX
  8
1
  10
16.355501
  20
812.872742
  0
VERTEX
  8
1
  10
17.152487
  20
817.468079
  0
VERTEX
  8
1
  10
18.021290
  20
822.125854
  0
VERTEX
  8
1
  10
18.961727
  20
826.833984
  0
VERTEX
  8
1
  10
19.973595
  20
831.580750
  0
VERTEX
  8
1
  10
21.056709
  20
836.354187
  0
VERTEX
  8
1
  10
22.210869
  20
841.142395
  0
VERTEX
  8
1
  10
23.435890
  20
845.933533
  0
VERTEX
  8
1
  10
24.731571
  20
850.715637
  0
VERTEX
  8
1
  10
26.097723
  20
855.476807
  0
VERTEX
  8
1
  10
27.534157
  20
860.205200
  0
VERTEX
  8
1
  10
29.040676
  20
864.888916
  0
VERTEX
  8
1
  10
30.617088
  20
869.516052
  0
VERTEX
  8
1
  10
32.263199
  20
874.074646
  0
VERTEX
  8
1
  10
33.978817
  20
878.552917
  0
VERTEX
  8
1
  10
35.763748
  20
882.938904
  0
VERTEX
  8
1
  10
37.617802
  20
887.220703
  0
VERTEX
  8
1
  10
39.540787
  20
891.386414
  0
VERTEX
  8
1
  10
43.329006
  20
899.308044
  0
VERTEX
  8
1
  10
47.185196
  20
906.893311
  0
VERTEX
  8
1
  10
51.104084
  20
914.154846
  0
VERTEX
  8
1
  10
55.080418
  20
921.105469
  0
VERTEX
  8
1
  10
59.108932
  20
927.757874
  0
VERTEX
  8
1
  10
63.184399
  20
934.124817
  0
VERTEX
  8
1
  10
67.301498
  20
940.218994
  0
VERTEX
  8
1
  10
71.455032
  20
946.053223
  0
VERTEX
  8
1
  10
75.639725
  20
951.640137
  0
VERTEX
  8
1
  10
79.850296
  20
956.992554
  0
VERTEX
  8
1
  10
84.081497
  20
962.123108
  0
VERTEX
  8
1
  10
88.328094
  20
967.044617
  0
VERTEX
  8
1
  10
92.584778
  20
971.769836
  0
VERTEX
  8
1
  10
96.846313
  20
976.311401
  0
VERTEX
  8
1
  10
101.107468
  20
980.682068
  0
VERTEX
  8
1
  10
105.362961
  20
984.894653
  0
VERTEX
  8
1
  10
109.607529
  20
988.961792
  0
VERTEX
  8
1
  10
113.835922
  20
992.896240
  0
VERTEX
  8
1
  10
118.042877
  20
996.710815
  0
VERTEX
  8
1
  10
122.223114
  20
1000.418152
  0
VERTEX
  8
1
  10
126.371414
  20
1004.031006
  0
VERTEX
  8
1
  10
130.482498
  20
1007.562134
  0
VERTEX
  8
1
  10
134.551117
  20
1011.024231
  0
VERTEX
  8
1
  10
138.571991
  20
1014.430054
  0
VERTEX
  8
1
  10
142.539871
  20
1017.792358
  0
VERTEX
  8
1
  10
146.449493
  20
1021.123779
  0
VERTEX
  8
1
  10
150.295624
  20
1024.437256
  0
VERTEX
  8
1
  10
154.072968
  20
1027.745239
  0
VERTEX
  8
1
  10
157.776306
  20
1031.060791
  0
VERTEX
  8
1
  10
162.479050
  20
1032.969116
  0
VERTEX
  8
1
  10
146.357162
  20
1058.807861
  0
VERTEX
  8
1
  10
141.859253
  20
1056.571289
  0
VERTEX
  8
1
  10
137.011597
  20
1052.853760
  0
VERTEX
  8
1
  10
132.106277
  20
1049.259644
  0
VERTEX
  8
1
  10
127.149261
  20
1045.789307
  0
VERTEX
  8
1
  10
122.146652
  20
1042.442505
  0
VERTEX
  8
1
  10
117.104507
  20
1039.219604
  0
VERTEX
  8
1
  10
112.028946
  20
1036.120605
  0
VERTEX
  8
1
  10
106.925934
  20
1033.145508
  0
VERTEX
  8
1
  10
101.801590
  20
1030.294434
  0
VERTEX
  8
1
  10
96.662003
  20
1027.567505
  0
VERTEX
  8
1
  10
91.513199
  20
1024.964722
  0
VERTEX
  8
1
  10
86.361221
  20
1022.486267
  0
VERTEX
  8
1
  10
81.212189
  20
1020.132202
  0
VERTEX
  8
1
  10
76.072113
  20
1017.902588
  0
VERTEX
  8
1
  10
70.947067
  20
1015.797546
  0
VERTEX
  8
1
  10
65.843155
  20
1013.817078
  0
VERTEX
  8
1
  10
60.766415
  20
1011.961304
  0
VERTEX
  8
1
  10
55.722897
  20
1010.230347
  0
VERTEX
  8
1
  10
50.718678
  20
1008.624268
  0
VERTEX
  8
1
  10
45.759819
  20
1007.143188
  0
VERTEX
  8
1
  10
40.852379
  20
1005.787109
  0
VERTEX
  8
1
  10
36.002438
  20
1004.556152
  0
VERTEX
  8
1
  10
31.216038
  20
1003.450378
  0
VERTEX
  8
1
  10
26.499252
  20
1002.469910
  0
VERTEX
  8
1
  10
21.858145
  20
1001.614868
  0
VERTEX
  8
1
  10
17.298786
  20
1000.885254
  0
VERTEX
  8
1
  10
12.827223
  20
1000.281128
  0
VERTEX
  8
1
  10
8.449528
  20
999.802734
  0
VERTEX
  8
1
  10
4.171772
  20
999.449951
  0
VERTEX
  8
1
  10
0.000004
  20
999.223022
  0
VERTEX
  8
1
  10
-4.171762
  20
999.449951
  0
VERTEX
  8
1
  10
-8.449523
  20
999.802734
  0
VERTEX
  8
1
  10
-12.827215
  20
1000.281128
  0
VERTEX
  8
1
  10
-17.298775
  20
1000.885254
  0
VERTEX
  8
1
  10
-21.858137
  20
1001.614868
  0
VERTEX
  8
1
  10
-26.499249
  20
1002.469910
  0
VERTEX
  8
1
  10
-31.216026
  20
1003.450378
  0
VERTEX
  8
1
  10
-36.002422
  20
1004.556152
  0
VERTEX
  8
1
  10
-40.852371
  20
1005.787109
  0
VERTEX
  8
1
  10
-45.759808
  20
1007.143188
  0
VERTEX
  8
1
  10
-50.718666
  20
1008.624268
  0
VERTEX
  8
1
  10
-55.722893
  20
1010.230408
  0
VERTEX
  8
1
  10
-60.766407
  20
1011.961304
  0
VERTEX
  8
1
  10
-65.843155
  20
1013.817078
  0
VERTEX
  8
1
  10
-70.947067
  20
1015.797546
  0
VERTEX
  8
1
  10
-76.072098
  20
1017.902588
  0
VERTEX
  8
1
  10
-81.212173
  20
1020.132202
  0
VERTEX
  8
1
  10
-86.361206
  20
1022.486328
  0
VERTEX
  8
1
  10
-91.513184
  20
1024.964722
  0
VERTEX
  8
1
  10
-96.662003
  20
1027.567505
  0
VERTEX
  8
1
  10
-101.801605
  20
1030.294434
  0
VERTEX
  8
1
  10
-106.925934
  20
1033.145508
  0
VERTEX
  8
1
  10
-112.028931
  20
1036.120605
  0
VERTEX
  8
1
  10
-117.104523
  20
1039.219604
  0
VERTEX
  8
1
  10
-122.146652
  20
1042.442627
  0
VERTEX
  8
1
  10
-127.149261
  20
1045.789307
  0
VERTEX
  8
1
  10
-132.106262
  20
1049.259644
  0
VERTEX
  8
1
  10
-137.011612
  20
1052.853760
  0
VERTEX
  8
1
  10
-141.859253
  20
1056.571289
  0
SEQEND
  0
POINT
  8
2
  10
-146.357162
  20
1058.807861
  0
POINT
  8
2
  10
-162.479050
  20
1032.969116
  0
POINT
  8
2
  10
-157.776306
  20
1031.060791
  0
POINT
  8
2
  10
-39.540779
  20
891.386414
  0
POINT
  8
2
  10
-12.463862
  20
766.922791
  0
POINT
  8
2
  10
-12.421491
  20
761.922180
  0
POINT
  8
2
  10
0.000003
  20
761.804810
  0
POINT
  8
2
  10
12.421496
  20
761.922180
  0
POINT
  8
2
  10
12.463870
  20
766.922791
  0
POINT
  8
2
  10
39.540787
  20
891.386414
  0
POINT
  8
2
  10
157.776306
  20
1031.060791
  0
POINT
  8
2
  10
162.479050
  20
1032.969116
  0
POINT
  8
2
  10
146.357162
  20
1058.807861
  0
POINT
  8
2
  10
141.859253
  20
1056.571289
  0
POINT
  8
2
  10
0.000004
  20
999.223022
  0
POINT
  8
2
  10
-141.859253
  20
1056.571289
  0
POINT
  8
3
  10
-157.776306
  20
1031.060791
  0
POINT
  8
3
  10
-154.072968
  20
1027.745239
  0
POINT
  8
3
  10
-150.295624
  20
1024.437256
  0
POINT
  8
3
  10
-146.449509
  20
1021.123840
  0
POINT
  8
3
  10
-142.539871
  20
1017.792358
  0
POINT
  8
3
  10
-138.571960
  20
1014.430054
  0
POINT
  8
3
  10
-134.551117
  20
1011.024231
  0
POINT
  8
3
  10
-130.482483
  20
1007.562073
  0
POINT
  8
3
  10
-126.371399
  20
1004.031006
  0
POINT
  8
3
  10
-122.223114
  20
1000.418152
  0
POINT
  8
3
  10
-118.042862
  20
996.710815
  0
POINT
  8
3
  10
-113.835892
  20
992.896240
  0
POINT
  8
3
  10
-109.607544
  20
988.961792
  0
POINT
  8
3
  10
-105.362961
  20
984.894653
  0
POINT
  8
3
  10
-101.107452
  20
980.682068
  0
POINT
  8
3
  10
-96.846329
  20
976.311401
  0
POINT
  8
3
  10
-92.584778
  20
971.769836
  0
POINT
  8
3
  10
-88.328079
  20
967.044617
  0
POINT
  8
3
  10
-84.081497
  20
962.123108
  0
POINT
  8
3
  10
-79.850281
  20
956.992554
  0
POINT
  8
3
  10
-75.639709
  20
951.640137
  0
POINT
  8
3
  10
-71.455032
  20
946.053223
  0
POINT
  8
3
  10
-67.301514
  20
940.218994
  0
POINT
  8
3
  10
-63.184383
  20
934.124817
  0
POINT
  8
3
  10
-59.108932
  20
927.757874
  0
POINT
  8
3
  10
-55.080418
  20
921.105469
  0
POINT
  8
3
  10
-51.104076
  20
914.154846
  0
POINT
  8
3
  10
-47.185184
  20
906.893311
  0
POINT
  8
3
  10
-43.329002
  20
899.308044
  0
POINT
  8
3
  10
-39.540779
  20
891.386414
  0
POINT
  8
3
  10
-37.617794
  20
887.220703
  0
POINT
  8
3
  10
-35.763744
  20
882.938904
  0
POINT
  8
3
  10
-33.978809
  20
878.552917
  0
POINT
  8
3
  10
-32.263191
  20
874.074646
  0
POINT
  8
3
  10
-30.617073
  20
869.516052
  0
POINT
  8
3
  10
-29.040670
  20
864.888916
  0
POINT
  8
3
  10
-27.534149
  20
860.205200
  0
POINT
  8
3
  10
-26.097712
  20
855.476807
  0
POINT
  8
3
  10
-24.731562
  20
850.715637
  0
POINT
  8
3
  10
-23.435881
  20
845.933533
  0
POINT
  8
3
  10
-22.210859
  20
841.142395
  0
POINT
  8
3
  10
-21.056702
  20
836.354187
  0
POINT
  8
3
  10
-19.973589
  20
831.580750
  0
POINT
  8
3
  10
-18.961716
  20
826.834045
  0
POINT
  8
3
  10
-18.021284
  20
822.125854
  0
POINT
  8
3
  10
-17.152477
  20
817.468140
  0
POINT
  8
3
  10
-16.355492
  20
812.872742
  0
POINT
  8
3
  10
-15.630520
  20
808.351685
  0
POINT
  8
3
  10
-14.977755
  20
803.916748
  0
POINT
  8
3
  10
-14.397387
  20
799.579834
  0
POINT
  8
3
  10
-13.889612
  20
795.352905
  0
POINT
  8
3
  10
-13.454624
  20
791.247803
  0
POINT
  8
3
  10
-13.092611
  20
787.276428
  0
POINT
  8
3
  10
-12.803769
  20
783.450684
  0
POINT
  8
3
  10
-12.588291
  20
779.782471
  0
POINT
  8
3
  10
-12.446367
  20
776.283691
  0
POINT
  8
3
  10
-12.378193
  20
772.966187
  0
POINT
  8
3
  10
-12.383961
  20
769.841919
  0
POINT
  8
3
  10
-12.463862
  20
766.922791
  0
POINT
  8
3
  10
12.463870
  20
766.922791
  0
POINT
  8
3
  10
12.383967
  20
769.841919
  0
POINT
  8
3
  10
12.378201
  20
772.966187
  0
POINT
  8
3
  10
12.446375
  20
776.283691
  0
POINT
  8
3
  10
12.588298
  20
779.782471
  0
POINT
  8
3
  10
12.803775
  20
783.450684
  0
POINT
  8
3
  10
13.092620
  20
787.276428
  0
POINT
  8
3
  10
13.454630
  20
791.247803
  0
POINT
  8
3
  10
13.889619
  20
795.352905
  0
POINT
  8
3
  10
14.397394
  20
799.579834
  0
POINT
  8
3
  10
14.977762
  20
803.916748
  0
POINT
  8
3
  10
15.630526
  20
808.351685
  0
POINT
  8
3
  10
16.355501
  20
812.872742
  0
POINT
  8
3
  10
17.152487
  20
817.468079
  0
POINT
  8
3
  10
18.021290
  20
822.125854
  0
POINT
  8
3
  10
18.961727
  20
826.833984
  0
POINT
  8
3
  10
19.973595
  20
831.580750
  0
POINT
  8
3
  10
21.056709
  20
836.354187
  0
POINT
  8
3
  10
22.210869
  20
841.142395
  0
POINT
  8
3
  10
23.435890
  20
845.933533
  0
POINT
  8
3
  10
24.731571
  20
850.715637
  0
POINT
  8
3
  10
26.097723
  20
855.476807
  0
POINT
  8
3
  10
27.534157
  20
860.205200
  0
POINT
  8
3
  10
29.040676
  20
864.888916
  0
POINT
  8
3
  10
30.617088
  20
869.516052
  0
POINT
  8
3
  10
32.263199
  20
874.074646
  0
POINT
  8
3
  10
33.978817
  20
878.552917
  0
POINT
  8
3
  10
35.763748
  20
882.938904
  0
POINT
  8
3
  10
37.617802
  20
887.220703
  0
POINT
  8
3
  10
39.540787
  20
891.386414
  0
POINT
  8
3
  10
43.329006
  20
899.308044
  0
POINT
  8
3
  10
47.185196
  20
906.893311
  0
POINT
  8
3
  10
51.104084
  20
914.154846
  0
POINT
  8
3
  10
55.080418
  20
921.105469
  0
POINT
  8
3
  10
59.108932
  20
927.757874
  0
POINT
  8
3
  10
63.184399
  20
934.124817
  0
POINT
  8
3
  10
67.301498
  20
940.218994
  0
POINT
  8
3
  10
71.455032
  20
946.053223
  0
POINT
  8
3
  10
75.639725
  20
951.640137
  0
POINT
  8
3
  10
79.850296
  20
956.992554
  0
POINT
  8
3
  10
84.081497
  20
962.123108
  0
POINT
  8
3
  10
88.328094
  20
967.044617
  0
POINT
  8
3
  10
92.584778
  20
971.769836
  0
POINT
  8
3
  10
96.846313
  20
976.311401
  0
POINT
  8
3
  10
101.107468
  20
980.682068
  0
POINT
  8
3
  10
105.362961
  20
984.894653
  0
POINT
  8
3
  10
109.607529
  20
988.961792
  0
POINT
  8
3
  10
113.835922
  20
992.896240
  0
POINT
  8
3
  10
118.042877
  20
996.710815
  0
POINT
  8
3
  10
122.223114
  20
1000.418152
  0
POINT
  8
3
  10
126.371414
  20
1004.031006
  0
POINT
  8
3
  10
130.482498
  20
1007.562134
  0
POINT
  8
3
  10
134.551117
  20
1011.024231
  0
POINT
  8
3
  10
138.571991
  20
1014.430054
  0
POINT
  8
3
  10
142.539871
  20
1017.792358
  0
POINT
  8
3
  10
146.449493
  20
1021.123779
  0
POINT
  8
3
  10
150.295624
  20
1024.437256
  0
POINT
  8
3
  10
154.072968
  20
1027.745239
  0
POINT
  8
3
  10
157.776306
  20
1031.060791
  0
POINT
  8
3
  10
141.859253
  20
1056.571289
  0
POINT
  8
3
  10
137.011597
  20
1052.853760
  0
POINT
  8
3
  10
132.106277
  20
1049.259644
  0
POINT
  8
3
  10
127.149261
  20
1045.789307
  0
POINT
  8
3
  10
122.146652
  20
1042.442505
  0
POINT
  8
3
  10
117.104507
  20
1039.219604
  0
POINT
  8
3
  10
112.028946
  20
1036.120605
  0
POINT
  8
3
  10
106.925934
  20
1033.145508
  0
POINT
  8
3
  10
101.801590
  20
1030.294434
  0
POINT
  8
3
  10
96.662003
  20
1027.567505
  0
POINT
  8
3
  10
91.513199
  20
1024.964722
  0
POINT
  8
3
  10
86.361221
  20
1022.486267
  0
POINT
  8
3
  10
81.212189
  20
1020.132202
  0
POINT
  8
3
  10
76.072113
  20
1017.902588
  0
POINT
  8
3
  10
70.947067
  20
1015.797546
  0
POINT
  8
3
  10
65.843155
  20
1013.817078
  0
POINT
  8
3
  10
60.766415
  20
1011.961304
  0
POINT
  8
3
  10
55.722897
  20
1010.230347
  0
POINT
  8
3
  10
50.718678
  20
1008.624268
  0
POINT
  8
3
  10
45.759819
  20
1007.143188
  0
POINT
  8
3
  10
40.852379
  20
1005.787109
  0
POINT
  8
3
  10
36.002438
  20
1004.556152
  0
POINT
  8
3
  10
31.216038
  20
1003.450378
  0
POINT
  8
3
  10
26.499252
  20
1002.469910
  0
POINT
  8
3
  10
21.858145
  20
1001.614868
  0
POINT
  8
3
  10
17.298786
  20
1000.885254
  0
POINT
  8
3
  10
12.827223
  20
1000.281128
  0
POINT
  8
3
  10
8.449528
  20
999.802734
  0
POINT
  8
3
  10
4.171772
  20
999.449951
  0
POINT
  8
3
  10
0.000004
  20
999.223022
  0
POINT
  8
3
  10
-4.171762
  20
999.449951
  0
POINT
  8
3
  10
-8.449523
  20
999.802734
  0
POINT
  8
3
  10
-12.827215
  20
1000.281128
  0
POINT
  8
3
  10
-17.298775
  20
1000.885254
  0
POINT
  8
3
  10
-21.858137
  20
1001.614868
  0
POINT
  8
3
  10
-26.499249
  20
1002.469910
  0
POINT
  8
3
  10
-31.216026
  20
1003.450378
  0
POINT
  8
3
  10
-36.002422
  20
1004.556152
  0
POINT
  8
3
  10
-40.852371
  20
1005.787109
  0
POINT
  8
3
  10
-45.759808
  20
1007.143188
  0
POINT
  8
3
  10
-50.718666
  20
1008.624268
  0
POINT
  8
3
  10
-55.722893
  20
1010.230408
  0
POINT
  8
3
  10
-60.766407
  20
1011.961304
  0
POINT
  8
3
  10
-65.843155
  20
1013.817078
  0
POINT
  8
3
  10
-70.947067
  20
1015.797546
  0
POINT
  8
3
  10
-76.072098
  20
1017.902588
  0
POINT
  8
3
  10
-81.212173
  20
1020.132202
  0
POINT
  8
3
  10
-86.361206
  20
1022.486328
  0
POINT
  8
3
  10
-91.513184
  20
1024.964722
  0
POINT
  8
3
  10
-96.662003
  20
1027.567505
  0
POINT
  8
3
  10
-101.801605
  20
1030.294434
  0
POINT
  8
3
  10
-106.925934
  20
1033.145508
  0
POINT
  8
3
  10
-112.028931
  20
1036.120605
  0
POINT
  8
3
  10
-117.104523
  20
1039.219604
  0
POINT
  8
3
  10
-122.146652
  20
1042.442627
  0
POINT
  8
3
  10
-127.149261
  20
1045.789307
  0
POINT
  8
3
  10
-132.106262
  20
1049.259644
  0
POINT
  8
3
  10
-137.011612
  20
1052.853760
  0
POINT
  8
3
  10
-141.859253
  20
1056.571289
  0
ENDBLK
  0
BLOCK
  8
0
  2
Pattern_16023304_M
  70
64
  10
0
  20
0
  0
TEXT
  8
1
  10
157.776306
  20
829.095703
  50
0.000000
  51
0.000000
  71
0.000000
  1
PIECE NAME: Pattern_16023304
  7
STANDARD
  0
TEXT
  8
1
  10
157.776306
  20
824.095703
  50
0.000000
  51
0.000000
  71
0.000000
  1
SIZE: M
  7
STANDARD
  0
TEXT
  8
1
  10
157.776306
  20
814.095703
  50
0.000000
  51
0.000000
  71
0.000000
  1
QUANTITY: 1
  7
STANDARD
  0
POLYLINE
  8
14
  66
1
  70
1
  250
2
  0
VERTEX
  8
14
  10
157.776306
  20
891.386414
  0
VERTEX
  8
14
  10
119.127335
  20
891.386414
  0
VERTEX
  8
14
  10
119.319366
  20
890.829407
  0
VERTEX
  8
14
  10
119.686661
  20
889.952637
  0
VERTEX
  8
14
  10
120.215576
  20
888.762085
  0
VERTEX
  8
14
  10
120.892418
  20
887.263550
  0
VERTEX
  8
14
  10
121.703545
  20
885.462952
  0
VERTEX
  8
14
  10
122.635284
  20
883.366150
  0
VERTEX
  8
14
  10
123.673996
  20
880.979065
  0
VERTEX
  8
14
  10
124.806000
  20
878.307556
  0
VERTEX
  8
14
  10
126.017632
  20
875.357544
  0
VERTEX
  8
14
  10
127.295242
  20
872.134827
  0
VERTEX
  8
14
  10
128.625168
  20
868.645325
  0
VERTEX
  8
14
  10
129.993744
  20
864.894958
  0
VERTEX
  8
14
  10
131.387314
  20
860.889587
  0
VERTEX
  8
14
  10
132.792221
  20
856.635071
  0
VERTEX
  8
14
  10
134.194794
  20
852.137390
  0
VERTEX
  8
14
  10
135.581360
  20
847.402283
  0
VERTEX
  8
14
  10
136.938293
  20
842.435669
  0
VERTEX
  8
14
  10
138.251892
  20
837.243530
  0
VERTEX
  8
14
  10
139.508514
  20
831.831604
  0
VERTEX
  8
14
  10
140.694519
  20
826.205933
  0
VERTEX
  8
14
  10
141.796204
  20
820.372253
  0
VERTEX
  8
14
  10
142.799942
  20
814.336548
  0
VERTEX
  8
14
  10
143.692047
  20
808.104614
  0
VERTEX
  8
14
  10
144.458878
  20
801.682373
  0
VERTEX
  8
14
  10
145.086761
  20
795.075806
  0
VERTEX
  8
14
  10
145.562042
  20
788.290649
  0
VERTEX
  8
14
  10
145.871048
  20
781.332825
  0
VERTEX
  8
14
  10
146.000137
  20
774.208252
  0
VERTEX
  8
14
  10
145.935638
  20
766.922791
  0
VERTEX
  8
14
  10
157.776306
  20
766.805054
  0
VERTEX
  8
14
  10
169.616974
  20
766.922791
  0
VERTEX
  8
14
  10
169.552475
  20
774.208252
  0
VERTEX
  8
14
  10
169.681564
  20
781.332825
  0
VERTEX
  8
14
  10
169.990570
  20
788.290649
  0
VERTEX
  8
14
  10
170.465851
  20
795.075806
  0
VERTEX
  8
14
  10
171.093735
  20
801.682434
  0
VERTEX
  8
14
  10
171.860565
  20
808.104614
  0
VERTEX
  8
14
  10
172.752670
  20
814.336487
  0
VERTEX
  8
14
  10
173.756409
  20
820.372253
  0
VERTEX
  8
14
  10
174.858093
  20
826.205933
  0
VERTEX
  8
14
  10
176.044098
  20
831.831604
  0
VERTEX
  8
14
  10
177.300720
  20
837.243530
  0
VERTEX
  8
14
  10
178.614334
  20
842.435669
  0
VERTEX
  8
14
  10
179.971252
  20
847.402283
  0
VERTEX
  8
14
  10
181.357819
  20
852.137329
  0
VERTEX
  8
14
  10
182.760391
  20
856.635071
  0
VERTEX
  8
14
  10
184.165283
  20
860.889587
  0
VERTEX
  8
14
  10
185.558868
  20
864.894958
  0
VERTEX
  8
14
  10
186.927444
  20
868.645325
  0
VERTEX
  8
14
  10
188.257370
  20
872.134827
  0
VERTEX
  8
14
  10
189.534973
  20
875.357544
  0
VERTEX
  8
14
  10
190.746613
  20
878.307556
  0
VERTEX
  8
14
  10
191.878616
  20
880.979065
  0
VERTEX
  8
14
  10
192.917328
  20
883.366150
  0
VERTEX
  8
14
  10
193.849075
  20
885.462952
  0
VERTEX
  8
14
  10
194.660202
  20
887.263550
  0
VERTEX
  8
14
  10
195.337036
  20
888.762085
  0
VERTEX
  8
14
  10
195.865952
  20
889.952637
  0
VERTEX
  8
14
  10
196.233246
  20
890.829407
  0
VERTEX
  8
14
  10
196.425278
  20
891.386414
  0
SEQEND
  0
POINT
  8
2
  10
157.776306
  20
891.386414
  0
POINT
  8
2
  10
119.127335
  20
891.386414
  0
POINT
  8
2
  10
145.935638
  20
766.922791
  0
POINT
  8
2
  10
157.776306
  20
766.805054
  0
POINT
  8
2
  10
169.616974
  20
766.922791
  0
POINT
  8
2
  10
196.425278
  20
891.386414
  0
POINT
  8
3
  10
119.319366
  20
890.829407
  0
POINT
  8
3
  10
119.686661
  20
889.952637
  0
POINT
  8
3
  10
120.215576
  20
888.762085
  0
POINT
  8
3
  10
120.892418
  20
887.263550
  0
POINT
  8
3
  10
121.703545
  20
885.462952
  0
POINT
  8
3
  10
122.635284
  20
883.366150
  0
POINT
  8
3
  10
123.673996
  20
880.979065
  0
POINT
  8
3
  10
124.806000
  20
878.307556
  0
POINT
  8
3
  10
126.017632
  20
875.357544
  0
POINT
  8
3
  10
127.295242
  20
872.134827
  0
POINT
  8
3
  10
128.625168
  20
868.645325
  0
POINT
  8
3
  10
129.993744
  20
864.894958
  0
POINT
  8
3
  10
131.387314
  20
860.889587
  0
POINT
  8
3
  10
132.792221
  20
856.635071
  0
POINT
  8
3
  10
134.194794
  20
852.137390
  0
POINT
  8
3
  10
135.581360
  20
847.402283
  0
POINT
  8
3
  10
136.938293
  20
842.435669
  0
POINT
  8
3
  10
138.251892
  20
837.243530
  0
POINT
  8
3
  10
139.508514
  20
831.831604
  0
POINT
  8
3
  10
140.694519
  20
826.205933
  0
POINT
  8
3
  10
141.796204
  20
820.372253
  0
POINT
  8
3
  10
142.799942
  20
814.336548
  0
POINT
  8
3
  10
143.692047
  20
808.104614
  0
POINT
  8
3
  10
144.458878
  20
801.682373
  0
POINT
  8
3
  10
145.086761
  20
795.075806
  0
POINT
  8
3
  10
145.562042
  20
788.290649
  0
POINT
  8
3
  10
145.871048
  20
781.332825
  0
POINT
  8
3
  10
146.000137
  20
774.208252
  0
POINT
  8
3
  10
169.552475
  20
774.208252
  0
POINT
  8
3
  10
169.681564
  20
781.332825
  0
POINT
  8
3
  10
169.990570
  20
788.290649
  0
POINT
  8
3
  10
170.465851
  20
795.075806
  0
POINT
  8
3
  10
171.093735
  20
801.682434
  0
POINT
  8
3
  10
171.860565
  20
808.104614
  0
POINT
  8
3
  10
172.752670
  20
814.336487
  0
POINT
  8
3
  10
173.756409
  20
820.372253
  0
POINT
  8
3
  10
174.858093
  20
826.205933
  0
POINT
  8
3
  10
176.044098
  20
831.831604
  0
POINT
  8
3
  10
177.300720
  20
837.243530
  0
POINT
  8
3
  10
178.614334
  20
842.435669
  0
POINT
  8
3
  10
179.971252
  20
847.402283
  0
POINT
  8
3
  10
181.357819
  20
852.137329
  0
POINT
  8
3
  10
182.760391
  20
856.635071
  0
POINT
  8
3
  10
184.165283
  20
860.889587
  0
POINT
  8
3
  10
185.558868
  20
864.894958
  0
POINT
  8
3
  10
186.927444
  20
868.645325
  0
POINT
  8
3
  10
188.257370
  20
872.134827
  0
POINT
  8
3
  10
189.534973
  20
875.357544
  0
POINT
  8
3
  10
190.746613
  20
878.307556
  0
POINT
  8
3
  10
191.878616
  20
880.979065
  0
POINT
  8
3
  10
192.917328
  20
883.366150
  0
POINT
  8
3
  10
193.849075
  20
885.462952
  0
POINT
  8
3
  10
194.660202
  20
887.263550
  0
POINT
  8
3
  10
195.337036
  20
888.762085
  0
POINT
  8
3
  10
195.865952
  20
889.952637
  0
POINT
  8
3
  10
196.233246
  20
890.829407
  0
LINE
  8
7
  10
157.776306
  20
739.095703
  11
157.776306
  21
919.095703
  0
POLYLINE
  8
1
  66
1
  70
1
  250
0
  0
VERTEX
  8
1
  10
157.776306
  20
891.386414
  0
VERTEX
  8
1
  10
119.127335
  20
891.386414
  0
VERTEX
  8
1
  10
119.319366
  20
890.829407
  0
VERTEX
  8
1
  10
119.686661
  20
889.952637
  0
VERTEX
  8
1
  10
120.215576
  20
888.762085
  0
VERTEX
  8
1
  10
120.892418
  20
887.263550
  0
VERTEX
  8
1
  10
121.703545
  20
885.462952
  0
VERTEX
  8
1
  10
122.635284
  20
883.366150
  0
VERTEX
  8
1
  10
123.673996
  20
880.979065
  0
VERTEX
  8
1
  10
124.806000
  20
878.307556
  0
VERTEX
  8
1
  10
126.017632
  20
875.357544
  0
VERTEX
  8
1
  10
127.295242
  20
872.134827
  0
VERTEX
  8
1
  10
128.625168
  20
868.645325
  0
VERTEX
  8
1
  10
129.993744
  20
864.894958
  0
VERTEX
  8
1
  10
131.387314
  20
860.889587
  0
VERTEX
  8
1
  10
132.792221
  20
856.635071
  0
VERTEX
  8
1
  10
134.194794
  20
852.137390
  0
VERTEX
  8
1
  10
135.581360
  20
847.402283
  0
VERTEX
  8
1
  10
136.938293
  20
842.435669
  0
VERTEX
  8
1
  10
138.251892
  20
837.243530
  0
VERTEX
  8
1
  10
139.508514
  20
831.831604
  0
VERTEX
  8
1
  10
140.694519
  20
826.205933
  0
VERTEX
  8
1
  10
141.796204
  20
820.372253
  0
VERTEX
  8
1
  10
142.799942
  20
814.336548
  0
VERTEX
  8
1
  10
143.692047
  20
808.104614
  0
VERTEX
  8
1
  10
144.458878
  20
801.682373
  0
VERTEX
  8
1
  10
145.086761
  20
795.075806
  0
VERTEX
  8
1
  10
145.562042
  20
788.290649
  0
VERTEX
  8
1
  10
145.871048
  20
781.332825
  0
VERTEX
  8
1
  10
146.000137
  20
774.208252
  0
VERTEX
  8
1
  10
145.935638
  20
766.922791
  0
VERTEX
  8
1
  10
145.880463
  20
761.923096
  0
VERTEX
  8
1
  10
157.776306
  20
761.804810
  0
VERTEX
  8
1
  10
169.672150
  20
761.923096
  0
VERTEX
  8
1
  10
169.616974
  20
766.922791
  0
VERTEX
  8
1
  10
169.552475
  20
774.208252
  0
VERTEX
  8
1
  10
169.681564
  20
781.332825
  0
VERTEX
  8
1
  10
169.990570
  20
788.290649
  0
VERTEX
  8
1
  10
170.465851
  20
795.075806
  0
VERTEX
  8
1
  10
171.093735
  20
801.682434
  0
VERTEX
  8
1
  10
171.860565
  20
808.104614
  0
VERTEX
  8
1
  10
172.752670
  20
814.336487
  0
VERTEX
  8
1
  10
173.756409
  20
820.372253
  0
VERTEX
  8
1
  10
174.858093
  20
826.205933
  0
VERTEX
  8
1
  10
176.044098
  20
831.831604
  0
VERTEX
  8
1
  10
177.300720
  20
837.243530
  0
VERTEX
  8
1
  10
178.614334
  20
842.435669
  0
VERTEX
  8
1
  10
179.971252
  20
847.402283
  0
VERTEX
  8
1
  10
181.357819
  20
852.137329
  0
VERTEX
  8
1
  10
182.760391
  20
856.635071
  0
VERTEX
  8
1
  10
184.165283
  20
860.889587
  0
VERTEX
  8
1
  10
185.558868
  20
864.894958
  0
VERTEX
  8
1
  10
186.927444
  20
868.645325
  0
VERTEX
  8
1
  10
188.257370
  20
872.134827
  0
VERTEX
  8
1
  10
189.534973
  20
875.357544
  0
VERTEX
  8
1
  10
190.746613
  20
878.307556
  0
VERTEX
  8
1
  10
191.878616
  20
880.979065
  0
VERTEX
  8
1
  10
192.917328
  20
883.366150
  0
VERTEX
  8
1
  10
193.849075
  20
885.462952
  0
VERTEX
  8
1
  10
194.660202
  20
887.263550
  0
VERTEX
  8
1
  10
195.337036
  20
888.762085
  0
VERTEX
  8
1
  10
195.865952
  20
889.952637
  0
VERTEX
  8
1
  10
196.233246
  20
890.829407
  0
VERTEX
  8
1
  10
196.425278
  20
891.386414
  0
VERTEX
  8
1
  10
157.776306
  20
891.386414
  0
SEQEND
  0
POINT
  8
2
  10
157.776306
  20
891.386414
  0
POINT
  8
2
  10
119.127335
  20
891.386414
  0
POINT
  8
2
  10
145.935638
  20
766.922791
  0
POINT
  8
2
  10
145.880463
  20
761.923096
  0
POINT
  8
2
  10
157.776306
  20
761.804810
  0
POINT
  8
2
  10
169.672150
  20
761.923096
  0
POINT
  8
2
  10
169.616974
  20
766.922791
  0
POINT
  8
2
  10
196.425278
  20
891.386414
  0
POINT
  8
2
  10
157.776306
  20
891.386414
  0
POINT
  8
3
  10
119.127335
  20
891.386414
  0
POINT
  8
3
  10
119.319366
  20
890.829407
  0
POINT
  8
3
  10
119.686661
  20
889.952637
  0
POINT
  8
3
  10
120.215576
  20
888.762085
  0
POINT
  8
3
  10
120.892418
  20
887.263550
  0
POINT
  8
3
  10
121.703545
  20
885.462952
  0
POINT
  8
3
  10
122.635284
  20
883.366150
  0
POINT
  8
3
  10
123.673996
  20
880.979065
  0
POINT
  8
3
  10
124.806000
  20
878.307556
  0
POINT
  8
3
  10
126.017632
  20
875.357544
  0
POINT
  8
3
  10
127.295242
  20
872.134827
  0
POINT
  8
3
  10
128.625168
  20
868.645325
  0
POINT
  8
3
  10
129.993744
  20
864.894958
  0
POINT
  8
3
  10
131.387314
  20
860.889587
  0
POINT
  8
3
  10
132.792221
  20
856.635071
  0
POINT
  8
3
  10
134.194794
  20
852.137390
  0
POINT
  8
3
  10
135.581360
  20
847.402283
  0
POINT
  8
3
  10
136.938293
  20
842.435669
  0
POINT
  8
3
  10
138.251892
  20
837.243530
  0
POINT
  8
3
  10
139.508514
  20
831.831604
  0
POINT
  8
3
  10
140.694519
  20
826.205933
  0
POINT
  8
3
  10
141.796204
  20
820.372253
  0
POINT
  8
3
  10
142.799942
  20
814.336548
  0
POINT
  8
3
  10
143.692047
  20
808.104614
  0
POINT
  8
3
  10
144.458878
  20
801.682373
  0
POINT
  8
3
  10
145.086761
  20
795.075806
  0
POINT
  8
3
  10
145.562042
  20
788.290649
  0
POINT
  8
3
  10
145.871048
  20
781.332825
  0
POINT
  8
3
  10
146.000137
  20
774.208252
  0
POINT
  8
3
  10
145.935638
  20
766.922791
  0
POINT
  8
3
  10
169.616974
  20
766.922791
  0
POINT
  8
3
  10
169.552475
  20
774.208252
  0
POINT
  8
3
  10
169.681564
  20
781.332825
  0
POINT
  8
3
  10
169.990570
  20
788.290649
  0
POINT
  8
3
  10
170.465851
  20
795.075806
  0
POINT
  8
3
  10
171.093735
  20
801.682434
  0
POINT
  8
3
  10
171.860565
  20
808.104614
  0
POINT
  8
3
  10
172.752670
  20
814.336487
  0
POINT
  8
3
  10
173.756409
  20
820.372253
  0
POINT
  8
3
  10
174.858093
  20
826.205933
  0
POINT
  8
3
  10
176.044098
  20
831.831604
  0
POINT
  8
3
  10
177.300720
  20
837.243530
  0
POINT
  8
3
  10
178.614334
  20
842.435669
  0
POINT
  8
3
  10
179.971252
  20
847.402283
  0
POINT
  8
3
  10
181.357819
  20
852.137329
  0
POINT
  8
3
  10
182.760391
  20
856.635071
  0
POINT
  8
3
  10
184.165283
  20
860.889587
  0
POINT
  8
3
  10
185.558868
  20
864.894958
  0
POINT
  8
3
  10
186.927444
  20
868.645325
  0
POINT
  8
3
  10
188.257370
  20
872.134827
  0
POINT
  8
3
  10
189.534973
  20
875.357544
  0
POINT
  8
3
  10
190.746613
  20
878.307556
  0
POINT
  8
3
  10
191.878616
  20
880.979065
  0
POINT
  8
3
  10
192.917328
  20
883.366150
  0
POINT
  8
3
  10
193.849075
  20
885.462952
  0
POINT
  8
3
  10
194.660202
  20
887.263550
  0
POINT
  8
3
  10
195.337036
  20
888.762085
  0
POINT
  8
3
  10
195.865952
  20
889.952637
  0
POINT
  8
3
  10
196.233246
  20
890.829407
  0
POINT
  8
3
  10
196.425278
  20
891.386414
  0
ENDBLK
  0
BLOCK
  8
0
  2
Pattern_1813237_M
  70
64
  10
0
  20
0
  0
TEXT
  8
1
  10
333.944763
  20
934.430298
  50
0.000000
  51
0.000000
  71
0.000000
  1
PIECE NAME: Pattern_1813237
  7
STANDARD
  0
TEXT
  8
1
  10
333.944763
  20
929.430298
  50
0.000000
  51
0.000000
  71
0.000000
  1
SIZE: M
  7
STANDARD
  0
TEXT
  8
1
  10
333.944763
  20
919.430298
  50
0.000000
  51
0.000000
  71
0.000000
  1
QUANTITY: 1
  7
STANDARD
  0
POLYLINE
  8
14
  66
1
  70
1
  250
2
  0
VERTEX
  8
14
  10
333.944763
  20
1000.008423
  0
VERTEX
  8
14
  10
330.741272
  20
999.814453
  0
VERTEX
  8
14
  10
327.395996
  20
999.834229
  0
VERTEX
  8
14
  10
323.911255
  20
1000.060913
  0
VERTEX
  8
14
  10
320.289490
  20
1000.487915
  0
VERTEX
  8
14
  10
316.532990
  20
1001.108337
  0
VERTEX
  8
14
  10
312.644104
  20
1001.915649
  0
VERTEX
  8
14
  10
308.625244
  20
1002.902954
  0
VERTEX
  8
14
  10
304.478699
  20
1004.063660
  0
VERTEX
  8
14
  10
300.206879
  20
1005.390991
  0
VERTEX
  8
14
  10
295.812103
  20
1006.878174
  0
VERTEX
  8
14
  10
291.296753
  20
1008.518555
  0
VERTEX
  8
14
  10
286.663147
  20
1010.305420
  0
VERTEX
  8
14
  10
281.913696
  20
1012.231934
  0
VERTEX
  8
14
  10
277.050720
  20
1014.291443
  0
VERTEX
  8
14
  10
272.076599
  20
1016.477295
  0
VERTEX
  8
14
  10
266.993652
  20
1018.782593
  0
VERTEX
  8
14
  10
261.804230
  20
1021.200806
  0
VERTEX
  8
14
  10
256.510742
  20
1023.725098
  0
VERTEX
  8
14
  10
251.115494
  20
1026.348755
  0
VERTEX
  8
14
  10
245.620865
  20
1029.065063
  0
VERTEX
  8
14
  10
240.029205
  20
1031.867310
  0
VERTEX
  8
14
  10
234.342880
  20
1034.748657
  0
VERTEX
  8
14
  10
228.564224
  20
1037.702637
  0
VERTEX
  8
14
  10
222.695602
  20
1040.722290
  0
VERTEX
  8
14
  10
216.739380
  20
1043.800903
  0
VERTEX
  8
14
  10
210.697906
  20
1046.931885
  0
VERTEX
  8
14
  10
204.573532
  20
1050.108398
  0
VERTEX
  8
14
  10
198.368622
  20
1053.323853
  0
VERTEX
  8
14
  10
192.085510
  20
1056.571289
  0
VERTEX
  8
14
  10
176.168457
  20
1031.060791
  0
VERTEX
  8
14
  10
181.239777
  20
1028.293457
  0
VERTEX
  8
14
  10
186.484543
  20
1025.491455
  0
VERTEX
  8
14
  10
191.883316
  20
1022.638672
  0
VERTEX
  8
14
  10
197.416595
  20
1019.719116
  0
VERTEX
  8
14
  10
203.064957
  20
1016.716919
  0
VERTEX
  8
14
  10
208.808823
  20
1013.615967
  0
VERTEX
  8
14
  10
214.628860
  20
1010.400391
  0
VERTEX
  8
14
  10
220.505508
  20
1007.054138
  0
VERTEX
  8
14
  10
226.419312
  20
1003.561340
  0
VERTEX
  8
14
  10
232.350815
  20
999.905884
  0
VERTEX
  8
14
  10
238.280548
  20
996.071960
  0
VERTEX
  8
14
  10
244.188995
  20
992.043579
  0
VERTEX
  8
14
  10
250.056778
  20
987.804626
  0
VERTEX
  8
14
  10
255.864365
  20
983.339233
  0
VERTEX
  8
14
  10
261.592255
  20
978.631470
  0
VERTEX
  8
14
  10
267.221039
  20
973.665283
  0
VERTEX
  8
14
  10
272.731201
  20
968.424744
  0
VERTEX
  8
14
  10
278.103302
  20
962.893860
  0
VERTEX
  8
14
  10
283.317871
  20
957.056702
  0
VERTEX
  8
14
  10
288.355408
  20
950.897217
  0
VERTEX
  8
14
  10
293.196472
  20
944.399536
  0
VERTEX
  8
14
  10
297.821564
  20
937.547607
  0
VERTEX
  8
14
  10
302.211212
  20
930.325500
  0
VERTEX
  8
14
  10
306.346008
  20
922.717224
  0
VERTEX
  8
14
  10
310.206390
  20
914.706848
  0
VERTEX
  8
14
  10
313.772949
  20
906.278381
  0
VERTEX
  8
14
  10
317.026184
  20
897.415833
  0
VERTEX
  8
14
  10
319.946655
  20
888.103271
  0
VERTEX
  8
14
  10
322.514862
  20
878.324646
  0
VERTEX
  8
14
  10
322.899017
  20
876.564209
  0
VERTEX
  8
14
  10
323.227295
  20
874.750610
  0
VERTEX
  8
14
  10
323.501831
  20
872.885620
  0
VERTEX
  8
14
  10
323.724762
  20
870.971130
  0
VERTEX
  8
14
  10
323.898163
  20
869.008850
  0
VERTEX
  8
14
  10
324.024200
  20
867.000671
  0
VERTEX
  8
14
  10
324.104980
  20
864.948364
  0
VERTEX
  8
14
  10
324.142609
  20
862.853760
  0
VERTEX
  8
14
  10
324.139221
  20
860.718567
  0
VERTEX
  8
14
  10
324.096954
  20
858.544739
  0
VERTEX
  8
14
  10
324.017883
  20
856.333923
  0
VERTEX
  8
14
  10
323.904175
  20
854.088074
  0
VERTEX
  8
14
  10
323.757935
  20
851.808899
  0
VERTEX
  8
14
  10
323.581268
  20
849.498291
  0
VERTEX
  8
14
  10
323.376312
  20
847.157959
  0
VERTEX
  8
14
  10
323.145172
  20
844.789795
  0
VERTEX
  8
14
  10
322.889984
  20
842.395569
  0
VERTEX
  8
14
  10
322.612885
  20
839.977051
  0
VERTEX
  8
14
  10
322.315979
  20
837.536072
  0
VERTEX
  8
14
  10
322.001373
  20
835.074524
  0
VERTEX
  8
14
  10
321.671204
  20
832.594055
  0
VERTEX
  8
14
  10
321.327576
  20
830.096619
  0
VERTEX
  8
14
  10
320.972626
  20
827.583923
  0
VERTEX
  8
14
  10
320.608459
  20
825.057861
  0
VERTEX
  8
14
  10
320.237213
  20
822.520142
  0
VERTEX
  8
14
  10
319.861023
  20
819.972656
  0
VERTEX
  8
14
  10
319.481995
  20
817.417114
  0
VERTEX
  8
14
  10
319.102203
  20
814.855469
  0
VERTEX
  8
14
  10
318.723846
  20
812.289368
  0
VERTEX
  8
14
  10
333.944763
  20
812.320435
  0
VERTEX
  8
14
  10
349.165680
  20
812.289368
  0
VERTEX
  8
14
  10
348.787323
  20
814.855469
  0
VERTEX
  8
14
  10
348.407532
  20
817.417114
  0
VERTEX
  8
14
  10
348.028503
  20
819.972656
  0
VERTEX
  8
14
  10
347.652313
  20
822.520142
  0
VERTEX
  8
14
  10
347.281067
  20
825.057861
  0
VERTEX
  8
14
  10
346.916901
  20
827.583923
  0
VERTEX
  8
14
  10
346.561951
  20
830.096619
  0
VERTEX
  8
14
  10
346.218323
  20
832.594055
  0
VERTEX
  8
14
  10
345.888153
  20
835.074524
  0
VERTEX
  8
14
  10
345.573547
  20
837.536072
  0
VERTEX
  8
14
  10
345.276642
  20
839.977051
  0
VERTEX
  8
14
  10
344.999542
  20
842.395569
  0
VERTEX
  8
14
  10
344.744354
  20
844.789795
  0
VERTEX
  8
14
  10
344.513214
  20
847.157959
  0
VERTEX
  8
14
  10
344.308258
  20
849.498291
  0
VERTEX
  8
14
  10
344.131592
  20
851.808899
  0
VERTEX
  8
14
  10
343.985352
  20
854.088074
  0
VERTEX
  8
14
  10
343.871643
  20
856.333923
  0
VERTEX
  8
14
  10
343.792603
  20
858.544678
  0
VERTEX
  8
14
  10
343.750305
  20
860.718567
  0
VERTEX
  8
14
  10
343.746918
  20
862.853760
  0
VERTEX
  8
14
  10
343.784546
  20
864.948364
  0
VERTEX
  8
14
  10
343.865326
  20
867.000671
  0
VERTEX
  8
14
  10
343.991364
  20
869.008850
  0
VERTEX
  8
14
  10
344.164795
  20
870.971130
  0
VERTEX
  8
14
  10
344.387695
  20
872.885620
  0
VERTEX
  8
14
  10
344.662231
  20
874.750610
  0
VERTEX
  8
14
  10
344.990509
  20
876.564209
  0
VERTEX
  8
14
  10
345.374664
  20
878.324646
  0
VERTEX
  8
14
  10
347.942871
  20
888.103271
  0
VERTEX
  8
14
  10
350.863342
  20
897.415833
  0
VERTEX
  8
14
  10
354.116577
  20
906.278381
  0
VERTEX
  8
14
  10
357.683136
  20
914.706848
  0
VERTEX
  8
14
  10
361.543518
  20
922.717224
  0
VERTEX
  8
14
  10
365.678314
  20
930.325500
  0
VERTEX
  8
14
  10
370.067963
  20
937.547607
  0
VERTEX
  8
14
  10
374.693054
  20
944.399536
  0
VERTEX
  8
14
  10
379.534119
  20
950.897217
  0
VERTEX
  8
14
  10
384.571655
  20
957.056641
  0
VERTEX
  8
14
  10
389.786194
  20
962.893860
  0
VERTEX
  8
14
  10
395.158325
  20
968.424744
  0
VERTEX
  8
14
  10
400.668488
  20
973.665283
  0
VERTEX
  8
14
  10
406.297241
  20
978.631470
  0
VERTEX
  8
14
  10
412.025146
  20
983.339233
  0
VERTEX
  8
14
  10
417.832733
  20
987.804626
  0
VERTEX
  8
14
  10
423.700500
  20
992.043579
  0
VERTEX
  8
14
  10
429.608948
  20
996.072021
  0
VERTEX
  8
14
  10
435.538696
  20
999.905945
  0
VERTEX
  8
14
  10
441.470215
  20
1003.561279
  0
VERTEX
  8
14
  10
447.384033
  20
1007.054138
  0
VERTEX
  8
14
  10
453.260681
  20
1010.400391
  0
VERTEX
  8
14
  10
459.080688
  20
1013.615967
  0
VERTEX
  8
14
  10
464.824585
  20
1016.716919
  0
VERTEX
  8
14
  10
470.472931
  20
1019.719177
  0
VERTEX
  8
14
  10
476.006226
  20
1022.638672
  0
VERTEX
  8
14
  10
481.404968
  20
1025.491455
  0
VERTEX
  8
14
  10
486.649750
  20
1028.293457
  0
VERTEX
  8
14
  10
491.721069
  20
1031.060791
  0
VERTEX
  8
14
  10
475.803986
  20
1056.571289
  0
VERTEX
  8
14
  10
469.520874
  20
1053.323730
  0
VERTEX
  8
14
  10
463.315979
  20
1050.108398
  0
VERTEX
  8
14
  10
457.191589
  20
1046.931885
  0
VERTEX
  8
14
  10
451.150116
  20
1043.800903
  0
VERTEX
  8
14
  10
445.193878
  20
1040.722168
  0
VERTEX
  8
14
  10
439.325287
  20
1037.702637
  0
VERTEX
  8
14
  10
433.546631
  20
1034.748657
  0
VERTEX
  8
14
  10
427.860291
  20
1031.867310
  0
VERTEX
  8
14
  10
422.268646
  20
1029.065063
  0
VERTEX
  8
14
  10
416.774017
  20
1026.348755
  0
VERTEX
  8
14
  10
411.378784
  20
1023.725098
  0
VERTEX
  8
14
  10
406.085297
  20
1021.200806
  0
VERTEX
  8
14
  10
400.895874
  20
1018.782654
  0
VERTEX
  8
14
  10
395.812927
  20
1016.477295
  0
VERTEX
  8
14
  10
390.838806
  20
1014.291443
  0
VERTEX
  8
14
  10
385.975830
  20
1012.231934
  0
VERTEX
  8
14
  10
381.226349
  20
1010.305359
  0
VERTEX
  8
14
  10
376.592773
  20
1008.518555
  0
VERTEX
  8
14
  10
372.077423
  20
1006.878174
  0
VERTEX
  8
14
  10
367.682648
  20
1005.390991
  0
VERTEX
  8
14
  10
363.410828
  20
1004.063660
  0
VERTEX
  8
14
  10
359.264313
  20
1002.902954
  0
VERTEX
  8
14
  10
355.245422
  20
1001.915649
  0
VERTEX
  8
14
  10
351.356537
  20
1001.108398
  0
VERTEX
  8
14
  10
347.600037
  20
1000.487915
  0
VERTEX
  8
14
  10
343.978271
  20
1000.060913
  0
VERTEX
  8
14
  10
340.493530
  20
999.834229
  0
VERTEX
  8
14
  10
337.148254
  20
999.814453
  0
SEQEND
  0
POINT
  8
2
  10
333.944763
  20
1000.008423
  0
POINT
  8
2
  10
192.085510
  20
1056.571289
  0
POINT
  8
2
  10
176.168457
  20
1031.060791
  0
POINT
  8
2
  10
322.514862
  20
878.324646
  0
POINT
  8
2
  10
318.723846
  20
812.289368
  0
POINT
  8
2
  10
333.944763
  20
812.320435
  0
POINT
  8
2
  10
349.165680
  20
812.289368
  0
POINT
  8
2
  10
345.374664
  20
878.324646
  0
POINT
  8
2
  10
491.721069
  20
1031.060791
  0
POINT
  8
2
  10
475.803986
  20
1056.571289
  0
POINT
  8
3
  10
330.741272
  20
999.814453
  0
POINT
  8
3
  10
327.395996
  20
999.834229
  0
POINT
  8
3
  10
323.911255
  20
1000.060913
  0
POINT
  8
3
  10
320.289490
  20
1000.487915
  0
POINT
  8
3
  10
316.532990
  20
1001.108337
  0
POINT
  8
3
  10
312.644104
  20
1001.915649
  0
POINT
  8
3
  10
308.625244
  20
1002.902954
  0
POINT
  8
3
  10
304.478699
  20
1004.063660
  0
POINT
  8
3
  10
300.206879
  20
1005.390991
  0
POINT
  8
3
  10
295.812103
  20
1006.878174
  0
POINT
  8
3
  10
291.296753
  20
1008.518555
  0
POINT
  8
3
  10
286.663147
  20
1010.305420
  0
POINT
  8
3
  10
281.913696
  20
1012.231934
  0
POINT
  8
3
  10
277.050720
  20
1014.291443
  0
POINT
  8
3
  10
272.076599
  20
1016.477295
  0
POINT
  8
3
  10
266.993652
  20
1018.782593
  0
POINT
  8
3
  10
261.804230
  20
1021.200806
  0
POINT
  8
3
  10
256.510742
  20
1023.725098
  0
POINT
  8
3
  10
251.115494
  20
1026.348755
  0
POINT
  8
3
  10
245.620865
  20
1029.065063
  0
POINT
  8
3
  10
240.029205
  20
1031.867310
  0
POINT
  8
3
  10
234.342880
  20
1034.748657
  0
POINT
  8
3
  10
228.564224
  20
1037.702637
  0
POINT
  8
3
  10
222.695602
  20
1040.722290
  0
POINT
  8
3
  10
216.739380
  20
1043.800903
  0
POINT
  8
3
  10
210.697906
  20
1046.931885
  0
POINT
  8
3
  10
204.573532
  20
1050.108398
  0
POINT
  8
3
  10
198.368622
  20
1053.323853
  0
POINT
  8
3
  10
181.239777
  20
1028.293457
  0
POINT
  8
3
  10
186.484543
  20
1025.491455
  0
POINT
  8
3
  10
191.883316
  20
1022.638672
  0
POINT
  8
3
  10
197.416595
  20
1019.719116
  0
POINT
  8
3
  10
203.064957
  20
1016.716919
  0
POINT
  8
3
  10
208.808823
  20
1013.615967
  0
POINT
  8
3
  10
214.628860
  20
1010.400391
  0
POINT
  8
3
  10
220.505508
  20
1007.054138
  0
POINT
  8
3
  10
226.419312
  20
1003.561340
  0
POINT
  8
3
  10
232.350815
  20
999.905884
  0
POINT
  8
3
  10
238.280548
  20
996.071960
  0
POINT
  8
3
  10
244.188995
  20
992.043579
  0
POINT
  8
3
  10
250.056778
  20
987.804626
  0
POINT
  8
3
  10
255.864365
  20
983.339233
  0
POINT
  8
3
  10
261.592255
  20
978.631470
  0
POINT
  8
3
  10
267.221039
  20
973.665283
  0
POINT
  8
3
  10
272.731201
  20
968.424744
  0
POINT
  8
3
  10
278.103302
  20
962.893860
  0
POINT
  8
3
  10
283.317871
  20
957.056702
  0
POINT
  8
3
  10
288.355408
  20
950.897217
  0
POINT
  8
3
  10
293.196472
  20
944.399536
  0
POINT
  8
3
  10
297.821564
  20
937.547607
  0
POINT
  8
3
  10
302.211212
  20
930.325500
  0
POINT
  8
3
  10
306.346008
  20
922.717224
  0
POINT
  8
3
  10
310.206390
  20
914.706848
  0
POINT
  8
3
  10
313.772949
  20
906.278381
  0
POINT
  8
3
  10
317.026184
  20
897.415833
  0
POINT
  8
3
  10
319.946655
  20
888.103271
  0
POINT
  8
3
  10
322.899017
  20
876.564209
  0
POINT
  8
3
  10
323.227295
  20
874.750610
  0
POINT
  8
3
  10
323.501831
  20
872.885620
  0
POINT
  8
3
  10
323.724762
  20
870.971130
  0
POINT
  8
3
  10
323.898163
  20
869.008850
  0
POINT
  8
3
  10
324.024200
  20
867.000671
  0
POINT
  8
3
  10
324.104980
  20
864.948364
  0
POINT
  8
3
  10
324.142609
  20
862.853760
  0
POINT
  8
3
  10
324.139221
  20
860.718567
  0
POINT
  8
3
  10
324.096954
  20
858.544739
  0
POINT
  8
3
  10
324.017883
  20
856.333923
  0
POINT
  8
3
  10
323.904175
  20
854.088074
  0
POINT
  8
3
  10
323.757935
  20
851.808899
  0
POINT
  8
3
  10
323.581268
  20
849.498291
  0
POINT
  8
3
  10
323.376312
  20
847.157959
  0
POINT
  8
3
  10
323.145172
  20
844.789795
  0
POINT
  8
3
  10
322.889984
  20
842.395569
  0
POINT
  8
3
  10
322.612885
  20
839.977051
  0
POINT
  8
3
  10
322.315979
  20
837.536072
  0
POINT
  8
3
  10
322.001373
  20
835.074524
  0
POINT
  8
3
  10
321.671204
  20
832.594055
  0
POINT
  8
3
  10
321.327576
  20
830.096619
  0
POINT
  8
3
  10
320.972626
  20
827.583923
  0
POINT
  8
3
  10
320.608459
  20
825.057861
  0
POINT
  8
3
  10
320.237213
  20
822.520142
  0
POINT
  8
3
  10
319.861023
  20
819.972656
  0
POINT
  8
3
  10
319.481995
  20
817.417114
  0
POINT
  8
3
  10
319.102203
  20
814.855469
  0
POINT
  8
3
  10
348.787323
  20
814.855469
  0
POINT
  8
3
  10
348.407532
  20
817.417114
  0
POINT
  8
3
  10
348.028503
  20
819.972656
  0
POINT
  8
3
  10
347.652313
  20
822.520142
  0
POINT
  8
3
  10
347.281067
  20
825.057861
  0
POINT
  8
3
  10
346.916901
  20
827.583923
  0
POINT
  8
3
  10
346.561951
  20
830.096619
  0
POINT
  8
3
  10
346.218323
  20
832.594055
  0
POINT
  8
3
  10
345.888153
  20
835.074524
  0
POINT
  8
3
  10
345.573547
  20
837.536072
  0
POINT
  8
3
  10
345.276642
  20
839.977051
  0
POINT
  8
3
  10
344.999542
  20
842.395569
  0
POINT
  8
3
  10
344.744354
  20
844.789795
  0
POINT
  8
3
  10
344.513214
  20
847.157959
  0
POINT
  8
3
  10
344.308258
  20
849.498291
  0
POINT
  8
3
  10
344.131592
  20
851.808899
  0
POINT
  8
3
  10
343.985352
  20
854.088074
  0
POINT
  8
3
  10
343.871643
  20
856.333923
  0
POINT
  8
3
  10
343.792603
  20
858.544678
  0
POINT
  8
3
  10
343.750305
  20
860.718567
  0
POINT
  8
3
  10
343.746918
  20
862.853760
  0
POINT
  8
3
  10
343.784546
  20
864.948364
  0
POINT
  8
3
  10
343.865326
  20
867.000671
  0
POINT
  8
3
  10
343.991364
  20
869.008850
  0
POINT
  8
3
  10
344.164795
  20
870.971130
  0
POINT
  8
3
  10
344.387695
  20
872.885620
  0
POINT
  8
3
  10
344.662231
  20
874.750610
  0
POINT
  8
3
  10
344.990509
  20
876.564209
  0
POINT
  8
3
  10
347.942871
  20
888.103271
  0
POINT
  8
3
  10
350.863342
  20
897.415833
  0
POINT
  8
3
  10
354.116577
  20
906.278381
  0
POINT
  8
3
  10
357.683136
  20
914.706848
  0
POINT
  8
3
  10
361.543518
  20
922.717224
  0
POINT
  8
3
  10
365.678314
  20
930.325500
  0
POINT
  8
3
  10
370.067963
  20
937.547607
  0
POINT
  8
3
  10
374.693054
  20
944.399536
  0
POINT
  8
3
  10
379.534119
  20
950.897217
  0
POINT
  8
3
  10
384.571655
  20
957.056641
  0
POINT
  8
3
  10
389.786194
  20
962.893860
  0
POINT
  8
3
  10
395.158325
  20
968.424744
  0
POINT
  8
3
  10
400.668488
  20
973.665283
  0
POINT
  8
3
  10
406.297241
  20
978.631470
  0
POINT
  8
3
  10
412.025146
  20
983.339233
  0
POINT
  8
3
  10
417.832733
  20
987.804626
  0
POINT
  8
3
  10
423.700500
  20
992.043579
  0
POINT
  8
3
  10
429.608948
  20
996.072021
  0
POINT
  8
3
  10
435.538696
  20
999.905945
  0
POINT
  8
3
  10
441.470215
  20
1003.561279
  0
POINT
  8
3
  10
447.384033
  20
1007.054138
  0
POINT
  8
3
  10
453.260681
  20
1010.400391
  0
POINT
  8
3
  10
459.080688
  20
1013.615967
  0
POINT
  8
3
  10
464.824585
  20
1016.716919
  0
POINT
  8
3
  10
470.472931
  20
1019.719177
  0
POINT
  8
3
  10
476.006226
  20
1022.638672
  0
POINT
  8
3
  10
481.404968
  20
1025.491455
  0
POINT
  8
3
  10
486.649750
  20
1028.293457
  0
POINT
  8
3
  10
469.520874
  20
1053.323730
  0
POINT
  8
3
  10
463.315979
  20
1050.108398
  0
POINT
  8
3
  10
457.191589
  20
1046.931885
  0
POINT
  8
3
  10
451.150116
  20
1043.800903
  0
POINT
  8
3
  10
445.193878
  20
1040.722168
  0
POINT
  8
3
  10
439.325287
  20
1037.702637
  0
POINT
  8
3
  10
433.546631
  20
1034.748657
  0
POINT
  8
3
  10
427.860291
  20
1031.867310
  0
POINT
  8
3
  10
422.268646
  20
1029.065063
  0
POINT
  8
3
  10
416.774017
  20
1026.348755
  0
POINT
  8
3
  10
411.378784
  20
1023.725098
  0
POINT
  8
3
  10
406.085297
  20
1021.200806
  0
POINT
  8
3
  10
400.895874
  20
1018.782654
  0
POINT
  8
3
  10
395.812927
  20
1016.477295
  0
POINT
  8
3
  10
390.838806
  20
1014.291443
  0
POINT
  8
3
  10
385.975830
  20
1012.231934
  0
POINT
  8
3
  10
381.226349
  20
1010.305359
  0
POINT
  8
3
  10
376.592773
  20
1008.518555
  0
POINT
  8
3
  10
372.077423
  20
1006.878174
  0
POINT
  8
3
  10
367.682648
  20
1005.390991
  0
POINT
  8
3
  10
363.410828
  20
1004.063660
  0
POINT
  8
3
  10
359.264313
  20
1002.902954
  0
POINT
  8
3
  10
355.245422
  20
1001.915649
  0
POINT
  8
3
  10
351.356537
  20
1001.108398
  0
POINT
  8
3
  10
347.600037
  20
1000.487915
  0
POINT
  8
3
  10
343.978271
  20
1000.060913
  0
POINT
  8
3
  10
340.493530
  20
999.834229
  0
POINT
  8
3
  10
337.148254
  20
999.814453
  0
LINE
  8
7
  10
333.944763
  20
844.430298
  11
333.944763
  21
1024.430298
  0
POLYLINE
  8
8
  66
1
  70
0
  250
0
  0
VERTEX
  8
8
  10
333.944763
  20
986.556763
  0
VERTEX
  8
8
  10
328.944763
  20
986.556702
  0
VERTEX
  8
8
  10
328.944763
  20
991.556702
  0
SEQEND
  0
POINT
  8
2
  10
333.944763
  20
986.556763
  0
POINT
  8
2
  10
328.944763
  20
986.556702
  0
POINT
  8
2
  10
328.944763
  20
991.556702
  0
POLYLINE
  8
8
  66
1
  70
0
  250
0
  0
VERTEX
  8
8
  10
333.944763
  20
986.556763
  0
VERTEX
  8
8
  10
328.944763
  20
986.556702
  0
VERTEX
  8
8
  10
328.944763
  20
991.556702
  0
SEQEND
  0
POINT
  8
2
  10
333.944763
  20
986.556763
  0
POINT
  8
2
  10
328.944763
  20
986.556702
  0
POINT
  8
2
  10
328.944763
  20
991.556702
  0
POLYLINE
  8
8
  66
1
  70
0
  250
0
  0
VERTEX
  8
8
  10
333.944763
  20
986.556763
  0
VERTEX
  8
8
  10
338.944763
  20
986.556702
  0
VERTEX
  8
8
  10
338.944763
  20
991.556702
  0
SEQEND
  0
POINT
  8
2
  10
333.944763
  20
986.556763
  0
POINT
  8
2
  10
338.944763
  20
986.556702
  0
POINT
  8
2
  10
338.944763
  20
991.556702
  0
POLYLINE
  8
8
  66
1
  70
0
  250
0
  0
VERTEX
  8
8
  10
333.944763
  20
986.556763
  0
VERTEX
  8
8
  10
338.944763
  20
986.556702
  0
VERTEX
  8
8
  10
338.944763
  20
991.556702
  0
SEQEND
  0
POINT
  8
2
  10
333.944763
  20
986.556763
  0
POINT
  8
2
  10
338.944763
  20
986.556702
  0
POINT
  8
2
  10
338.944763
  20
991.556702
  0
POLYLINE
  8
1
  66
1
  70
1
  250
0
  0
VERTEX
  8
1
  10
333.944763
  20
1000.008423
  0
VERTEX
  8
1
  10
330.741272
  20
999.814453
  0
VERTEX
  8
1
  10
327.395996
  20
999.834229
  0
VERTEX
  8
1
  10
323.911255
  20
1000.060913
  0
VERTEX
  8
1
  10
320.289490
  20
1000.487915
  0
VERTEX
  8
1
  10
316.532990
  20
1001.108337
  0
VERTEX
  8
1
  10
312.644104
  20
1001.915649
  0
VERTEX
  8
1
  10
308.625244
  20
1002.902954
  0
VERTEX
  8
1
  10
304.478699
  20
1004.063660
  0
VERTEX
  8
1
  10
300.206879
  20
1005.390991
  0
VERTEX
  8
1
  10
295.812103
  20
1006.878174
  0
VERTEX
  8
1
  10
291.296753
  20
1008.518555
  0
VERTEX
  8
1
  10
286.663147
  20
1010.305420
  0
VERTEX
  8
1
  10
281.913696
  20
1012.231934
  0
VERTEX
  8
1
  10
277.050720
  20
1014.291443
  0
VERTEX
  8
1
  10
272.076599
  20
1016.477295
  0
VERTEX
  8
1
  10
266.993652
  20
1018.782593
  0
VERTEX
  8
1
  10
261.804230
  20
1021.200806
  0
VERTEX
  8
1
  10
256.510742
  20
1023.725098
  0
VERTEX
  8
1
  10
251.115494
  20
1026.348755
  0
VERTEX
  8
1
  10
245.620865
  20
1029.065063
  0
VERTEX
  8
1
  10
240.029205
  20
1031.867310
  0
VERTEX
  8
1
  10
234.342880
  20
1034.748657
  0
VERTEX
  8
1
  10
228.564224
  20
1037.702637
  0
VERTEX
  8
1
  10
222.695602
  20
1040.722290
  0
VERTEX
  8
1
  10
216.739380
  20
1043.800903
  0
VERTEX
  8
1
  10
210.697906
  20
1046.931885
  0
VERTEX
  8
1
  10
204.573532
  20
1050.108398
  0
VERTEX
  8
1
  10
198.368622
  20
1053.323853
  0
VERTEX
  8
1
  10
192.085510
  20
1056.571289
  0
VERTEX
  8
1
  10
188.057816
  20
1059.561523
  0
VERTEX
  8
1
  10
172.080978
  20
1033.955200
  0
VERTEX
  8
1
  10
176.168457
  20
1031.060791
  0
VERTEX
  8
1
  10
181.239777
  20
1028.293457
  0
VERTEX
  8
1
  10
186.484543
  20
1025.491455
  0
VERTEX
  8
1
  10
191.883316
  20
1022.638672
  0
VERTEX
  8
1
  10
197.416595
  20
1019.719116
  0
VERTEX
  8
1
  10
203.064957
  20
1016.716919
  0
VERTEX
  8
1
  10
208.808823
  20
1013.615967
  0
VERTEX
  8
1
  10
214.628860
  20
1010.400391
  0
VERTEX
  8
1
  10
220.505508
  20
1007.054138
  0
VERTEX
  8
1
  10
226.419312
  20
1003.561340
  0
VERTEX
  8
1
  10
232.350815
  20
999.905884
  0
VERTEX
  8
1
  10
238.280548
  20
996.071960
  0
VERTEX
  8
1
  10
244.188995
  20
992.043579
  0
VERTEX
  8
1
  10
250.056778
  20
987.804626
  0
VERTEX
  8
1
  10
255.864365
  20
983.339233
  0
VERTEX
  8
1
  10
261.592255
  20
978.631470
  0
VERTEX
  8
1
  10
267.221039
  20
973.665283
  0
VERTEX
  8
1
  10
272.731201
  20
968.424744
  0
VERTEX
  8
1
  10
278.103302
  20
962.893860
  0
VERTEX
  8
1
  10
283.317871
  20
957.056702
  0
VERTEX
  8
1
  10
288.355408
  20
950.897217
  0
VERTEX
  8
1
  10
293.196472
  20
944.399536
  0
VERTEX
  8
1
  10
297.821564
  20
937.547607
  0
VERTEX
  8
1
  10
302.211212
  20
930.325500
  0
VERTEX
  8
1
  10
306.346008
  20
922.717224
  0
VERTEX
  8
1
  10
310.206390
  20
914.706848
  0
VERTEX
  8
1
  10
313.772949
  20
906.278381
  0
VERTEX
  8
1
  10
317.026184
  20
897.415833
  0
VERTEX
  8
1
  10
319.946655
  20
888.103271
  0
VERTEX
  8
1
  10
322.514862
  20
878.324646
  0
VERTEX
  8
1
  10
322.899017
  20
876.564209
  0
VERTEX
  8
1
  10
323.227295
  20
874.750610
  0
VERTEX
  8
1
  10
323.501831
  20
872.885620
  0
VERTEX
  8
1
  10
323.724762
  20
870.971130
  0
VERTEX
  8
1
  10
323.898163
  20
869.008850
  0
VERTEX
  8
1
  10
324.024200
  20
867.000671
  0
VERTEX
  8
1
  10
324.104980
  20
864.948364
  0
VERTEX
  8
1
  10
324.142609
  20
862.853760
  0
VERTEX
  8
1
  10
324.139221
  20
860.718567
  0
VERTEX
  8
1
  10
324.096954
  20
858.544739
  0
VERTEX
  8
1
  10
324.017883
  20
856.333923
  0
VERTEX
  8
1
  10
323.904175
  20
854.088074
  0
VERTEX
  8
1
  10
323.757935
  20
851.808899
  0
VERTEX
  8
1
  10
323.581268
  20
849.498291
  0
VERTEX
  8
1
  10
323.376312
  20
847.157959
  0
VERTEX
  8
1
  10
323.145172
  20
844.789795
  0
VERTEX
  8
1
  10
322.889984
  20
842.395569
  0
VERTEX
  8
1
  10
322.612885
  20
839.977051
  0
VERTEX
  8
1
  10
322.315979
  20
837.536072
  0
VERTEX
  8
1
  10
322.001373
  20
835.074524
  0
VERTEX
  8
1
  10
321.671204
  20
832.594055
  0
VERTEX
  8
1
  10
321.327576
  20
830.096619
  0
VERTEX
  8
1
  10
320.972626
  20
827.583923
  0
VERTEX
  8
1
  10
320.608459
  20
825.057861
  0
VERTEX
  8
1
  10
320.237213
  20
822.520142
  0
VERTEX
  8
1
  10
319.861023
  20
819.972656
  0
VERTEX
  8
1
  10
319.481995
  20
817.417114
  0
VERTEX
  8
1
  10
319.102203
  20
814.855469
  0
VERTEX
  8
1
  10
318.723846
  20
812.289368
  0
VERTEX
  8
1
  10
319.481750
  20
807.290894
  0
VERTEX
  8
1
  10
333.944763
  20
807.320435
  0
VERTEX
  8
1
  10
348.407776
  20
807.290894
  0
VERTEX
  8
1
  10
349.165680
  20
812.289368
  0
VERTEX
  8
1
  10
348.787323
  20
814.855469
  0
VERTEX
  8
1
  10
348.407532
  20
817.417114
  0
VERTEX
  8
1
  10
348.028503
  20
819.972656
  0
VERTEX
  8
1
  10
347.652313
  20
822.520142
  0
VERTEX
  8
1
  10
347.281067
  20
825.057861
  0
VERTEX
  8
1
  10
346.916901
  20
827.583923
  0
VERTEX
  8
1
  10
346.561951
  20
830.096619
  0
VERTEX
  8
1
  10
346.218323
  20
832.594055
  0
VERTEX
  8
1
  10
345.888153
  20
835.074524
  0
VERTEX
  8
1
  10
345.573547
  20
837.536072
  0
VERTEX
  8
1
  10
345.276642
  20
839.977051
  0
VERTEX
  8
1
  10
344.999542
  20
842.395569
  0
VERTEX
  8
1
  10
344.744354
  20
844.789795
  0
VERTEX
  8
1
  10
344.513214
  20
847.157959
  0
VERTEX
  8
1
  10
344.308258
  20
849.498291
  0
VERTEX
  8
1
  10
344.131592
  20
851.808899
  0
VERTEX
  8
1
  10
343.985352
  20
854.088074
  0
VERTEX
  8
1
  10
343.871643
  20
856.333923
  0
VERTEX
  8
1
  10
343.792603
  20
858.544678
  0
VERTEX
  8
1
  10
343.750305
  20
860.718567
  0
VERTEX
  8
1
  10
343.746918
  20
862.853760
  0
VERTEX
  8
1
  10
343.784546
  20
864.948364
  0
VERTEX
  8
1
  10
343.865326
  20
867.000671
  0
VERTEX
  8
1
  10
343.991364
  20
869.008850
  0
VERTEX
  8
1
  10
344.164795
  20
870.971130
  0
VERTEX
  8
1
  10
344.387695
  20
872.885620
  0
VERTEX
  8
1
  10
344.662231
  20
874.750610
  0
VERTEX
  8
1
  10
344.990509
  20
876.564209
  0
VERTEX
  8
1
  10
345.374664
  20
878.324646
  0
VERTEX
  8
1
  10
347.942871
  20
888.103271
  0
VERTEX
  8
1
  10
350.863342
  20
897.415833
  0
VERTEX
  8
1
  10
354.116577
  20
906.278381
  0
VERTEX
  8
1
  10
357.683136
  20
914.706848
  0
VERTEX
  8
1
  10
361.543518
  20
922.717224
  0
VERTEX
  8
1
  10
365.678314
  20
930.325500
  0
VERTEX
  8
1
  10
370.067963
  20
937.547607
  0
VERTEX
  8
1
  10
374.693054
  20
944.399536
  0
VERTEX
  8
1
  10
379.534119
  20
950.897217
  0
VERTEX
  8
1
  10
384.571655
  20
957.056641
  0
VERTEX
  8
1
  10
389.786194
  20
962.893860
  0
VERTEX
  8
1
  10
395.158325
  20
968.424744
  0
VERTEX
  8
1
  10
400.668488
  20
973.665283
  0
VERTEX
  8
1
  10
406.297241
  20
978.631470
  0
VERTEX
  8
1
  10
412.025146
  20
983.339233
  0
VERTEX
  8
1
  10
417.832733
  20
987.804626
  0
VERTEX
  8
1
  10
423.700500
  20
992.043579
  0
VERTEX
  8
1
  10
429.608948
  20
996.072021
  0
VERTEX
  8
1
  10
435.538696
  20
999.905945
  0
VERTEX
  8
1
  10
441.470215
  20
1003.561279
  0
VERTEX
  8
1
  10
447.384033
  20
1007.054138
  0
VERTEX
  8
1
  10
453.260681
  20
1010.400391
  0
VERTEX
  8
1
  10
459.080688
  20
1013.615967
  0
VERTEX
  8
1
  10
464.824585
  20
1016.716919
  0
VERTEX
  8
1
  10
470.472931
  20
1019.719177
  0
VERTEX
  8
1
  10
476.006226
  20
1022.638672
  0
VERTEX
  8
1
  10
481.404968
  20
1025.491455
  0
VERTEX
  8
1
  10
486.649750
  20
1028.293457
  0
VERTEX
  8
1
  10
491.721069
  20
1031.060791
  0
VERTEX
  8
1
  10
495.808533
  20
1033.955200
  0
VERTEX
  8
1
  10
479.831665
  20
1059.561523
  0
VERTEX
  8
1
  10
475.803986
  20
1056.571289
  0
VERTEX
  8
1
  10
469.520874
  20
1053.323730
  0
VERTEX
  8
1
  10
463.315979
  20
1050.108398
  0
VERTEX
  8
1
  10
457.191589
  20
1046.931885
  0
VERTEX
  8
1
  10
451.150116
  20
1043.800903
  0
VERTEX
  8
1
  10
445.193878
  20
1040.722168
  0
VERTEX
  8
1
  10
439.325287
  20
1037.702637
  0
VERTEX
  8
1
  10
433.546631
  20
1034.748657
  0
VERTEX
  8
1
  10
427.860291
  20
1031.867310
  0
VERTEX
  8
1
  10
422.268646
  20
1029.065063
  0
VERTEX
  8
1
  10
416.774017
  20
1026.348755
  0
VERTEX
  8
1
  10
411.378784
  20
1023.725098
  0
VERTEX
  8
1
  10
406.085297
  20
1021.200806
  0
VERTEX
  8
1
  10
400.895874
  20
1018.782654
  0
VERTEX
  8
1
  10
395.812927
  20
1016.477295
  0
VERTEX
  8
1
  10
390.838806
  20
1014.291443
  0
VERTEX
  8
1
  10
385.975830
  20
1012.231934
  0
VERTEX
  8
1
  10
381.226349
  20
1010.305359
  0
VERTEX
  8
1
  10
376.592773
  20
1008.518555
  0
VERTEX
  8
1
  10
372.077423
  20
1006.878174
  0
VERTEX
  8
1
  10
367.682648
  20
1005.390991
  0
VERTEX
  8
1
  10
363.410828
  20
1004.063660
  0
VERTEX
  8
1
  10
359.264313
  20
1002.902954
  0
VERTEX
  8
1
  10
355.245422
  20
1001.915649
  0
VERTEX
  8
1
  10
351.356537
  20
1001.108398
  0
VERTEX
  8
1
  10
347.600037
  20
1000.487915
  0
VERTEX
  8
1
  10
343.978271
  20
1000.060913
  0
VERTEX
  8
1
  10
340.493530
  20
999.834229
  0
VERTEX
  8
1
  10
337.148254
  20
999.814453
  0
VERTEX
  8
1
  10
333.944763
  20
1000.008423
  0
SEQEND
  0
POINT
  8
2
  10
333.944763
  20
1000.008423
  0
POINT
  8
2
  10
192.085510
  20
1056.571289
  0
POINT
  8
2
  10
188.057816
  20
1059.561523
  0
POINT
  8
2
  10
172.080978
  20
1033.955200
  0
POINT
  8
2
  10
176.168457
  20
1031.060791
  0
POINT
  8
2
  10
322.514862
  20
878.324646
  0
POINT
  8
2
  10
318.723846
  20
812.289368
  0
POINT
  8
2
  10
319.481750
  20
807.290894
  0
POINT
  8
2
  10
333.944763
  20
807.320435
  0
POINT
  8
2
  10
348.407776
  20
807.290894
  0
POINT
  8
2
  10
349.165680
  20
812.289368
  0
POINT
  8
2
  10
345.374664
  20
878.324646
  0
POINT
  8
2
  10
491.721069
  20
1031.060791
  0
POINT
  8
2
  10
495.808533
  20
1033.955200
  0
POINT
  8
2
  10
479.831665
  20
1059.561523
  0
POINT
  8
2
  10
475.803986
  20
1056.571289
  0
POINT
  8
2
  10
333.944763
  20
1000.008423
  0
POINT
  8
3
  10
333.944763
  20
1000.008423
  0
POINT
  8
3
  10
330.741272
  20
999.814453
  0
POINT
  8
3
  10
327.395996
  20
999.834229
  0
POINT
  8
3
  10
323.911255
  20
1000.060913
  0
POINT
  8
3
  10
320.289490
  20
1000.487915
  0
POINT
  8
3
  10
316.532990
  20
1001.108337
  0
POINT
  8
3
  10
312.644104
  20
1001.915649
  0
POINT
  8
3
  10
308.625244
  20
1002.902954
  0
POINT
  8
3
  10
304.478699
  20
1004.063660
  0
POINT
  8
3
  10
300.206879
  20
1005.390991
  0
POINT
  8
3
  10
295.812103
  20
1006.878174
  0
POINT
  8
3
  10
291.296753
  20
1008.518555
  0
POINT
  8
3
  10
286.663147
  20
1010.305420
  0
POINT
  8
3
  10
281.913696
  20
1012.231934
  0
POINT
  8
3
  10
277.050720
  20
1014.291443
  0
POINT
  8
3
  10
272.076599
  20
1016.477295
  0
POINT
  8
3
  10
266.993652
  20
1018.782593
  0
POINT
  8
3
  10
261.804230
  20
1021.200806
  0
POINT
  8
3
  10
256.510742
  20
1023.725098
  0
POINT
  8
3
  10
251.115494
  20
1026.348755
  0
POINT
  8
3
  10
245.620865
  20
1029.065063
  0
POINT
  8
3
  10
240.029205
  20
1031.867310
  0
POINT
  8
3
  10
234.342880
  20
1034.748657
  0
POINT
  8
3
  10
228.564224
  20
1037.702637
  0
POINT
  8
3
  10
222.695602
  20
1040.722290
  0
POINT
  8
3
  10
216.739380
  20
1043.800903
  0
POINT
  8
3
  10
210.697906
  20
1046.931885
  0
POINT
  8
3
  10
204.573532
  20
1050.108398
  0
POINT
  8
3
  10
198.368622
  20
1053.323853
  0
POINT
  8
3
  10
192.085510
  20
1056.571289
  0
POINT
  8
3
  10
176.168457
  20
1031.060791
  0
POINT
  8
3
  10
181.239777
  20
1028.293457
  0
POINT
  8
3
  10
186.484543
  20
1025.491455
  0
POINT
  8
3
  10
191.883316
  20
1022.638672
  0
POINT
  8
3
  10
197.416595
  20
1019.719116
  0
POINT
  8
3
  10
203.064957
  20
1016.716919
  0
POINT
  8
3
  10
208.808823
  20
1013.615967
  0
POINT
  8
3
  10
214.628860
  20
1010.400391
  0
POINT
  8
3
  10
220.505508
  20
1007.054138
  0
POINT
  8
3
  10
226.419312
  20
1003.561340
  0
POINT
  8
3
  10
232.350815
  20
999.905884
  0
POINT
  8
3
  10
238.280548
  20
996.071960
  0
POINT
  8
3
  10
244.188995
  20
992.043579
  0
POINT
  8
3
  10
250.056778
  20
987.804626
  0
POINT
  8
3
  10
255.864365
  20
983.339233
  0
POINT
  8
3
  10
261.592255
  20
978.631470
  0
POINT
  8
3
  10
267.221039
  20
973.665283
  0
POINT
  8
3
  10
272.731201
  20
968.424744
  0
POINT
  8
3
  10
278.103302
  20
962.893860
  0
POINT
  8
3
  10
283.317871
  20
957.056702
  0
POINT
  8
3
  10
288.355408
  20
950.897217
  0
POINT
  8
3
  10
293.196472
  20
944.399536
  0
POINT
  8
3
  10
297.821564
  20
937.547607
  0
POINT
  8
3
  10
302.211212
  20
930.325500
  0
POINT
  8
3
  10
306.346008
  20
922.717224
  0
POINT
  8
3
  10
310.206390
  20
914.706848
  0
POINT
  8
3
  10
313.772949
  20
906.278381
  0
POINT
  8
3
  10
317.026184
  20
897.415833
  0
POINT
  8
3
  10
319.946655
  20
888.103271
  0
POINT
  8
3
  10
322.514862
  20
878.324646
  0
POINT
  8
3
  10
322.899017
  20
876.564209
  0
POINT
  8
3
  10
323.227295
  20
874.750610
  0
POINT
  8
3
  10
323.501831
  20
872.885620
  0
POINT
  8
3
  10
323.724762
  20
870.971130
  0
POINT
  8
3
  10
323.898163
  20
869.008850
  0
POINT
  8
3
  10
324.024200
  20
867.000671
  0
POINT
  8
3
  10
324.104980
  20
864.948364
  0
POINT
  8
3
  10
324.142609
  20
862.853760
  0
POINT
  8
3
  10
324.139221
  20
860.718567
  0
POINT
  8
3
  10
324.096954
  20
858.544739
  0
POINT
  8
3
  10
324.017883
  20
856.333923
  0
POINT
  8
3
  10
323.904175
  20
854.088074
  0
POINT
  8
3
  10
323.757935
  20
851.808899
  0
POINT
  8
3
  10
323.581268
  20
849.498291
  0
POINT
  8
3
  10
323.376312
  20
847.157959
  0
POINT
  8
3
  10
323.145172
  20
844.789795
  0
POINT
  8
3
  10
322.889984
  20
842.395569
  0
POINT
  8
3
  10
322.612885
  20
839.977051
  0
POINT
  8
3
  10
322.315979
  20
837.536072
  0
POINT
  8
3
  10
322.001373
  20
835.074524
  0
POINT
  8
3
  10
321.671204
  20
832.594055
  0
POINT
  8
3
  10
321.327576
  20
830.096619
  0
POINT
  8
3
  10
320.972626
  20
827.583923
  0
POINT
  8
3
  10
320.608459
  20
825.057861
  0
POINT
  8
3
  10
320.237213
  20
822.520142
  0
POINT
  8
3
  10
319.861023
  20
819.972656
  0
POINT
  8
3
  10
319.481995
  20
817.417114
  0
POINT
  8
3
  10
319.102203
  20
814.855469
  0
POINT
  8
3
  10
318.723846
  20
812.289368
  0
POINT
  8
3
  10
349.165680
  20
812.289368
  0
POINT
  8
3
  10
348.787323
  20
814.855469
  0
POINT
  8
3
  10
348.407532
  20
817.417114
  0
POINT
  8
3
  10
348.028503
  20
819.972656
  0
POINT
  8
3
  10
347.652313
  20
822.520142
  0
POINT
  8
3
  10
347.281067
  20
825.057861
  0
POINT
  8
3
  10
346.916901
  20
827.583923
  0
POINT
  8
3
  10
346.561951
  20
830.096619
  0
POINT
  8
3
  10
346.218323
  20
832.594055
  0
POINT
  8
3
  10
345.888153
  20
835.074524
  0
POINT
  8
3
  10
345.573547
  20
837.536072
  0
POINT
  8
3
  10
345.276642
  20
839.977051
  0
POINT
  8
3
  10
344.999542
  20
842.395569
  0
POINT
  8
3
  10
344.744354
  20
844.789795
  0
POINT
  8
3
  10
344.513214
  20
847.157959
  0
POINT
  8
3
  10
344.308258
  20
849.498291
  0
POINT
  8
3
  10
344.131592
  20
851.808899
  0
POINT
  8
3
  10
343.985352
  20
854.088074
  0
POINT
  8
3
  10
343.871643
  20
856.333923
  0
POINT
  8
3
  10
343.792603
  20
858.544678
  0
POINT
  8
3
  10
343.750305
  20
860.718567
  0
POINT
  8
3
  10
343.746918
  20
862.853760
  0
POINT
  8
3
  10
343.784546
  20
864.948364
  0
POINT
  8
3
  10
343.865326
  20
867.000671
  0
POINT
  8
3
  10
343.991364
  20
869.008850
  0
POINT
  8
3
  10
344.164795
  20
870.971130
  0
POINT
  8
3
  10
344.387695
  20
872.885620
  0
POINT
  8
3
  10
344.662231
  20
874.750610
  0
POINT
  8
3
  10
344.990509
  20
876.564209
  0
POINT
  8
3
  10
345.374664
  20
878.324646
  0
POINT
  8
3
  10
347.942871
  20
888.103271
  0
POINT
  8
3
  10
350.863342
  20
897.415833
  0
POINT
  8
3
  10
354.116577
  20
906.278381
  0
POINT
  8
3
  10
357.683136
  20
914.706848
  0
POINT
  8
3
  10
361.543518
  20
922.717224
  0
POINT
  8
3
  10
365.678314
  20
930.325500
  0
POINT
  8
3
  10
370.067963
  20
937.547607
  0
POINT
  8
3
  10
374.693054
  20
944.399536
  0
POINT
  8
3
  10
379.534119
  20
950.897217
  0
POINT
  8
3
  10
384.571655
  20
957.056641
  0
POINT
  8
3
  10
389.786194
  20
962.893860
  0
POINT
  8
3
  10
395.158325
  20
968.424744
  0
POINT
  8
3
  10
400.668488
  20
973.665283
  0
POINT
  8
3
  10
406.297241
  20
978.631470
  0
POINT
  8
3
  10
412.025146
  20
983.339233
  0
POINT
  8
3
  10
417.832733
  20
987.804626
  0
POINT
  8
3
  10
423.700500
  20
992.043579
  0
POINT
  8
3
  10
429.608948
  20
996.072021
  0
POINT
  8
3
  10
435.538696
  20
999.905945
  0
POINT
  8
3
  10
441.470215
  20
1003.561279
  0
POINT
  8
3
  10
447.384033
  20
1007.054138
  0
POINT
  8
3
  10
453.260681
  20
1010.400391
  0
POINT
  8
3
  10
459.080688
  20
1013.615967
  0
POINT
  8
3
  10
464.824585
  20
1016.716919
  0
POINT
  8
3
  10
470.472931
  20
1019.719177
  0
POINT
  8
3
  10
476.006226
  20
1022.638672
  0
POINT
  8
3
  10
481.404968
  20
1025.491455
  0
POINT
  8
3
  10
486.649750
  20
1028.293457
  0
POINT
  8
3
  10
491.721069
  20
1031.060791
  0
POINT
  8
3
  10
475.803986
  20
1056.571289
  0
POINT
  8
3
  10
469.520874
  20
1053.323730
  0
POINT
  8
3
  10
463.315979
  20
1050.108398
  0
POINT
  8
3
  10
457.191589
  20
1046.931885
  0
POINT
  8
3
  10
451.150116
  20
1043.800903
  0
POINT
  8
3
  10
445.193878
  20
1040.722168
  0
POINT
  8
3
  10
439.325287
  20
1037.702637
  0
POINT
  8
3
  10
433.546631
  20
1034.748657
  0
POINT
  8
3
  10
427.860291
  20
1031.867310
  0
POINT
  8
3
  10
422.268646
  20
1029.065063
  0
POINT
  8
3
  10
416.774017
  20
1026.348755
  0
POINT
  8
3
  10
411.378784
  20
1023.725098
  0
POINT
  8
3
  10
406.085297
  20
1021.200806
  0
POINT
  8
3
  10
400.895874
  20
1018.782654
  0
POINT
  8
3
  10
395.812927
  20
1016.477295
  0
POINT
  8
3
  10
390.838806
  20
1014.291443
  0
POINT
  8
3
  10
385.975830
  20
1012.231934
  0
POINT
  8
3
  10
381.226349
  20
1010.305359
  0
POINT
  8
3
  10
376.592773
  20
1008.518555
  0
POINT
  8
3
  10
372.077423
  20
1006.878174
  0
POINT
  8
3
  10
367.682648
  20
1005.390991
  0
POINT
  8
3
  10
363.410828
  20
1004.063660
  0
POINT
  8
3
  10
359.264313
  20
1002.902954
  0
POINT
  8
3
  10
355.245422
  20
1001.915649
  0
POINT
  8
3
  10
351.356537
  20
1001.108398
  0
POINT
  8
3
  10
347.600037
  20
1000.487915
  0
POINT
  8
3
  10
343.978271
  20
1000.060913
  0
POINT
  8
3
  10
340.493530
  20
999.834229
  0
POINT
  8
3
  10
337.148254
  20
999.814453
  0
POINT
  8
3
  10
333.944763
  20
1000.008423
  0
ENDBLK
  0
ENDSEC
  0
SECTION
  2
ENTITIES
  0
INSERT
  8
1
  2
Pattern_1813235_M
  10
0.000000
  20
0.000000
  0
INSERT
  8
1
  2
Pattern_16023304_M
  10
0.000000
  20
0.000000
  0
INSERT
  8
1
  2
Pattern_1813237_M
  10
0.000000
  20
0.000000
  0
TEXT
  8
1
  10
0.000000
  20
0.000000
  40
0.250000
  50
0.000000
  1
STYLE NAME: Narrow Thong
  7
STANDARD
  0
TEXT
  8
1
  10
0.000000
  20
0.000000
  40
0.250000
  50
0.000000
  1
CREATION DATE: 21-03-2024
  7
STANDARD
  0
TEXT
  8
1
  10
0.000000
  20
0.000000
  40
0.250000
  50
0.000000
  1
CREATION TIME: 14:16
  7
STANDARD
  0
TEXT
  8
1
  10
0.000000
  20
0.000000
  40
0.250000
  50
0.000000
  1
AUTHOR: CLO Virtual Fashion Inc.
  7
STANDARD
  0
TEXT
  8
1
  10
0.000000
  20
0.000000
  40
0.250000
  50
0.000000
  1
PRODUCT: CLO Standalone OnlineAuth 7.3.240
  7
STANDARD
  0
TEXT
  8
1
  10
0.000000
  20
0.000000
  40
0.250000
  50
0.000000
  1
VERSION: 3
  7
STANDARD
  0
TEXT
  8
1
  10
0.000000
  20
0.000000
  40
0.250000
  50
0.000000
  1
SAMPLE SIZE: M
  7
STANDARD
  0
TEXT
  8
1
  10
0.000000
  20
0.000000
  40
0.250000
  50
0.000000
  1
UNITS: METRIC
  7
STANDARD
  0
ENDSEC
  0
EOF
